<svg width="259" height="259" viewBox="0 0 259 259" fill="none" xmlns="http://www.w3.org/2000/svg">
<g clip-path="url(#clip0_708_607)">
<rect width="259" height="259" fill="white"/>
<rect x="9.5" y="9.5" width="249" height="249" stroke="#FF485E"/>
<rect x="1" y="1" width="248" height="248" fill="white" stroke="black" stroke-width="2"/>
<rect x="43.5" y="39.5" width="130" height="20" stroke="black"/>
<rect x="43.5" y="89.5" width="130" height="20" stroke="black"/>
<path d="M108.53 159.501L108.5 159.499L108.47 159.501L75.75 161.499L47.4113 159.768C45.5753 159.656 44.3749 157.796 45.0297 156.077C45.3552 155.222 45.3552 154.278 45.0297 153.423L44.4672 151.947C43.8668 150.371 43.8668 148.629 44.4672 147.053L45.0727 145.464C45.3705 144.682 45.3705 143.818 45.0727 143.036C44.4496 141.401 45.7237 139.667 47.4709 139.774L75.7195 141.499L75.75 141.501L75.7805 141.499L108.5 139.501L141.22 141.499L141.25 141.501L141.28 141.499L170.337 139.725C172.316 139.604 174.144 140.783 174.85 142.636C175.246 143.676 175.246 144.824 174.85 145.864L174.533 146.697C173.845 148.502 173.845 150.498 174.533 152.303L174.79 152.979C175.225 154.12 175.225 155.38 174.79 156.521C174.095 158.347 172.394 159.597 170.444 159.716L141.25 161.499L108.53 159.501Z" stroke="#FF485E"/>
<rect x="43.5" y="189.5" width="130" height="20" stroke="black"/>
<path d="M215.094 107.906C214.687 107.5 214.205 107.178 213.674 106.958C213.144 106.738 212.575 106.625 212 106.625C211.425 106.625 210.856 106.738 210.326 106.958C209.795 107.178 209.313 107.5 208.906 107.906L208.883 107.931L200.305 117.489C200.248 117.552 200.179 117.604 200.102 117.639C200.025 117.675 199.941 117.695 199.856 117.697C199.771 117.699 199.687 117.684 199.608 117.653C199.529 117.622 199.457 117.574 199.397 117.514L197.959 116.077C197.373 115.491 196.579 115.162 195.75 115.162C194.921 115.162 194.127 115.491 193.541 116.077L181.558 128.058C181.5 128.116 181.454 128.185 181.422 128.261C181.391 128.337 181.375 128.418 181.375 128.5C181.375 128.582 181.391 128.664 181.422 128.739C181.454 128.815 181.5 128.884 181.558 128.942L194.058 141.442C194.116 141.5 194.185 141.546 194.261 141.578C194.337 141.609 194.418 141.626 194.5 141.626C194.582 141.626 194.663 141.609 194.739 141.578C194.815 141.546 194.884 141.5 194.942 141.442L206.923 129.459C207.509 128.873 207.838 128.079 207.838 127.25C207.838 126.421 207.509 125.627 206.923 125.041L205.486 123.603C205.426 123.543 205.379 123.471 205.347 123.392C205.316 123.313 205.301 123.229 205.303 123.144C205.305 123.059 205.325 122.975 205.361 122.898C205.397 122.821 205.448 122.752 205.511 122.695L215.069 114.125L215.094 114.102C215.501 113.695 215.825 113.212 216.045 112.681C216.266 112.149 216.379 111.579 216.379 111.004C216.379 110.428 216.266 109.859 216.045 109.327C215.825 108.796 215.501 108.313 215.094 107.906ZM194.5 140.116L191.009 136.625L194.942 132.692C195.059 132.575 195.125 132.416 195.125 132.25C195.125 132.084 195.059 131.925 194.942 131.808C194.825 131.691 194.666 131.625 194.5 131.625C194.334 131.625 194.175 131.691 194.058 131.808L190.125 135.741L187.259 132.875L191.192 128.942C191.309 128.825 191.375 128.666 191.375 128.5C191.375 128.334 191.309 128.175 191.192 128.058C191.075 127.941 190.916 127.875 190.75 127.875C190.584 127.875 190.425 127.941 190.308 128.058L186.375 131.991L182.884 128.5L190.75 120.634L202.366 132.25L194.5 140.116ZM214.22 113.199L204.675 121.766C204.486 121.936 204.333 122.143 204.226 122.374C204.12 122.605 204.061 122.856 204.054 123.11C204.048 123.365 204.093 123.618 204.187 123.855C204.282 124.091 204.423 124.306 204.603 124.486L206.041 125.924C206.215 126.098 206.354 126.305 206.449 126.533C206.543 126.761 206.592 127.005 206.592 127.252C206.592 127.498 206.543 127.743 206.449 127.971C206.354 128.199 206.215 128.406 206.041 128.58L203.25 131.366L191.634 119.75L194.423 116.959C194.598 116.785 194.805 116.646 195.033 116.551C195.26 116.457 195.505 116.408 195.752 116.408C195.998 116.408 196.243 116.457 196.471 116.551C196.699 116.646 196.905 116.785 197.08 116.959L198.517 118.397C198.697 118.577 198.912 118.719 199.149 118.813C199.385 118.907 199.638 118.952 199.893 118.946C200.147 118.939 200.398 118.881 200.629 118.774C200.86 118.667 201.067 118.514 201.238 118.325L209.805 108.78C210.394 108.211 211.183 107.896 212.003 107.903C212.822 107.91 213.606 108.238 214.185 108.818C214.765 109.397 215.093 110.181 215.101 111C215.108 111.82 214.793 112.609 214.223 113.199H214.22Z" fill="#FF485E"/>
</g>
<defs>
<clipPath id="clip0_708_607">
<rect width="259" height="259" fill="white"/>
</clipPath>
</defs>
</svg>
