<svg width="259" height="259" viewBox="0 0 259 259" fill="none" xmlns="http://www.w3.org/2000/svg">
<g clip-path="url(#clip0_707_548)">
<rect width="259" height="259" fill="white"/>
<rect x="9.5" y="9.5" width="249" height="249" stroke="#FF485E"/>
<rect x="1" y="1" width="248" height="248" fill="white" stroke="black" stroke-width="2"/>
<g clip-path="url(#clip1_707_548)">
<path d="M69.7974 62.346C69.7974 55.8039 75.1012 50.5 81.6434 50.5C88.1855 50.5 93.4891 55.8039 93.4894 62.346C93.4894 68.9397 88.123 74.192 81.6434 74.192C75.1192 74.192 69.7974 68.8987 69.7974 62.346Z" stroke="black"/>
<path d="M111.399 136.419L111.399 136.417L111.399 92.6546C111.361 85.2064 105.052 79.1272 97.5831 79.1272H91.4776L71.6515 79.1275L65.6035 79.1275C58.1349 79.1275 51.8249 85.2068 51.7867 92.6552V136.417V136.42C51.7714 139.433 54.2016 141.888 57.2145 141.904H57.2442C60.2447 141.904 62.6848 139.479 62.7006 136.476V92.7134V92.7109C62.7032 92.1935 63.0012 91.7767 63.3416 91.5093C63.6835 91.2408 64.1332 91.0676 64.5751 91.0688C65.485 91.0713 66.221 91.8094 66.221 92.7193L66.2236 192.852C66.2236 196.524 69.2001 199.5 72.8718 199.5C76.5434 199.5 79.5199 196.524 79.5199 192.852V135.715V135.215H80.0199H83.1063H83.6063V135.715V192.852C83.6063 196.524 86.5829 199.5 90.2545 199.5C93.9261 199.5 96.9026 196.524 96.9026 192.852C96.9026 145.505 96.8708 135.45 96.8387 129.706C96.835 129.048 96.8314 128.447 96.8277 127.852C96.7996 123.254 96.774 119.075 96.7728 92.4111C96.7728 91.4416 97.5585 90.6547 98.5286 90.6545L111.399 136.419ZM111.399 136.419C111.404 137.29 110.973 138.155 110.297 138.962C109.626 139.765 108.753 140.461 107.973 140.983L107.751 141.131V141.398V147.732V148.18L108.196 148.229C108.782 148.293 109.557 148.583 110.179 149.02C110.82 149.47 111.164 149.976 111.164 150.426V172.892C111.164 174.113 110.174 175.103 108.953 175.103H102.424C101.202 175.103 100.212 174.113 100.212 172.892V150.426C100.212 149.947 100.616 149.4 101.364 148.933C102.089 148.482 102.973 148.215 103.611 148.215H104.111V147.715V141.385V141.119L103.891 140.971C103.115 140.446 102.194 139.756 101.471 138.962C100.741 138.159 100.271 137.315 100.266 136.476V92.7429M111.399 136.419L100.266 92.7429M100.266 92.7429C100.336 92.1162 100.16 91.587 99.8138 91.2121C99.4709 90.8401 98.9928 90.6544 98.5288 90.6545L100.266 92.7429Z" stroke="black"/>
<path d="M86 85H78L80 89.5L78 94L81 120.5H83.5L86 94L84 89.5L86 85Z" stroke="#FF485E"/>
<path d="M155.797 62.346C155.797 55.8039 161.101 50.5 167.643 50.5C174.185 50.5 179.489 55.8039 179.489 62.346C179.489 68.9397 174.123 74.192 167.643 74.192C161.119 74.192 155.797 68.8987 155.797 62.346Z" stroke="black"/>
<path d="M197.399 136.419L197.399 136.417L197.399 92.6546C197.361 85.2064 191.052 79.1272 183.583 79.1272H177.478L157.652 79.1275L151.603 79.1275C144.135 79.1275 137.825 85.2068 137.787 92.6552V136.417V136.42C137.771 139.433 140.202 141.888 143.214 141.904H143.244C146.245 141.904 148.685 139.479 148.701 136.476V92.7134V92.7109C148.703 92.1935 149.001 91.7767 149.342 91.5093C149.684 91.2408 150.133 91.0676 150.575 91.0688C151.485 91.0713 152.221 91.8094 152.221 92.7193L152.224 192.852C152.224 196.524 155.2 199.5 158.872 199.5C162.543 199.5 165.52 196.524 165.52 192.852V135.715V135.215H166.02H169.106H169.606V135.715V192.852C169.606 196.524 172.583 199.5 176.254 199.5C179.926 199.5 182.903 196.524 182.903 192.852C182.903 145.505 182.871 135.45 182.839 129.706C182.835 129.048 182.831 128.447 182.828 127.852C182.8 123.254 182.774 119.075 182.773 92.4111C182.773 91.4416 183.558 90.6547 184.529 90.6545L197.399 136.419ZM197.399 136.419C197.404 137.29 196.973 138.155 196.297 138.962C195.626 139.765 194.753 140.461 193.973 140.983L193.751 141.131V141.398V147.732V148.18L194.196 148.229C194.782 148.293 195.557 148.583 196.179 149.02C196.82 149.47 197.164 149.976 197.164 150.426V172.892C197.164 174.113 196.174 175.103 194.953 175.103H188.424C187.202 175.103 186.212 174.113 186.212 172.892V150.426C186.212 149.947 186.616 149.4 187.364 148.933C188.089 148.482 188.973 148.215 189.611 148.215H190.111V147.715V141.385V141.119L189.891 140.971C189.115 140.446 188.194 139.756 187.471 138.962C186.741 138.159 186.271 137.315 186.266 136.476V92.7429M197.399 136.419L186.266 92.7429M186.266 92.7429C186.336 92.1162 186.16 91.587 185.814 91.2121C185.471 90.8401 184.993 90.6544 184.529 90.6545L186.266 92.7429Z" stroke="black"/>
<path d="M172 85H164L166 89.5L164 94L167 120.5H169.5L172 94L170 89.5L172 85Z" stroke="#FF485E"/>
</g>
</g>
<defs>
<clipPath id="clip0_707_548">
<rect width="259" height="259" fill="white"/>
</clipPath>
<clipPath id="clip1_707_548">
<rect width="150" height="150" fill="white" transform="translate(50 50)"/>
</clipPath>
</defs>
</svg>
