<svg width="259" height="259" viewBox="0 0 259 259" fill="none" xmlns="http://www.w3.org/2000/svg">
<g clip-path="url(#clip0_713_672)">
<rect width="259" height="259" fill="white"/>
<rect x="9.5" y="9.5" width="249" height="249" stroke="#FF485E"/>
<rect x="1" y="1" width="248" height="248" fill="white" stroke="black" stroke-width="2"/>
<path d="M49.5794 117.816L49.582 117.813C50.9712 116.362 51.7273 113.864 51.7273 110.182V99.2727C51.7273 96.107 52.0253 93.3472 52.6294 91.0004L52.6306 90.9959L52.6306 90.9959C53.2613 88.6366 54.2837 86.6639 55.7096 85.0955C57.1419 83.5199 59.0403 82.3639 61.3817 81.6147C63.719 80.8668 66.5809 80.5 69.9545 80.5H70.4545V81V87.6818V88.1818H69.9545C67.3619 88.1818 65.3754 88.5854 63.9539 89.3488C62.57 90.1041 61.5791 91.2767 60.9812 92.8984C60.3944 94.5293 60.0909 96.6478 60.0909 99.2727V112.909C60.0909 114.725 59.8466 116.391 59.3512 117.903C58.8657 119.454 57.9562 120.782 56.639 121.884C55.3096 122.995 53.4456 123.827 51.0851 124.406M49.5794 117.816L50.9659 123.92M49.5794 117.816C48.2236 119.254 45.7527 120.045 42 120.045H41.5V120.545V124M49.5794 117.816L46.4905 120.045C45.2342 120.379 43.7373 120.545 42 120.545V121.045V124H41.5M51.0851 124.406C51.085 124.406 51.085 124.406 51.0849 124.406L50.9659 123.92M51.0851 124.406C51.0854 124.406 51.0857 124.406 51.086 124.406L50.9659 123.92M51.0851 124.406C50.909 124.45 50.7292 124.492 50.5455 124.532M50.9659 123.92C50.8283 123.955 50.6881 123.988 50.5455 124.02V124.532M50.5455 124.532C50.3818 124.568 50.2152 124.602 50.0455 124.635V124.637C50.2152 124.671 50.3818 124.705 50.5455 124.741M50.5455 124.532V124.741M41.5 124V124.5V124.773V125.273M41.5 124V125.273M41.5 125.273V128.727V129.227H42C45.7527 129.227 48.2236 130.019 49.5794 131.457L49.582 131.459C50.9712 132.911 51.7273 135.409 51.7273 139.091V150C51.7273 153.166 52.0253 155.926 52.6294 158.272L52.6306 158.277C53.2613 160.636 54.2837 162.609 55.7096 164.177C57.1419 165.753 59.0403 166.909 61.3817 167.658C63.719 168.406 66.5809 168.773 69.9545 168.773H70.4545V168.273V161.591V161.091H69.9545C67.3627 161.091 65.3778 160.676 63.9576 159.892L63.9553 159.891C62.5689 159.134 61.5781 157.972 60.9808 156.373C60.3942 154.742 60.0909 152.624 60.0909 150V136.364C60.0909 134.548 59.8466 132.881 59.3512 131.37C58.8658 129.819 57.9562 128.491 56.639 127.389C55.3096 126.277 53.4455 125.445 51.0851 124.867M41.5 125.273L51.0851 124.867M51.0851 124.867C51.085 124.867 51.085 124.867 51.0849 124.867L50.9659 125.352C50.8283 125.318 50.6881 125.285 50.5455 125.253V124.741M51.0851 124.867C50.909 124.823 50.7292 124.781 50.5455 124.741M69.4545 168.27C66.3327 168.235 63.6925 167.873 61.5341 167.182C59.2614 166.455 57.4432 165.341 56.0795 163.841C54.7159 162.341 53.7273 160.443 53.1136 158.148C52.5227 155.852 52.2273 153.136 52.2273 150V139.091C52.2273 135.364 51.4659 132.705 49.9432 131.114C49.1298 130.251 47.9789 129.622 46.4905 129.227L69.4545 168.27ZM69.4545 168.27V168.273H69.9545M69.4545 168.27L69.9545 168.273M69.9545 168.273V167.773V162.091V161.591C67.3182 161.591 65.2386 161.17 63.7159 160.33C62.2159 159.511 61.1477 158.25 60.5114 156.545C59.8977 154.841 59.5909 152.659 59.5909 150V136.364C59.5909 134.591 59.3523 132.977 58.875 131.523L69.9545 168.273ZM69.4545 81.0028C69.6199 81.0009 69.7865 81 69.9545 81H69.4545V81.0028Z" stroke="#FF485E"/>
<path d="M201.375 117.816L201.373 117.813C199.983 116.362 199.227 113.864 199.227 110.182V99.2727C199.227 96.107 198.929 93.3472 198.325 91.0004L198.324 90.9959L198.324 90.9959C197.693 88.6366 196.671 86.6639 195.245 85.0955C193.813 83.5199 191.914 82.3639 189.573 81.6147C187.236 80.8668 184.374 80.5 181 80.5H180.5V81V87.6818V88.1818H181C183.593 88.1818 185.579 88.5854 187.001 89.3488C188.385 90.1041 189.376 91.2767 189.973 92.8984C190.56 94.5293 190.864 96.6478 190.864 99.2727V112.909C190.864 114.725 191.108 116.391 191.603 117.903C192.089 119.454 192.998 120.782 194.316 121.884C195.645 122.995 197.509 123.827 199.87 124.406M201.375 117.816L199.989 123.92M201.375 117.816C202.731 119.254 205.202 120.045 208.955 120.045H209.455V120.545V124M201.375 117.816L204.464 120.045C205.72 120.379 207.217 120.545 208.955 120.545V121.045V124H209.455M199.87 124.406C199.87 124.406 199.87 124.406 199.87 124.406L199.989 123.92M199.87 124.406C199.869 124.406 199.869 124.406 199.869 124.406L199.989 123.92M199.87 124.406C200.046 124.45 200.225 124.492 200.409 124.532M199.989 123.92C200.126 123.955 200.266 123.988 200.409 124.02V124.532M200.409 124.532C200.573 124.568 200.739 124.602 200.909 124.635V124.637C200.739 124.671 200.573 124.705 200.409 124.741M200.409 124.532V124.741M209.455 124V124.5V124.773V125.273M209.455 124V125.273M209.455 125.273V128.727V129.227H208.955C205.202 129.227 202.731 130.019 201.375 131.457L201.373 131.459C199.983 132.911 199.227 135.409 199.227 139.091V150C199.227 153.166 198.929 155.926 198.325 158.272L198.324 158.277C197.693 160.636 196.671 162.609 195.245 164.177C193.813 165.753 191.914 166.909 189.573 167.658C187.236 168.406 184.374 168.773 181 168.773H180.5V168.273V161.591V161.091H181C183.592 161.091 185.577 160.676 186.997 159.892L186.999 159.891C188.386 159.134 189.376 157.972 189.974 156.373C190.56 154.742 190.864 152.624 190.864 150V136.364C190.864 134.548 191.108 132.881 191.603 131.37C192.089 129.819 192.998 128.491 194.316 127.389C195.645 126.277 197.509 125.445 199.87 124.867M209.455 125.273L199.87 124.867M199.87 124.867C199.87 124.867 199.87 124.867 199.87 124.867L199.989 125.352C200.126 125.318 200.266 125.285 200.409 125.253V124.741M199.87 124.867C200.046 124.823 200.225 124.781 200.409 124.741M181.5 168.27C184.622 168.235 187.262 167.873 189.42 167.182C191.693 166.455 193.511 165.341 194.875 163.841C196.239 162.341 197.227 160.443 197.841 158.148C198.432 155.852 198.727 153.136 198.727 150V139.091C198.727 135.364 199.489 132.705 201.011 131.114C201.825 130.251 202.976 129.622 204.464 129.227L181.5 168.27ZM181.5 168.27V168.273H181M181.5 168.27L181 168.273M181 168.273V167.773V162.091V161.591C183.636 161.591 185.716 161.17 187.239 160.33C188.739 159.511 189.807 158.25 190.443 156.545C191.057 154.841 191.364 152.659 191.364 150V136.364C191.364 134.591 191.602 132.977 192.08 131.523L181 168.273ZM181.5 81.0028C181.335 81.0009 181.168 81 181 81H181.5V81.0028Z" stroke="#FF485E"/>
<path d="M85.3841 119.909L88.5205 125.261L91.6568 119.909H93.975L89.7477 126.455L93.975 133H91.6568L88.5205 127.92L85.3841 133H83.0659L87.225 126.455L83.0659 119.909H85.3841Z" fill="black"/>
<path d="M98.3109 133.136C97.8905 133.136 97.5297 132.986 97.2286 132.685C96.9274 132.384 96.7769 132.023 96.7769 131.602C96.7769 131.182 96.9274 130.821 97.2286 130.52C97.5297 130.219 97.8905 130.068 98.3109 130.068C98.7314 130.068 99.0922 130.219 99.3933 130.52C99.6945 130.821 99.845 131.182 99.845 131.602C99.845 131.881 99.774 132.136 99.632 132.369C99.4956 132.602 99.3109 132.79 99.078 132.932C98.8507 133.068 98.595 133.136 98.3109 133.136Z" fill="black"/>
<path d="M104.75 137.909C104.409 137.909 104.105 137.881 103.838 137.824C103.571 137.773 103.386 137.722 103.284 137.67L103.795 135.898C104.284 136.023 104.716 136.068 105.091 136.034C105.466 136 105.798 135.832 106.088 135.531C106.383 135.236 106.653 134.756 106.898 134.091L107.273 133.068L102.432 119.909H104.614L108.227 130.341H108.364L111.977 119.909H114.159L108.602 134.909C108.352 135.585 108.042 136.145 107.673 136.588C107.304 137.037 106.875 137.369 106.386 137.585C105.903 137.801 105.358 137.909 104.75 137.909Z" fill="black"/>
<path d="M117.802 136.545V114.727H122.848V116.398H119.712V134.875H122.848V136.545H117.802Z" fill="black"/>
<path d="M131.168 133.239C129.884 133.239 128.79 132.889 127.887 132.19C126.984 131.486 126.293 130.466 125.816 129.131C125.339 127.79 125.1 126.17 125.1 124.273C125.1 122.386 125.339 120.776 125.816 119.44C126.299 118.099 126.992 117.077 127.895 116.372C128.805 115.662 129.895 115.307 131.168 115.307C132.441 115.307 133.529 115.662 134.432 116.372C135.341 117.077 136.035 118.099 136.512 119.44C136.995 120.776 137.236 122.386 137.236 124.273C137.236 126.17 136.998 127.79 136.52 129.131C136.043 130.466 135.353 131.486 134.449 132.19C133.546 132.889 132.452 133.239 131.168 133.239ZM131.168 131.364C132.441 131.364 133.43 130.75 134.134 129.523C134.839 128.295 135.191 126.545 135.191 124.273C135.191 122.761 135.029 121.474 134.705 120.412C134.387 119.349 133.927 118.54 133.324 117.983C132.728 117.426 132.009 117.148 131.168 117.148C129.907 117.148 128.921 117.77 128.211 119.014C127.501 120.253 127.145 122.006 127.145 124.273C127.145 125.784 127.305 127.068 127.623 128.125C127.941 129.182 128.398 129.986 128.995 130.537C129.597 131.088 130.322 131.364 131.168 131.364Z" fill="black"/>
<path d="M144.532 114.727V136.545H139.486V134.875H142.623V116.398H139.486V114.727H144.532Z" fill="black"/>
<path d="M150.67 133.136C150.25 133.136 149.889 132.986 149.588 132.685C149.287 132.384 149.136 132.023 149.136 131.602C149.136 131.182 149.287 130.821 149.588 130.52C149.889 130.219 150.25 130.068 150.67 130.068C151.091 130.068 151.452 130.219 151.753 130.52C152.054 130.821 152.204 131.182 152.204 131.602C152.204 131.881 152.133 132.136 151.991 132.369C151.855 132.602 151.67 132.79 151.437 132.932C151.21 133.068 150.954 133.136 150.67 133.136Z" fill="black"/>
<path d="M155.439 133V131.466L162.871 121.92V121.784H155.677V119.909H165.462V121.511L158.234 130.989V131.125H165.7V133H155.439Z" fill="black"/>
</g>
<defs>
<clipPath id="clip0_713_672">
<rect width="259" height="259" fill="white"/>
</clipPath>
</defs>
</svg>
