<svg width="259" height="259" viewBox="0 0 259 259" fill="none" xmlns="http://www.w3.org/2000/svg">
<g clip-path="url(#clip0_708_582)">
<rect width="259" height="259" fill="white"/>
<rect x="9.5" y="9.5" width="249" height="249" stroke="#FF485E"/>
<rect x="1" y="1" width="248" height="248" fill="white" stroke="black" stroke-width="2"/>
<g clip-path="url(#clip1_708_582)">
<path d="M141.635 182.383L141.635 182.383L129.493 149.882C128.067 146.063 122.665 146.063 121.238 149.882L109.097 182.383C107.873 185.658 104.227 187.322 100.951 186.098C97.6763 184.874 96.0131 181.227 97.2366 177.952L96.7682 177.777L97.2366 177.952L109.929 143.975C112.563 136.923 113.913 129.456 113.913 121.929V115.057C113.913 111.143 111.182 107.759 107.357 106.932L86.1191 102.34C82.7018 101.601 80.5306 98.2322 81.2694 94.8149C82.0083 91.3977 85.3775 89.2264 88.7948 89.9653L118.656 96.4218C123.078 97.3779 127.654 97.3779 132.076 96.4218L161.937 89.9653C165.355 89.2264 168.724 91.3976 169.463 94.8148C170.201 98.2322 168.03 101.601 164.613 102.34L143.375 106.932L143.481 107.421L143.375 106.932C139.55 107.759 136.819 111.143 136.819 115.057V121.93C136.819 129.457 138.168 136.924 140.803 143.976L153.495 177.952C154.719 181.227 153.055 184.874 149.78 186.098C146.505 187.322 142.858 185.658 141.635 182.383ZM125.027 62.5C132.295 62.5 138.188 68.3924 138.188 75.6609C138.188 82.9295 132.295 88.8219 125.027 88.8219C117.758 88.8219 111.866 82.9295 111.866 75.6609C111.866 68.3924 117.758 62.5 125.027 62.5Z" stroke="black"/>
</g>
<circle cx="124.5" cy="124.5" r="84.5" stroke="#FF485E" stroke-width="2" stroke-linecap="round" stroke-dasharray="24 24"/>
</g>
<defs>
<clipPath id="clip0_708_582">
<rect width="259" height="259" fill="white"/>
</clipPath>
<clipPath id="clip1_708_582">
<rect width="125" height="125" fill="white" transform="translate(65 62)"/>
</clipPath>
</defs>
</svg>
