<svg width="259" height="259" viewBox="0 0 259 259" fill="none" xmlns="http://www.w3.org/2000/svg">
<g clip-path="url(#clip0_692_144)">
<rect width="259" height="259" fill="white"/>
<rect x="9.5" y="9.5" width="249" height="249" stroke="#FF485E"/>
<rect x="1" y="1" width="248" height="248" fill="white" stroke="black" stroke-width="2"/>
<rect x="75.5" y="66.5" width="139" height="139" fill="white" stroke="#FF485E"/>
<rect x="55.5" y="46.5" width="139" height="139" fill="white" stroke="#FF485E"/>
<rect x="35.5" y="26.5" width="139" height="139" fill="white" stroke="black"/>
<rect x="44.5" y="36.5" width="49" height="9" stroke="black"/>
<rect x="44.5" y="54.5" width="49" height="9" stroke="black"/>
<rect x="44.5" y="76.5" width="49" height="9" stroke="#FF485E"/>
<rect x="44.5" y="94.5" width="49" height="9" stroke="#FF485E"/>
<rect x="44.5" y="115.5" width="49" height="9" stroke="#FF485E"/>
<rect x="100.5" y="115.5" width="49" height="9" stroke="#FF485E"/>
<rect x="44.5" y="132.5" width="49" height="9" stroke="#FF485E"/>
<rect x="100.5" y="132.5" width="49" height="9" stroke="#FF485E"/>
<rect x="100.5" y="76.5" width="49" height="9" stroke="#FF485E"/>
<rect x="155.5" y="115.5" width="9" height="9" stroke="#FF485E"/>
<line x1="158" y1="120" x2="162" y2="120" stroke="#FF485E"/>
<rect x="155.5" y="132.5" width="9" height="9" stroke="#FF485E"/>
<line x1="158" y1="137" x2="162" y2="137" stroke="#FF485E"/>
<rect x="44.5" y="147.5" width="9" height="9" stroke="#FF485E"/>
<line x1="47" y1="152" x2="51" y2="152" stroke="#FF485E"/>
<line x1="49" y1="154" x2="49" y2="150" stroke="#FF485E"/>
<rect x="35" y="222" width="9" height="9" fill="black"/>
<path d="M56.7186 224.565C56.6732 224.162 56.4857 223.849 56.1561 223.628C55.8266 223.403 55.4118 223.291 54.9118 223.291C54.5539 223.291 54.2442 223.348 53.9828 223.462C53.7215 223.572 53.5184 223.726 53.3735 223.922C53.2314 224.115 53.1604 224.335 53.1604 224.582C53.1604 224.79 53.2087 224.969 53.3053 225.119C53.4047 225.27 53.534 225.396 53.6931 225.498C53.855 225.598 54.0283 225.682 54.213 225.75C54.3976 225.815 54.5752 225.869 54.7456 225.912L55.5979 226.133C55.8763 226.202 56.1618 226.294 56.4544 226.41C56.747 226.527 57.0184 226.68 57.2684 226.871C57.5184 227.061 57.7201 227.297 57.8735 227.578C58.0297 227.859 58.1078 228.196 58.1078 228.588C58.1078 229.082 57.98 229.521 57.7243 229.905C57.4715 230.288 57.1036 230.591 56.6206 230.812C56.1405 231.034 55.5595 231.145 54.8777 231.145C54.2243 231.145 53.659 231.041 53.1817 230.834C52.7044 230.626 52.3309 230.332 52.061 229.952C51.7911 229.568 51.6419 229.114 51.6135 228.588H52.9345C52.9601 228.903 53.0624 229.166 53.2414 229.376C53.4232 229.584 53.6547 229.739 53.936 229.841C54.2201 229.94 54.5311 229.99 54.8692 229.99C55.2414 229.99 55.5723 229.932 55.8621 229.815C56.1547 229.696 56.3848 229.531 56.5524 229.321C56.7201 229.108 56.8039 228.859 56.8039 228.575C56.8039 228.317 56.73 228.105 56.5823 227.94C56.4374 227.775 56.2399 227.639 55.9899 227.531C55.7428 227.423 55.463 227.328 55.1505 227.246L54.1192 226.964C53.4203 226.774 52.8664 226.494 52.4573 226.125C52.051 225.756 51.8479 225.267 51.8479 224.659C51.8479 224.156 51.9843 223.717 52.257 223.342C52.5297 222.967 52.899 222.676 53.3649 222.469C53.8309 222.258 54.3564 222.153 54.9417 222.153C55.5326 222.153 56.0539 222.257 56.5056 222.464C56.9601 222.672 57.3181 222.957 57.5794 223.321C57.8408 223.682 57.9772 224.097 57.9885 224.565H56.7186Z" fill="black"/>
<path d="M62.1981 222.273V231H60.8814V222.273H62.1981Z" fill="black"/>
<path d="M65.3157 222.273H66.9137L69.6921 229.057H69.7944L72.5728 222.273H74.1708V231H72.918V224.685H72.837L70.2632 230.987H69.2234L66.6495 224.68H66.5686V231H65.3157V222.273Z" fill="black"/>
<path d="M77.2853 231V222.273H80.3961C81.075 222.273 81.6375 222.396 82.0836 222.643C82.5296 222.891 82.8634 223.229 83.085 223.658C83.3066 224.084 83.4174 224.564 83.4174 225.098C83.4174 225.635 83.3051 226.118 83.0807 226.547C82.8591 226.973 82.5239 227.311 82.075 227.561C81.629 227.808 81.0679 227.932 80.3918 227.932H78.2526V226.815H80.2725C80.7015 226.815 81.0495 226.741 81.3165 226.594C81.5836 226.443 81.7796 226.239 81.9046 225.98C82.0296 225.722 82.0921 225.427 82.0921 225.098C82.0921 224.768 82.0296 224.476 81.9046 224.22C81.7796 223.964 81.5821 223.764 81.3122 223.619C81.0452 223.474 80.6929 223.402 80.2554 223.402H78.602V231H77.2853Z" fill="black"/>
<path d="M86.161 231V222.273H87.4778V229.866H91.4323V231H86.161Z" fill="black"/>
<path d="M94.1345 231V222.273H99.6061V223.406H95.4512V226.065H99.3206V227.195H95.4512V229.866H99.6572V231H94.1345Z" fill="black"/>
<path d="M157.207 225.111H155.878C155.827 224.827 155.731 224.577 155.592 224.361C155.453 224.145 155.283 223.962 155.081 223.811C154.879 223.66 154.653 223.547 154.403 223.47C154.156 223.393 153.893 223.355 153.615 223.355C153.112 223.355 152.662 223.481 152.264 223.734C151.869 223.987 151.557 224.358 151.327 224.847C151.099 225.335 150.986 225.932 150.986 226.636C150.986 227.347 151.099 227.946 151.327 228.435C151.557 228.923 151.871 229.293 152.268 229.543C152.666 229.793 153.114 229.918 153.611 229.918C153.886 229.918 154.148 229.881 154.395 229.807C154.645 229.73 154.871 229.618 155.072 229.47C155.274 229.322 155.444 229.142 155.584 228.929C155.726 228.713 155.824 228.466 155.878 228.187L157.207 228.192C157.136 228.621 156.998 229.016 156.794 229.376C156.592 229.734 156.332 230.044 156.014 230.305C155.699 230.564 155.338 230.764 154.932 230.906C154.525 231.048 154.082 231.119 153.602 231.119C152.846 231.119 152.173 230.94 151.582 230.582C150.991 230.222 150.525 229.706 150.185 229.035C149.846 228.365 149.677 227.565 149.677 226.636C149.677 225.704 149.848 224.905 150.189 224.237C150.53 223.567 150.996 223.052 151.587 222.695C152.177 222.334 152.849 222.153 153.602 222.153C154.065 222.153 154.497 222.22 154.898 222.354C155.301 222.484 155.663 222.677 155.984 222.933C156.305 223.186 156.571 223.496 156.781 223.862C156.991 224.226 157.133 224.642 157.207 225.111Z" fill="#FF485E"/>
<path d="M167.564 226.636C167.564 227.568 167.393 228.369 167.053 229.04C166.712 229.707 166.244 230.222 165.651 230.582C165.06 230.94 164.388 231.119 163.635 231.119C162.879 231.119 162.205 230.94 161.611 230.582C161.02 230.222 160.554 229.706 160.213 229.035C159.872 228.365 159.702 227.565 159.702 226.636C159.702 225.704 159.872 224.905 160.213 224.237C160.554 223.567 161.02 223.052 161.611 222.695C162.205 222.334 162.879 222.153 163.635 222.153C164.388 222.153 165.06 222.334 165.651 222.695C166.244 223.052 166.712 223.567 167.053 224.237C167.393 224.905 167.564 225.704 167.564 226.636ZM166.26 226.636C166.26 225.926 166.145 225.328 165.915 224.842C165.687 224.354 165.375 223.984 164.977 223.734C164.582 223.481 164.135 223.355 163.635 223.355C163.132 223.355 162.683 223.481 162.288 223.734C161.893 223.984 161.581 224.354 161.351 224.842C161.124 225.328 161.01 225.926 161.01 226.636C161.01 227.347 161.124 227.946 161.351 228.435C161.581 228.92 161.893 229.29 162.288 229.543C162.683 229.793 163.132 229.918 163.635 229.918C164.135 229.918 164.582 229.793 164.977 229.543C165.375 229.29 165.687 228.92 165.915 228.435C166.145 227.946 166.26 227.347 166.26 226.636Z" fill="#FF485E"/>
<path d="M170.406 222.273H172.004L174.782 229.057H174.884L177.663 222.273H179.261V231H178.008V224.685H177.927L175.353 230.987H174.313L171.739 224.68H171.658V231H170.406V222.273Z" fill="#FF485E"/>
<path d="M182.375 231V222.273H185.486C186.165 222.273 186.727 222.396 187.173 222.643C187.619 222.891 187.953 223.229 188.175 223.658C188.396 224.084 188.507 224.564 188.507 225.098C188.507 225.635 188.395 226.118 188.171 226.547C187.949 226.973 187.614 227.311 187.165 227.561C186.719 227.808 186.158 227.932 185.482 227.932H183.342V226.815H185.362C185.791 226.815 186.139 226.741 186.406 226.594C186.673 226.443 186.869 226.239 186.994 225.98C187.119 225.722 187.182 225.427 187.182 225.098C187.182 224.768 187.119 224.476 186.994 224.22C186.869 223.964 186.672 223.764 186.402 223.619C186.135 223.474 185.783 223.402 185.345 223.402H183.692V231H182.375Z" fill="#FF485E"/>
<path d="M191.251 231V222.273H192.568V229.866H196.522V231H191.251Z" fill="#FF485E"/>
<path d="M199.224 231V222.273H204.696V223.406H200.541V226.065H204.41V227.195H200.541V229.866H204.747V231H199.224Z" fill="#FF485E"/>
<path d="M208.571 222.273L210.659 225.686H210.727L212.815 222.273H214.341L211.622 226.636L214.358 231H212.824L210.727 227.633H210.659L208.562 231H207.028L209.811 226.636L207.045 222.273H208.571Z" fill="#FF485E"/>
<rect x="133" y="222" width="9" height="9" fill="#FF485E"/>
</g>
<defs>
<clipPath id="clip0_692_144">
<rect width="259" height="259" fill="white"/>
</clipPath>
</defs>
</svg>
