<svg width="259" height="259" viewBox="0 0 259 259" fill="none" xmlns="http://www.w3.org/2000/svg">
<g clip-path="url(#clip0_699_182)">
<rect width="259" height="259" fill="white"/>
<rect x="9.5" y="9.5" width="249" height="249" stroke="#FF485E"/>
<rect x="1" y="1" width="248" height="248" fill="white" stroke="black" stroke-width="2"/>
<path d="M201.933 94.75C200.739 96.815 198.759 98 196.5 98C194.241 98 192.261 96.815 191.068 94.75C191.008 94.6357 190.994 94.5028 191.03 94.3789C191.066 94.2551 191.149 94.1499 191.26 94.0854C191.372 94.0208 191.504 94.0019 191.63 94.0326C191.755 94.0633 191.863 94.1412 191.933 94.25C192.959 96.0238 194.581 97 196.5 97C198.419 97 200.041 96.0238 201.068 94.25C201.099 94.1902 201.142 94.1374 201.194 94.0947C201.246 94.052 201.306 94.0204 201.371 94.0016C201.436 93.9828 201.504 93.9773 201.571 93.9854C201.638 93.9935 201.702 94.0151 201.761 94.0489C201.819 94.0826 201.87 94.1278 201.911 94.1818C201.951 94.2357 201.98 94.2973 201.996 94.3628C202.012 94.4283 202.015 94.4964 202.004 94.5629C201.993 94.6295 201.969 94.6931 201.933 94.75ZM209 91.5C209 93.9723 208.267 96.389 206.893 98.4446C205.52 100.5 203.568 102.102 201.284 103.048C198.999 103.995 196.486 104.242 194.061 103.76C191.637 103.278 189.409 102.087 187.661 100.339C185.913 98.5907 184.723 96.3634 184.24 93.9386C183.758 91.5139 184.005 89.0005 184.952 86.7165C185.898 84.4324 187.5 82.4801 189.555 81.1066C191.611 79.7331 194.028 79 196.5 79C199.814 79.0036 202.991 80.3218 205.335 82.6652C207.678 85.0086 208.996 88.1859 209 91.5ZM208 91.5C208 89.2255 207.326 87.0021 206.062 85.1109C204.798 83.2198 203.002 81.7458 200.901 80.8754C198.8 80.005 196.487 79.7772 194.256 80.221C192.026 80.6647 189.977 81.76 188.368 83.3683C186.76 84.9766 185.665 87.0257 185.221 89.2565C184.777 91.4872 185.005 93.7995 185.875 95.9009C186.746 98.0022 188.22 99.7983 190.111 101.062C192.002 102.326 194.226 103 196.5 103C199.549 102.997 202.472 101.784 204.628 99.6281C206.784 97.4721 207.997 94.549 208 91.5ZM192 90C192.198 90 192.391 89.9414 192.556 89.8315C192.72 89.7216 192.848 89.5654 192.924 89.3827C193 89.2 193.019 88.9989 192.981 88.8049C192.942 88.6109 192.847 88.4327 192.707 88.2929C192.567 88.153 192.389 88.0578 192.195 88.0192C192.001 87.9806 191.8 88.0004 191.617 88.0761C191.435 88.1518 191.278 88.28 191.169 88.4444C191.059 88.6089 191 88.8022 191 89C191 89.2652 191.105 89.5196 191.293 89.7071C191.48 89.8946 191.735 90 192 90ZM201 88C200.802 88 200.609 88.0586 200.444 88.1685C200.28 88.2784 200.152 88.4346 200.076 88.6173C200 88.8 199.981 89.0011 200.019 89.1951C200.058 89.3891 200.153 89.5673 200.293 89.7071C200.433 89.847 200.611 89.9422 200.805 89.9808C200.999 90.0194 201.2 89.9996 201.383 89.9239C201.565 89.8482 201.722 89.72 201.831 89.5556C201.941 89.3911 202 89.1978 202 89C202 88.7348 201.895 88.4804 201.707 88.2929C201.52 88.1054 201.265 88 201 88Z" fill="black"/>
<path d="M57.5 79C55.0277 79 52.611 79.7331 50.5554 81.1066C48.4998 82.4801 46.8976 84.4324 45.9515 86.7165C45.0054 89.0005 44.7579 91.5139 45.2402 93.9386C45.7225 96.3634 46.913 98.5907 48.6612 100.339C50.4093 102.087 52.6366 103.278 55.0614 103.76C57.4861 104.242 59.9995 103.995 62.2835 103.048C64.5676 102.102 66.5199 100.5 67.8934 98.4446C69.2669 96.389 70 93.9723 70 91.5C69.9964 88.1859 68.6782 85.0086 66.3348 82.6652C63.9914 80.3218 60.8141 79.0036 57.5 79ZM57.5 103C55.2255 103 53.0021 102.326 51.1109 101.062C49.2198 99.7983 47.7458 98.0022 46.8754 95.9009C46.005 93.7995 45.7772 91.4872 46.221 89.2565C46.6647 87.0257 47.76 84.9766 49.3683 83.3683C50.9766 81.76 53.0257 80.6647 55.2565 80.221C57.4872 79.7772 59.7995 80.005 61.9009 80.8754C64.0022 81.7458 65.7983 83.2198 67.0619 85.1109C68.3255 87.0021 69 89.2255 69 91.5C68.9967 94.549 67.784 97.4721 65.6281 99.6281C63.4721 101.784 60.549 102.997 57.5 103ZM52 89C52 88.8022 52.0587 88.6089 52.1685 88.4444C52.2784 88.28 52.4346 88.1518 52.6173 88.0761C52.8 88.0004 53.0011 87.9806 53.1951 88.0192C53.3891 88.0578 53.5673 88.153 53.7071 88.2929C53.847 88.4327 53.9422 88.6109 53.9808 88.8049C54.0194 88.9989 53.9996 89.2 53.9239 89.3827C53.8482 89.5654 53.72 89.7216 53.5556 89.8315C53.3911 89.9414 53.1978 90 53 90C52.7348 90 52.4804 89.8946 52.2929 89.7071C52.1054 89.5196 52 89.2652 52 89ZM63 89C63 89.1978 62.9414 89.3911 62.8315 89.5556C62.7216 89.72 62.5654 89.8482 62.3827 89.9239C62.2 89.9996 61.9989 90.0194 61.8049 89.9808C61.6109 89.9422 61.4328 89.847 61.2929 89.7071C61.153 89.5673 61.0578 89.3891 61.0192 89.1951C60.9806 89.0011 61.0004 88.8 61.0761 88.6173C61.1518 88.4346 61.28 88.2784 61.4444 88.1685C61.6089 88.0586 61.8022 88 62 88C62.2652 88 62.5196 88.1054 62.7071 88.2929C62.8946 88.4804 63 88.7348 63 89ZM62.9325 97.25C62.9987 97.3647 63.0166 97.501 62.9824 97.629C62.9482 97.757 62.8646 97.8661 62.75 97.9325C62.6742 97.977 62.5879 98.0003 62.5 98C62.4123 97.9999 62.3262 97.9768 62.2503 97.9329C62.1744 97.889 62.1113 97.8259 62.0675 97.75C61.0413 95.9762 59.4188 95 57.5 95C55.5813 95 53.9588 95.9762 52.9325 97.75C52.8633 97.8588 52.7548 97.9367 52.6295 97.9674C52.5042 97.9981 52.372 97.9792 52.2603 97.9146C52.1487 97.8501 52.0663 97.7449 52.0303 97.6211C51.9944 97.4972 52.0077 97.3643 52.0675 97.25C53.2613 95.185 55.2425 94 57.5 94C59.7575 94 61.7388 95.185 62.9325 97.25Z" fill="black"/>
<path d="M126.5 79C124.028 79 121.611 79.7331 119.555 81.1066C117.5 82.4801 115.898 84.4324 114.952 86.7165C114.005 89.0005 113.758 91.5139 114.24 93.9386C114.723 96.3634 115.913 98.5907 117.661 100.339C119.409 102.087 121.637 103.278 124.061 103.76C126.486 104.242 128.999 103.995 131.284 103.048C133.568 102.102 135.52 100.5 136.893 98.4446C138.267 96.389 139 93.9723 139 91.5C138.996 88.1859 137.678 85.0086 135.335 82.6652C132.991 80.3218 129.814 79.0036 126.5 79ZM126.5 103C124.226 103 122.002 102.326 120.111 101.062C118.22 99.7983 116.746 98.0022 115.875 95.9009C115.005 93.7995 114.777 91.4872 115.221 89.2565C115.665 87.0257 116.76 84.9766 118.368 83.3683C119.977 81.76 122.026 80.6647 124.256 80.221C126.487 79.7772 128.8 80.005 130.901 80.8754C133.002 81.7458 134.798 83.2198 136.062 85.1109C137.326 87.0021 138 89.2255 138 91.5C137.997 94.549 136.784 97.4721 134.628 99.6281C132.472 101.784 129.549 102.997 126.5 103ZM132 95.5C132 95.6326 131.947 95.7598 131.854 95.8536C131.76 95.9473 131.633 96 131.5 96H121.5C121.367 96 121.24 95.9473 121.146 95.8536C121.053 95.7598 121 95.6326 121 95.5C121 95.3674 121.053 95.2402 121.146 95.1464C121.24 95.0527 121.367 95 121.5 95H131.5C131.633 95 131.76 95.0527 131.854 95.1464C131.947 95.2402 132 95.3674 132 95.5ZM121 89C121 88.8022 121.059 88.6089 121.169 88.4444C121.278 88.28 121.435 88.1518 121.617 88.0761C121.8 88.0004 122.001 87.9806 122.195 88.0192C122.389 88.0578 122.567 88.153 122.707 88.2929C122.847 88.4327 122.942 88.6109 122.981 88.8049C123.019 88.9989 123 89.2 122.924 89.3827C122.848 89.5654 122.72 89.7216 122.556 89.8315C122.391 89.9414 122.198 90 122 90C121.735 90 121.48 89.8946 121.293 89.7071C121.105 89.5196 121 89.2652 121 89ZM132 89C132 89.1978 131.941 89.3911 131.831 89.5556C131.722 89.72 131.565 89.8482 131.383 89.9239C131.2 89.9996 130.999 90.0194 130.805 89.9808C130.611 89.9422 130.433 89.847 130.293 89.7071C130.153 89.5673 130.058 89.3891 130.019 89.1951C129.981 89.0011 130 88.8 130.076 88.6173C130.152 88.4346 130.28 88.2784 130.444 88.1685C130.609 88.0586 130.802 88 131 88C131.265 88 131.52 88.1054 131.707 88.2929C131.895 88.4804 132 88.7348 132 89Z" fill="black"/>
<path d="M68.22 40.2076L57.22 34.1851C56.9992 34.0643 56.7516 34.001 56.5 34.001C56.2484 34.001 56.0008 34.0643 55.78 34.1851L44.78 40.2076C44.544 40.3367 44.3471 40.5269 44.2099 40.7582C44.0727 40.9896 44.0002 41.2536 44 41.5226V53.4776C44.0002 53.7466 44.0727 54.0106 44.2099 54.2419C44.3471 54.4733 44.544 54.6635 44.78 54.7926L55.78 60.8151C56.0006 60.9364 56.2482 61 56.5 61C56.7518 61 56.9994 60.9364 57.22 60.8151L68.22 54.7926C68.456 54.6635 68.6529 54.4733 68.7901 54.2419C68.9273 54.0106 68.9998 53.7466 69 53.4776V41.5226C68.9998 41.2536 68.9273 40.9896 68.7901 40.7582C68.6529 40.5269 68.456 40.3367 68.22 40.2076ZM56.26 35.0626C56.3334 35.0216 56.416 35.0001 56.5 35.0001C56.584 35.0001 56.6666 35.0216 56.74 35.0626L67.5837 41.0001L62.8125 43.6113C62.7899 43.5926 62.7656 43.5758 62.74 43.5613L51.74 37.5388L56.26 35.0626ZM56.5 47.0626L45.4163 41.0001L50.695 38.1088L61.7787 44.1763L56.5 47.0626ZM45.26 53.9126C45.1815 53.8696 45.1159 53.8063 45.0702 53.7294C45.0244 53.6524 45.0002 53.5646 45 53.4751V41.9113L56 47.9313V59.7951L45.26 53.9126ZM67.74 53.9126L57 59.7876V47.9313L62 45.1951V50.5001C62 50.6327 62.0527 50.7599 62.1464 50.8536C62.2402 50.9474 62.3674 51.0001 62.5 51.0001C62.6326 51.0001 62.7598 50.9474 62.8536 50.8536C62.9473 50.7599 63 50.6327 63 50.5001V44.6476L68 41.9113V53.4776C67.9998 53.5671 67.9756 53.6549 67.9298 53.7319C67.8841 53.8088 67.8185 53.8721 67.74 53.9151V53.9126Z" fill="black"/>
<path d="M138.22 40.2076L127.22 34.1851C126.999 34.0643 126.752 34.001 126.5 34.001C126.248 34.001 126.001 34.0643 125.78 34.1851L114.78 40.2076C114.544 40.3367 114.347 40.5269 114.21 40.7582C114.073 40.9896 114 41.2536 114 41.5226V53.4776C114 53.7466 114.073 54.0106 114.21 54.2419C114.347 54.4733 114.544 54.6635 114.78 54.7926L125.78 60.8151C126.001 60.9364 126.248 61 126.5 61C126.752 61 126.999 60.9364 127.22 60.8151L138.22 54.7926C138.456 54.6635 138.653 54.4733 138.79 54.2419C138.927 54.0106 139 53.7466 139 53.4776V41.5226C139 41.2536 138.927 40.9896 138.79 40.7582C138.653 40.5269 138.456 40.3367 138.22 40.2076ZM126.26 35.0626C126.333 35.0216 126.416 35.0001 126.5 35.0001C126.584 35.0001 126.667 35.0216 126.74 35.0626L137.584 41.0001L132.812 43.6113C132.79 43.5926 132.766 43.5758 132.74 43.5613L121.74 37.5388L126.26 35.0626ZM126.5 47.0626L115.416 41.0001L120.695 38.1088L131.779 44.1763L126.5 47.0626ZM115.26 53.9126C115.181 53.8696 115.116 53.8063 115.07 53.7294C115.024 53.6524 115 53.5646 115 53.4751V41.9113L126 47.9313V59.7951L115.26 53.9126ZM137.74 53.9126L127 59.7876V47.9313L132 45.1951V50.5001C132 50.6327 132.053 50.7599 132.146 50.8536C132.24 50.9474 132.367 51.0001 132.5 51.0001C132.633 51.0001 132.76 50.9474 132.854 50.8536C132.947 50.7599 133 50.6327 133 50.5001V44.6476L138 41.9113V53.4776C138 53.5671 137.976 53.6549 137.93 53.7319C137.884 53.8088 137.819 53.8721 137.74 53.9151V53.9126Z" fill="black"/>
<path d="M99.3536 49.3536C99.5488 49.1583 99.5488 48.8417 99.3536 48.6464L96.1716 45.4645C95.9763 45.2692 95.6597 45.2692 95.4645 45.4645C95.2692 45.6597 95.2692 45.9763 95.4645 46.1716L98.2929 49L95.4645 51.8284C95.2692 52.0237 95.2692 52.3403 95.4645 52.5355C95.6597 52.7308 95.9763 52.7308 96.1716 52.5355L99.3536 49.3536ZM83 49.5H99V48.5H83V49.5Z" fill="black"/>
<path d="M207.22 40.2076L196.22 34.1851C195.999 34.0643 195.752 34.001 195.5 34.001C195.248 34.001 195.001 34.0643 194.78 34.1851L183.78 40.2076C183.544 40.3367 183.347 40.5269 183.21 40.7582C183.073 40.9896 183 41.2536 183 41.5226V53.4776C183 53.7466 183.073 54.0106 183.21 54.2419C183.347 54.4733 183.544 54.6635 183.78 54.7926L194.78 60.8151C195.001 60.9364 195.248 61 195.5 61C195.752 61 195.999 60.9364 196.22 60.8151L207.22 54.7926C207.456 54.6635 207.653 54.4733 207.79 54.2419C207.927 54.0106 208 53.7466 208 53.4776V41.5226C208 41.2536 207.927 40.9896 207.79 40.7582C207.653 40.5269 207.456 40.3367 207.22 40.2076ZM195.26 35.0626C195.333 35.0216 195.416 35.0001 195.5 35.0001C195.584 35.0001 195.667 35.0216 195.74 35.0626L206.584 41.0001L201.812 43.6113C201.79 43.5926 201.766 43.5758 201.74 43.5613L190.74 37.5388L195.26 35.0626ZM195.5 47.0626L184.416 41.0001L189.695 38.1088L200.779 44.1763L195.5 47.0626ZM184.26 53.9126C184.181 53.8696 184.116 53.8063 184.07 53.7294C184.024 53.6524 184 53.5646 184 53.4751V41.9113L195 47.9313V59.7951L184.26 53.9126ZM206.74 53.9126L196 59.7876V47.9313L201 45.1951V50.5001C201 50.6327 201.053 50.7599 201.146 50.8536C201.24 50.9474 201.367 51.0001 201.5 51.0001C201.633 51.0001 201.76 50.9474 201.854 50.8536C201.947 50.7599 202 50.6327 202 50.5001V44.6476L207 41.9113V53.4776C207 53.5671 206.976 53.6549 206.93 53.7319C206.884 53.8088 206.819 53.8721 206.74 53.9151V53.9126Z" fill="black"/>
<path d="M169.354 49.3536C169.549 49.1583 169.549 48.8417 169.354 48.6464L166.172 45.4645C165.976 45.2692 165.66 45.2692 165.464 45.4645C165.269 45.6597 165.269 45.9763 165.464 46.1716L168.293 49L165.464 51.8284C165.269 52.0237 165.269 52.3403 165.464 52.5355C165.66 52.7308 165.976 52.7308 166.172 52.5355L169.354 49.3536ZM153 49.5H169V48.5H153V49.5Z" fill="black"/>
<path d="M126.646 127.354C126.842 127.549 127.158 127.549 127.354 127.354L130.536 124.172C130.731 123.976 130.731 123.66 130.536 123.464C130.34 123.269 130.024 123.269 129.828 123.464L127 126.293L124.172 123.464C123.976 123.269 123.66 123.269 123.464 123.464C123.269 123.66 123.269 123.976 123.464 124.172L126.646 127.354ZM126.5 119V127H127.5V119H126.5Z" fill="black"/>
<path d="M126.646 181.354C126.842 181.549 127.158 181.549 127.354 181.354L130.536 178.172C130.731 177.976 130.731 177.66 130.536 177.464C130.34 177.269 130.024 177.269 129.828 177.464L127 180.293L124.172 177.464C123.976 177.269 123.66 177.269 123.464 177.464C123.269 177.66 123.269 177.976 123.464 178.172L126.646 181.354ZM126.5 173V181H127.5V173H126.5Z" fill="black"/>
<path d="M123.985 155.625C123.941 155.804 122.819 160 116.5 160C116.367 160 116.24 159.947 116.147 159.854C116.053 159.76 116 159.633 116 159.5C116 153.183 120.2 152.059 120.375 152.015C120.504 151.982 120.64 152.001 120.755 152.069C120.869 152.136 120.952 152.246 120.985 152.375C121.018 152.504 120.999 152.64 120.931 152.755C120.864 152.869 120.754 152.952 120.625 152.985C120.485 153.021 117.221 153.934 117.014 158.985C122.07 158.778 122.983 155.515 123.02 155.371C123.053 155.243 123.136 155.133 123.25 155.065C123.365 154.998 123.501 154.979 123.629 155.012C123.758 155.045 123.868 155.128 123.935 155.242C124.003 155.357 124.022 155.493 123.989 155.621L123.985 155.625ZM135.75 146.964L135 147.706V155.206C135.001 155.403 134.962 155.599 134.886 155.78C134.811 155.962 134.7 156.128 134.56 156.266L130.268 160.56C130.071 160.757 129.823 160.896 129.551 160.96C129.28 161.024 128.996 161.011 128.732 160.923C128.468 160.835 128.233 160.675 128.054 160.461C127.876 160.247 127.761 159.987 127.721 159.711L127.028 154.735L121.265 148.971L116.291 148.278C116.015 148.239 115.755 148.124 115.541 147.945C115.327 147.767 115.166 147.532 115.078 147.268C114.989 147.003 114.977 146.72 115.041 146.448C115.104 146.177 115.243 145.928 115.44 145.731L119.734 141.439C119.873 141.299 120.038 141.188 120.22 141.113C120.402 141.038 120.597 140.999 120.794 141H128.294L129.036 140.258C132.228 137.066 136.074 136.93 137.58 137.019C137.944 137.042 138.288 137.197 138.546 137.455C138.804 137.713 138.96 138.057 138.983 138.421C139.071 139.926 138.935 143.773 135.75 146.964ZM116.43 147.288L121.323 147.97L127.294 142H120.794C120.661 142.001 120.535 142.054 120.441 142.148L116.148 146.439C116.082 146.504 116.036 146.587 116.014 146.677C115.993 146.768 115.997 146.862 116.026 146.951C116.056 147.039 116.109 147.117 116.18 147.176C116.252 147.236 116.338 147.274 116.43 147.288ZM134 148.706L128.029 154.678L128.711 159.571C128.725 159.663 128.763 159.749 128.823 159.821C128.883 159.892 128.961 159.945 129.049 159.974C129.137 160.003 129.231 160.007 129.322 159.986C129.412 159.964 129.495 159.918 129.56 159.853L133.854 155.56C133.9 155.514 133.937 155.458 133.962 155.398C133.987 155.337 134 155.272 134 155.206V148.706ZM135.035 146.258C137.939 143.353 138.064 139.85 137.983 138.48C137.976 138.359 137.925 138.245 137.839 138.16C137.754 138.074 137.64 138.023 137.519 138.016C136.144 137.935 132.644 138.059 129.741 140.964L128.853 141.853L122.208 148.5L127.5 153.793L134.148 147.146L135.035 146.258Z" fill="#FF485E"/>
<path d="M70.9646 199.071C70.7299 198.805 70.4413 198.592 70.118 198.447C69.7947 198.301 69.4442 198.226 69.0896 198.226H61.5896V195.726C61.5896 194.532 61.1155 193.388 60.2716 192.544C59.4277 191.7 58.2831 191.226 57.0896 191.226C56.9967 191.226 56.9056 191.252 56.8266 191.3C56.7476 191.349 56.6837 191.419 56.6421 191.502L51.7808 201.226H46.0896C45.6918 201.226 45.3102 201.384 45.0289 201.665C44.7476 201.946 44.5896 202.328 44.5896 202.726V213.726C44.5896 214.124 44.7476 214.505 45.0289 214.786C45.3102 215.068 45.6918 215.226 46.0896 215.226H67.5896C68.199 215.226 68.7876 215.003 69.2445 214.6C69.7014 214.197 69.9953 213.641 70.0709 213.036L71.5709 201.036C71.6149 200.684 71.5836 200.327 71.4791 199.988C71.3746 199.649 71.1992 199.337 70.9646 199.071ZM51.5896 214.226H46.0896C45.957 214.226 45.8298 214.173 45.736 214.079C45.6423 213.986 45.5896 213.858 45.5896 213.726V202.726C45.5896 202.593 45.6423 202.466 45.736 202.372C45.8298 202.279 45.957 202.226 46.0896 202.226H51.5896V214.226ZM70.5784 200.912L69.0784 212.912C69.033 213.275 68.8566 213.609 68.5825 213.851C68.3083 214.092 67.9552 214.226 67.5896 214.226H52.5896V201.843L57.3921 192.238C58.2648 192.314 59.0774 192.714 59.6694 193.36C60.2614 194.006 60.5897 194.85 60.5896 195.726V198.726C60.5896 198.858 60.6423 198.986 60.736 199.079C60.8298 199.173 60.957 199.226 61.0896 199.226H69.0896C69.3023 199.226 69.5127 199.271 69.7066 199.358C69.9005 199.446 70.0736 199.574 70.2144 199.733C70.3552 199.893 70.4605 200.08 70.5232 200.283C70.586 200.487 70.6048 200.701 70.5784 200.912Z" fill="black"/>
<path d="M141.965 199.071C141.73 198.805 141.441 198.592 141.118 198.447C140.795 198.301 140.444 198.226 140.09 198.226H132.59V195.726C132.59 194.532 132.115 193.388 131.272 192.544C130.428 191.7 129.283 191.226 128.09 191.226C127.997 191.226 127.906 191.252 127.827 191.3C127.748 191.349 127.684 191.419 127.642 191.502L122.781 201.226H117.09C116.692 201.226 116.31 201.384 116.029 201.665C115.748 201.946 115.59 202.328 115.59 202.726V213.726C115.59 214.124 115.748 214.505 116.029 214.786C116.31 215.068 116.692 215.226 117.09 215.226H138.59C139.199 215.226 139.788 215.003 140.244 214.6C140.701 214.197 140.995 213.641 141.071 213.036L142.571 201.036C142.615 200.684 142.584 200.327 142.479 199.988C142.375 199.649 142.199 199.337 141.965 199.071ZM122.59 214.226H117.09C116.957 214.226 116.83 214.173 116.736 214.079C116.642 213.986 116.59 213.858 116.59 213.726V202.726C116.59 202.593 116.642 202.466 116.736 202.372C116.83 202.279 116.957 202.226 117.09 202.226H122.59V214.226ZM141.578 200.912L140.078 212.912C140.033 213.275 139.857 213.609 139.582 213.851C139.308 214.092 138.955 214.226 138.59 214.226H123.59V201.843L128.392 192.238C129.265 192.314 130.077 192.714 130.669 193.36C131.261 194.006 131.59 194.85 131.59 195.726V198.726C131.59 198.858 131.642 198.986 131.736 199.079C131.83 199.173 131.957 199.226 132.09 199.226H140.09C140.302 199.226 140.513 199.271 140.707 199.358C140.901 199.446 141.074 199.574 141.214 199.733C141.355 199.893 141.46 200.08 141.523 200.283C141.586 200.487 141.605 200.701 141.578 200.912Z" fill="black"/>
<path d="M210.965 199.071C210.73 198.805 210.441 198.592 210.118 198.447C209.795 198.301 209.444 198.226 209.09 198.226H201.59V195.726C201.59 194.532 201.115 193.388 200.272 192.544C199.428 191.7 198.283 191.226 197.09 191.226C196.997 191.226 196.906 191.252 196.827 191.3C196.748 191.349 196.684 191.419 196.642 191.502L191.781 201.226H186.09C185.692 201.226 185.31 201.384 185.029 201.665C184.748 201.946 184.59 202.328 184.59 202.726V213.726C184.59 214.124 184.748 214.505 185.029 214.786C185.31 215.068 185.692 215.226 186.09 215.226H207.59C208.199 215.226 208.788 215.003 209.244 214.6C209.701 214.197 209.995 213.641 210.071 213.036L211.571 201.036C211.615 200.684 211.584 200.327 211.479 199.988C211.375 199.649 211.199 199.337 210.965 199.071ZM191.59 214.226H186.09C185.957 214.226 185.83 214.173 185.736 214.079C185.642 213.986 185.59 213.858 185.59 213.726V202.726C185.59 202.593 185.642 202.466 185.736 202.372C185.83 202.279 185.957 202.226 186.09 202.226H191.59V214.226ZM210.578 200.912L209.078 212.912C209.033 213.275 208.857 213.609 208.582 213.851C208.308 214.092 207.955 214.226 207.59 214.226H192.59V201.843L197.392 192.238C198.265 192.314 199.077 192.714 199.669 193.36C200.261 194.006 200.59 194.85 200.59 195.726V198.726C200.59 198.858 200.642 198.986 200.736 199.079C200.83 199.173 200.957 199.226 201.09 199.226H209.09C209.302 199.226 209.513 199.271 209.707 199.358C209.901 199.446 210.074 199.574 210.214 199.733C210.355 199.893 210.46 200.08 210.523 200.283C210.586 200.487 210.605 200.701 210.578 200.912Z" fill="black"/>
</g>
<defs>
<clipPath id="clip0_699_182">
<rect width="259" height="259" fill="white"/>
</clipPath>
</defs>
</svg>
