<svg width="259" height="259" viewBox="0 0 259 259" fill="none" xmlns="http://www.w3.org/2000/svg">
<g clip-path="url(#clip0_704_407)">
<rect width="259" height="259" fill="white"/>
<rect x="9.5" y="9.5" width="249" height="249" stroke="#FF485E"/>
<rect x="1" y="1" width="248" height="248" fill="white" stroke="black" stroke-width="2"/>
<mask id="path-3-inside-1_704_407" fill="white">
<path fill-rule="evenodd" clip-rule="evenodd" d="M136.834 98C135.882 103.675 130.946 108 125 108C119.054 108 114.118 103.675 113.166 98H98V113.166C103.675 114.118 108 119.054 108 125C108 130.946 103.675 135.882 98 136.834V152H113.166C114.118 146.325 119.054 142 125 142C130.946 142 135.882 146.325 136.834 152H152V136.834C146.325 135.882 142 130.946 142 125C142 119.054 146.325 114.118 152 113.166V98H136.834Z"/>
</mask>
<path d="M136.834 98V97H135.988L135.848 97.8345L136.834 98ZM113.166 98L114.152 97.8345L114.012 97H113.166V98ZM98 98V97H97V98H98ZM98 113.166H97V114.012L97.8345 114.152L98 113.166ZM98 136.834L97.8345 135.848L97 135.988V136.834H98ZM98 152H97V153H98V152ZM113.166 152V153H114.012L114.152 152.165L113.166 152ZM136.834 152L135.848 152.165L135.988 153H136.834V152ZM152 152V153H153V152H152ZM152 136.834H153V135.988L152.165 135.848L152 136.834ZM152 113.166L152.165 114.152L153 114.012V113.166H152ZM152 98H153V97H152V98ZM125 109C131.442 109 136.789 104.315 137.82 98.1655L135.848 97.8345C134.975 103.036 130.45 107 125 107V109ZM112.18 98.1655C113.211 104.315 118.558 109 125 109V107C119.55 107 115.025 103.036 114.152 97.8345L112.18 98.1655ZM98 99H113.166V97H98V99ZM99 113.166V98H97V113.166H99ZM97.8345 114.152C103.036 115.025 107 119.55 107 125H109C109 118.558 104.315 113.211 98.1655 112.18L97.8345 114.152ZM107 125C107 130.45 103.036 134.975 97.8345 135.848L98.1655 137.82C104.315 136.789 109 131.442 109 125H107ZM99 152V136.834H97V152H99ZM113.166 151H98V153H113.166V151ZM125 141C118.558 141 113.211 145.685 112.18 151.835L114.152 152.165C115.025 146.964 119.55 143 125 143V141ZM137.82 151.835C136.789 145.685 131.442 141 125 141V143C130.45 143 134.975 146.964 135.848 152.165L137.82 151.835ZM152 151H136.834V153H152V151ZM151 136.834V152H153V136.834H151ZM141 125C141 131.442 145.685 136.789 151.835 137.82L152.165 135.848C146.964 134.975 143 130.45 143 125H141ZM151.835 112.18C145.685 113.211 141 118.558 141 125H143C143 119.55 146.964 115.025 152.165 114.152L151.835 112.18ZM151 98V113.166H153V98H151ZM136.834 99H152V97H136.834V99Z" fill="black" mask="url(#path-3-inside-1_704_407)"/>
<mask id="path-5-inside-2_704_407" fill="white">
<path fill-rule="evenodd" clip-rule="evenodd" d="M136.834 156C135.882 161.675 130.946 166 125 166C119.054 166 114.118 161.675 113.166 156H98V171.166C103.675 172.118 108 177.054 108 183C108 188.946 103.675 193.882 98 194.834V210H113.166C114.118 204.325 119.054 200 125 200C130.946 200 135.882 204.325 136.834 210H152V194.834C146.325 193.882 142 188.946 142 183C142 177.054 146.325 172.118 152 171.166V156H136.834Z"/>
</mask>
<path d="M136.834 156V155H135.988L135.848 155.835L136.834 156ZM113.166 156L114.152 155.835L114.012 155H113.166V156ZM98 156V155H97V156H98ZM98 171.166H97V172.012L97.8345 172.152L98 171.166ZM98 194.834L97.8345 193.848L97 193.988V194.834H98ZM98 210H97V211H98V210ZM113.166 210V211H114.012L114.152 210.165L113.166 210ZM136.834 210L135.848 210.165L135.988 211H136.834V210ZM152 210V211H153V210H152ZM152 194.834H153V193.988L152.165 193.848L152 194.834ZM152 171.166L152.165 172.152L153 172.012V171.166H152ZM152 156H153V155H152V156ZM125 167C131.442 167 136.789 162.315 137.82 156.165L135.848 155.835C134.975 161.036 130.45 165 125 165V167ZM112.18 156.165C113.211 162.315 118.558 167 125 167V165C119.55 165 115.025 161.036 114.152 155.835L112.18 156.165ZM98 157H113.166V155H98V157ZM99 171.166V156H97V171.166H99ZM97.8345 172.152C103.036 173.025 107 177.55 107 183H109C109 176.558 104.315 171.211 98.1655 170.18L97.8345 172.152ZM107 183C107 188.45 103.036 192.975 97.8345 193.848L98.1655 195.82C104.315 194.789 109 189.442 109 183H107ZM99 210V194.834H97V210H99ZM113.166 209H98V211H113.166V209ZM125 199C118.558 199 113.211 203.685 112.18 209.835L114.152 210.165C115.025 204.964 119.55 201 125 201V199ZM137.82 209.835C136.789 203.685 131.442 199 125 199V201C130.45 201 134.975 204.964 135.848 210.165L137.82 209.835ZM152 209H136.834V211H152V209ZM151 194.834V210H153V194.834H151ZM141 183C141 189.442 145.685 194.789 151.835 195.82L152.165 193.848C146.964 192.975 143 188.45 143 183H141ZM151.835 170.18C145.685 171.211 141 176.558 141 183H143C143 177.55 146.964 173.025 152.165 172.152L151.835 170.18ZM151 156V171.166H153V156H151ZM136.834 157H152V155H136.834V157Z" fill="black" mask="url(#path-5-inside-2_704_407)"/>
<mask id="path-7-inside-3_704_407" fill="white">
<path fill-rule="evenodd" clip-rule="evenodd" d="M136.834 40C135.882 45.6754 130.946 50 125 50C119.054 50 114.118 45.6754 113.166 40H98V55.1659C103.675 56.1181 108 61.054 108 67C108 72.946 103.675 77.8819 98 78.8341V94H113.166C114.118 88.3246 119.054 84 125 84C130.946 84 135.882 88.3246 136.834 94H152V78.8341C146.325 77.8819 142 72.946 142 67C142 61.054 146.325 56.1181 152 55.1659V40H136.834Z"/>
</mask>
<path d="M136.834 40V39H135.988L135.848 39.8345L136.834 40ZM113.166 40L114.152 39.8345L114.012 39H113.166V40ZM98 40V39H97V40H98ZM98 55.1659H97V56.0121L97.8345 56.1521L98 55.1659ZM98 78.8341L97.8345 77.8479L97 77.9879V78.8341H98ZM98 94H97V95H98V94ZM113.166 94V95H114.012L114.152 94.1655L113.166 94ZM136.834 94L135.848 94.1655L135.988 95H136.834V94ZM152 94V95H153V94H152ZM152 78.8341H153V77.9879L152.165 77.8479L152 78.8341ZM152 55.1659L152.165 56.1521L153 56.0121V55.1659H152ZM152 40H153V39H152V40ZM125 51C131.442 51 136.789 46.3146 137.82 40.1655L135.848 39.8345C134.975 45.0363 130.45 49 125 49V51ZM112.18 40.1655C113.211 46.3146 118.558 51 125 51V49C119.55 49 115.025 45.0363 114.152 39.8345L112.18 40.1655ZM98 41H113.166V39H98V41ZM99 55.1659V40H97V55.1659H99ZM97.8345 56.1521C103.036 57.0248 107 61.5505 107 67H109C109 60.5575 104.315 55.2113 98.1655 54.1797L97.8345 56.1521ZM107 67C107 72.4495 103.036 76.9752 97.8345 77.8479L98.1655 79.8203C104.315 78.7887 109 73.4425 109 67H107ZM99 94V78.8341H97V94H99ZM113.166 93H98V95H113.166V93ZM125 83C118.558 83 113.211 87.6854 112.18 93.8345L114.152 94.1655C115.025 88.9637 119.55 85 125 85V83ZM137.82 93.8345C136.789 87.6854 131.442 83 125 83V85C130.45 85 134.975 88.9637 135.848 94.1655L137.82 93.8345ZM152 93H136.834V95H152V93ZM151 78.8341V94H153V78.8341H151ZM141 67C141 73.4425 145.685 78.7887 151.835 79.8203L152.165 77.8479C146.964 76.9752 143 72.4495 143 67H141ZM151.835 54.1797C145.685 55.2113 141 60.5575 141 67H143C143 61.5505 146.964 57.0248 152.165 56.1521L151.835 54.1797ZM151 40V55.1659H153V40H151ZM136.834 41H152V39H136.834V41Z" fill="black" mask="url(#path-7-inside-3_704_407)"/>
<mask id="path-9-inside-4_704_407" fill="white">
<path fill-rule="evenodd" clip-rule="evenodd" d="M78.8341 98C77.8819 103.675 72.946 108 67 108C61.054 108 56.1181 103.675 55.1659 98H40V113.166C45.6754 114.118 50 119.054 50 125C50 130.946 45.6754 135.882 40 136.834V152H55.1659C56.1181 146.325 61.054 142 67 142C72.946 142 77.8819 146.325 78.8341 152H94V136.834C88.3246 135.882 84 130.946 84 125C84 119.054 88.3246 114.118 94 113.166V98H78.8341Z"/>
</mask>
<path d="M78.8341 98V97H77.9879L77.8479 97.8345L78.8341 98ZM55.1659 98L56.1521 97.8345L56.0121 97H55.1659V98ZM40 98V97H39V98H40ZM40 113.166H39V114.012L39.8345 114.152L40 113.166ZM40 136.834L39.8345 135.848L39 135.988V136.834H40ZM40 152H39V153H40V152ZM55.1659 152V153H56.0121L56.1521 152.165L55.1659 152ZM78.8341 152L77.8479 152.165L77.9879 153H78.8341V152ZM94 152V153H95V152H94ZM94 136.834H95V135.988L94.1655 135.848L94 136.834ZM94 113.166L94.1655 114.152L95 114.012V113.166H94ZM94 98H95V97H94V98ZM67 109C73.4425 109 78.7887 104.315 79.8203 98.1655L77.8479 97.8345C76.9752 103.036 72.4495 107 67 107V109ZM54.1797 98.1655C55.2113 104.315 60.5575 109 67 109V107C61.5505 107 57.0248 103.036 56.1521 97.8345L54.1797 98.1655ZM40 99H55.1659V97H40V99ZM41 113.166V98H39V113.166H41ZM39.8345 114.152C45.0363 115.025 49 119.55 49 125H51C51 118.558 46.3146 113.211 40.1655 112.18L39.8345 114.152ZM49 125C49 130.45 45.0363 134.975 39.8345 135.848L40.1655 137.82C46.3146 136.789 51 131.442 51 125H49ZM41 152V136.834H39V152H41ZM55.1659 151H40V153H55.1659V151ZM67 141C60.5575 141 55.2113 145.685 54.1797 151.835L56.1521 152.165C57.0248 146.964 61.5505 143 67 143V141ZM79.8203 151.835C78.7887 145.685 73.4425 141 67 141V143C72.4495 143 76.9752 146.964 77.8479 152.165L79.8203 151.835ZM94 151H78.8341V153H94V151ZM93 136.834V152H95V136.834H93ZM83 125C83 131.442 87.6854 136.789 93.8345 137.82L94.1655 135.848C88.9637 134.975 85 130.45 85 125H83ZM93.8345 112.18C87.6854 113.211 83 118.558 83 125H85C85 119.55 88.9637 115.025 94.1655 114.152L93.8345 112.18ZM93 98V113.166H95V98H93ZM78.8341 99H94V97H78.8341V99Z" fill="black" mask="url(#path-9-inside-4_704_407)"/>
<mask id="path-11-inside-5_704_407" fill="white">
<path fill-rule="evenodd" clip-rule="evenodd" d="M194.834 98C193.882 103.675 188.946 108 183 108C177.054 108 172.118 103.675 171.166 98H156V113.166C161.675 114.118 166 119.054 166 125C166 130.946 161.675 135.882 156 136.834V152H171.166C172.118 146.325 177.054 142 183 142C188.946 142 193.882 146.325 194.834 152H210V136.834C204.325 135.882 200 130.946 200 125C200 119.054 204.325 114.118 210 113.166V98H194.834Z"/>
</mask>
<path d="M194.834 98V97H193.988L193.848 97.8345L194.834 98ZM171.166 98L172.152 97.8345L172.012 97H171.166V98ZM156 98V97H155V98H156ZM156 113.166H155V114.012L155.835 114.152L156 113.166ZM156 136.834L155.835 135.848L155 135.988V136.834H156ZM156 152H155V153H156V152ZM171.166 152V153H172.012L172.152 152.165L171.166 152ZM194.834 152L193.848 152.165L193.988 153H194.834V152ZM210 152V153H211V152H210ZM210 136.834H211V135.988L210.165 135.848L210 136.834ZM210 113.166L210.165 114.152L211 114.012V113.166H210ZM210 98H211V97H210V98ZM183 109C189.442 109 194.789 104.315 195.82 98.1655L193.848 97.8345C192.975 103.036 188.45 107 183 107V109ZM170.18 98.1655C171.211 104.315 176.558 109 183 109V107C177.55 107 173.025 103.036 172.152 97.8345L170.18 98.1655ZM156 99H171.166V97H156V99ZM157 113.166V98H155V113.166H157ZM155.835 114.152C161.036 115.025 165 119.55 165 125H167C167 118.558 162.315 113.211 156.165 112.18L155.835 114.152ZM165 125C165 130.45 161.036 134.975 155.835 135.848L156.165 137.82C162.315 136.789 167 131.442 167 125H165ZM157 152V136.834H155V152H157ZM171.166 151H156V153H171.166V151ZM183 141C176.558 141 171.211 145.685 170.18 151.835L172.152 152.165C173.025 146.964 177.55 143 183 143V141ZM195.82 151.835C194.789 145.685 189.442 141 183 141V143C188.45 143 192.975 146.964 193.848 152.165L195.82 151.835ZM210 151H194.834V153H210V151ZM209 136.834V152H211V136.834H209ZM199 125C199 131.442 203.685 136.789 209.835 137.82L210.165 135.848C204.964 134.975 201 130.45 201 125H199ZM209.835 112.18C203.685 113.211 199 118.558 199 125H201C201 119.55 204.964 115.025 210.165 114.152L209.835 112.18ZM209 98V113.166H211V98H209ZM194.834 99H210V97H194.834V99Z" fill="black" mask="url(#path-11-inside-5_704_407)"/>
<circle cx="125" cy="96" r="8.5" stroke="#FF485E"/>
<circle cx="154" cy="125" r="8.5" stroke="#FF485E"/>
<circle cx="125" cy="154" r="8.5" stroke="#FF485E"/>
<circle cx="96" cy="125" r="8.5" stroke="#FF485E"/>
</g>
<defs>
<clipPath id="clip0_704_407">
<rect width="259" height="259" fill="white"/>
</clipPath>
</defs>
</svg>
