<svg width="259" height="259" viewBox="0 0 259 259" fill="none" xmlns="http://www.w3.org/2000/svg">
<g clip-path="url(#clip0_704_381)">
<rect width="259" height="259" fill="white"/>
<rect x="9.5" y="9.5" width="249" height="249" stroke="#FF485E"/>
<rect x="1" y="1" width="248" height="248" fill="white" stroke="black" stroke-width="2"/>
<g clip-path="url(#clip1_704_381)">
<path d="M125 136.759C131.892 136.759 137.478 131.172 137.478 124.28C137.478 117.389 131.892 111.802 125 111.802C118.108 111.802 112.522 117.389 112.522 124.28C112.522 131.172 118.108 136.759 125 136.759Z" fill="#FF485E"/>
<path d="M125 149.845C161.979 149.845 191.956 138.399 191.956 124.28C191.956 110.161 161.979 98.7148 125 98.7148C88.0209 98.7148 58.0435 110.161 58.0435 124.28C58.0435 138.399 88.0209 149.845 125 149.845Z" stroke="#FF485E"/>
<path d="M102.86 137.063C121.349 169.088 146.251 189.326 158.478 182.266C170.706 175.207 165.63 143.522 147.14 111.498C128.651 79.4727 103.749 59.2344 91.5217 66.2941C79.2941 73.3537 84.3703 105.038 102.86 137.063Z" stroke="#FF485E"/>
<path d="M102.86 111.497C84.3704 143.522 79.2941 175.207 91.5218 182.266C103.749 189.326 128.651 169.088 147.14 137.063C165.63 105.038 170.706 73.3537 158.478 66.2941C146.251 59.2344 121.349 79.4727 102.86 111.497Z" stroke="#FF485E"/>
</g>
<path d="M227.354 125.354C227.549 125.158 227.549 124.842 227.354 124.646L224.172 121.464C223.976 121.269 223.66 121.269 223.464 121.464C223.269 121.66 223.269 121.976 223.464 122.172L226.293 125L223.464 127.828C223.269 128.024 223.269 128.34 223.464 128.536C223.66 128.731 223.976 128.731 224.172 128.536L227.354 125.354ZM211 125.5H227V124.5H211V125.5Z" fill="black"/>
<path d="M23.6464 125.354C23.4512 125.158 23.4512 124.842 23.6464 124.646L26.8284 121.464C27.0237 121.269 27.3403 121.269 27.5355 121.464C27.7308 121.66 27.7308 121.976 27.5355 122.172L24.7071 125L27.5355 127.828C27.7308 128.024 27.7308 128.34 27.5355 128.536C27.3403 128.731 27.0237 128.731 26.8284 128.536L23.6464 125.354ZM40 125.5H24V124.5H40V125.5Z" fill="black"/>
<path d="M125.854 23.1464C125.658 22.9512 125.342 22.9512 125.146 23.1464L121.964 26.3284C121.769 26.5237 121.769 26.8403 121.964 27.0355C122.16 27.2308 122.476 27.2308 122.672 27.0355L125.5 24.2071L128.328 27.0355C128.524 27.2308 128.84 27.2308 129.036 27.0355C129.231 26.8403 129.231 26.5237 129.036 26.3284L125.854 23.1464ZM126 39.5V23.5H125V39.5H126Z" fill="black"/>
<path d="M125.854 226.854C125.658 227.049 125.342 227.049 125.146 226.854L121.964 223.672C121.769 223.476 121.769 223.16 121.964 222.964C122.16 222.769 122.476 222.769 122.672 222.964L125.5 225.793L128.328 222.964C128.524 222.769 128.84 222.769 129.036 222.964C129.231 223.16 129.231 223.476 129.036 223.672L125.854 226.854ZM126 210.5V226.5H125V210.5H126Z" fill="black"/>
<path d="M197.771 53.2285C197.771 52.9524 197.547 52.7285 197.271 52.7285L192.771 52.7285C192.495 52.7285 192.271 52.9524 192.271 53.2285C192.271 53.5047 192.495 53.7285 192.771 53.7285L196.771 53.7285L196.771 57.7285C196.771 58.0047 196.995 58.2285 197.271 58.2285C197.547 58.2285 197.771 58.0047 197.771 57.7285L197.771 53.2285ZM186.311 64.8958L197.625 53.5821L196.918 52.875L185.604 64.1887L186.311 64.8958Z" fill="black"/>
<path d="M53.7285 197.271C53.4524 197.271 53.2285 197.047 53.2285 196.771L53.2285 192.271C53.2285 191.995 53.4524 191.771 53.7285 191.771C54.0047 191.771 54.2285 191.995 54.2285 192.271L54.2285 196.271L58.2285 196.271C58.5047 196.271 58.7285 196.495 58.7285 196.771C58.7285 197.047 58.5047 197.271 58.2285 197.271L53.7285 197.271ZM65.3958 185.811L54.0821 197.125L53.375 196.418L64.6887 185.104L65.3958 185.811Z" fill="black"/>
<path d="M53.7285 52.7285C53.4524 52.7285 53.2285 52.9524 53.2285 53.2285L53.2285 57.7285C53.2285 58.0047 53.4524 58.2285 53.7285 58.2285C54.0047 58.2285 54.2285 58.0047 54.2285 57.7285L54.2285 53.7285L58.2285 53.7285C58.5047 53.7285 58.7285 53.5047 58.7285 53.2285C58.7285 52.9524 58.5047 52.7285 58.2285 52.7285L53.7285 52.7285ZM65.3958 64.1887L54.0821 52.875L53.375 53.5821L64.6887 64.8958L65.3958 64.1887Z" fill="black"/>
<path d="M197.771 196.771C197.771 197.047 197.547 197.271 197.271 197.271L192.771 197.271C192.495 197.271 192.271 197.047 192.271 196.771C192.271 196.495 192.495 196.271 192.771 196.271L196.771 196.271L196.771 192.271C196.771 191.995 196.995 191.771 197.271 191.771C197.547 191.771 197.771 191.995 197.771 192.271L197.771 196.771ZM186.311 185.104L197.625 196.418L196.918 197.125L185.604 185.811L186.311 185.104Z" fill="black"/>
</g>
<defs>
<clipPath id="clip0_704_381">
<rect width="259" height="259" fill="white"/>
</clipPath>
<clipPath id="clip1_704_381">
<rect width="140" height="124.56" fill="white" transform="translate(55 62)"/>
</clipPath>
</defs>
</svg>
