<svg width="259" height="259" viewBox="0 0 259 259" fill="none" xmlns="http://www.w3.org/2000/svg">
<g clip-path="url(#clip0_713_672)">
<rect width="259" height="259" fill="white"/>
<rect x="9.5" y="9.5" width="249" height="249" stroke="#FF485E"/>
<rect x="1" y="1" width="248" height="248" fill="white" stroke="black" stroke-width="2"/>
<path d="M42 120.045H41.5V120.545V124.636V128.727V129.227H42C45.7527 129.227 48.2236 130.019 49.5794 131.457L49.582 131.459C50.9712 132.911 51.7273 135.409 51.7273 139.091V150C51.7273 153.166 52.0253 155.926 52.6294 158.272L52.6306 158.277C53.2613 160.636 54.2837 162.609 55.7096 164.177C57.1419 165.753 59.0403 166.909 61.3817 167.658C63.719 168.406 66.5809 168.773 69.9545 168.773H70.4545V168.273V161.591V161.091H69.9545C67.3627 161.091 65.3778 160.676 63.9576 159.892L63.9553 159.891C62.5689 159.134 61.5781 157.972 60.9808 156.373C60.3942 154.742 60.0909 152.624 60.0909 150V136.364C60.0909 134.548 59.8466 132.881 59.3512 131.37C58.8658 129.819 57.9562 128.491 56.639 127.389C55.3819 126.338 53.6468 125.537 51.4659 124.963V124.309C53.6468 123.736 55.3819 122.935 56.639 121.884C57.9562 120.782 58.8657 119.454 59.3512 117.903C59.8466 116.391 60.0909 114.725 60.0909 112.909V99.2727C60.0909 96.6478 60.3944 94.5293 60.9812 92.8984C61.5791 91.2767 62.57 90.1041 63.9539 89.3488C65.3754 88.5854 67.3619 88.1818 69.9545 88.1818H70.4545V87.6818V81V80.5H69.9545C66.5809 80.5 63.719 80.8668 61.3817 81.6147C59.0403 82.3639 57.1419 83.5199 55.7096 85.0955C54.2837 86.6639 53.2613 88.6366 52.6306 90.9959L52.6306 90.9959L52.6294 91.0004C52.0253 93.3472 51.7273 96.107 51.7273 99.2727V110.182C51.7273 113.864 50.9712 116.362 49.582 117.813L49.5794 117.816C48.2236 119.254 45.7527 120.045 42 120.045Z" stroke="#FF485E"/>
<path d="M208.955 120.045H209.455V120.545V124.636V128.727V129.227H208.955C205.202 129.227 202.731 130.019 201.375 131.457L201.373 131.459C199.983 132.911 199.227 135.409 199.227 139.091V150C199.227 153.166 198.929 155.926 198.325 158.272L198.324 158.277C197.693 160.636 196.671 162.609 195.245 164.177C193.813 165.753 191.914 166.909 189.573 167.658C187.236 168.406 184.374 168.773 181 168.773H180.5V168.273V161.591V161.091H181C183.592 161.091 185.577 160.676 186.997 159.892L186.999 159.891C188.386 159.134 189.376 157.972 189.974 156.373C190.56 154.742 190.864 152.624 190.864 150V136.364C190.864 134.548 191.108 132.881 191.603 131.37C192.089 129.819 192.998 128.491 194.316 127.389C195.573 126.338 197.308 125.537 199.489 124.963V124.309C197.308 123.736 195.573 122.935 194.316 121.884C192.998 120.782 192.089 119.454 191.603 117.903C191.108 116.391 190.864 114.725 190.864 112.909V99.2727C190.864 96.6478 190.56 94.5293 189.973 92.8984C189.376 91.2767 188.385 90.1041 187.001 89.3488C185.579 88.5854 183.593 88.1818 181 88.1818H180.5V87.6818V81V80.5H181C184.374 80.5 187.236 80.8668 189.573 81.6147C191.914 82.3639 193.813 83.5199 195.245 85.0955C196.671 86.6639 197.693 88.6366 198.324 90.9959L198.324 90.9959L198.325 91.0004C198.929 93.3472 199.227 96.107 199.227 99.2727V110.182C199.227 113.864 199.983 116.362 201.373 117.813L201.375 117.816C202.731 119.254 205.202 120.045 208.955 120.045Z" stroke="#FF485E"/>
<path d="M85.3839 119.909L88.5202 125.261L91.6566 119.909H93.9748L89.7475 126.455L93.9748 133H91.6566L88.5202 127.92L85.3839 133H83.0657L87.2248 126.455L83.0657 119.909H85.3839Z" fill="black"/>
<path d="M98.3107 133.136C97.8902 133.136 97.5295 132.986 97.2283 132.685C96.9272 132.384 96.7766 132.023 96.7766 131.602C96.7766 131.182 96.9272 130.821 97.2283 130.52C97.5295 130.219 97.8902 130.068 98.3107 130.068C98.7312 130.068 99.092 130.219 99.3931 130.52C99.6942 130.821 99.8448 131.182 99.8448 131.602C99.8448 131.881 99.7738 132.136 99.6317 132.369C99.4954 132.602 99.3107 132.79 99.0777 132.932C98.8505 133.068 98.5948 133.136 98.3107 133.136Z" fill="black"/>
<path d="M104.75 137.909C104.409 137.909 104.105 137.881 103.838 137.824C103.571 137.773 103.386 137.722 103.284 137.67L103.795 135.898C104.284 136.023 104.716 136.068 105.091 136.034C105.466 136 105.798 135.832 106.088 135.531C106.383 135.236 106.653 134.756 106.897 134.091L107.272 133.068L102.431 119.909H104.613L108.227 130.341H108.363L111.977 119.909H114.159L108.602 134.909C108.352 135.585 108.042 136.145 107.673 136.588C107.304 137.037 106.875 137.369 106.386 137.585C105.903 137.801 105.358 137.909 104.75 137.909Z" fill="black"/>
<path d="M117.802 136.545V114.727H122.848V116.398H119.711V134.875H122.848V136.545H117.802Z" fill="black"/>
<path d="M131.168 133.239C129.884 133.239 128.79 132.889 127.887 132.19C126.983 131.486 126.293 130.466 125.816 129.131C125.338 127.79 125.1 126.17 125.1 124.273C125.1 122.386 125.338 120.776 125.816 119.44C126.299 118.099 126.992 117.077 127.895 116.372C128.804 115.662 129.895 115.307 131.168 115.307C132.441 115.307 133.529 115.662 134.432 116.372C135.341 117.077 136.034 118.099 136.512 119.44C136.995 120.776 137.236 122.386 137.236 124.273C137.236 126.17 136.997 127.79 136.52 129.131C136.043 130.466 135.353 131.486 134.449 132.19C133.546 132.889 132.452 133.239 131.168 133.239ZM131.168 131.364C132.441 131.364 133.429 130.75 134.134 129.523C134.838 128.295 135.191 126.545 135.191 124.273C135.191 122.761 135.029 121.474 134.705 120.412C134.387 119.349 133.926 118.54 133.324 117.983C132.728 117.426 132.009 117.148 131.168 117.148C129.907 117.148 128.921 117.77 128.211 119.014C127.5 120.253 127.145 122.006 127.145 124.273C127.145 125.784 127.304 127.068 127.622 128.125C127.941 129.182 128.398 129.986 128.995 130.537C129.597 131.088 130.321 131.364 131.168 131.364Z" fill="black"/>
<path d="M144.532 114.727V136.545H139.486V134.875H142.622V116.398H139.486V114.727H144.532Z" fill="black"/>
<path d="M150.67 133.136C150.25 133.136 149.889 132.986 149.588 132.685C149.287 132.384 149.136 132.023 149.136 131.602C149.136 131.182 149.287 130.821 149.588 130.52C149.889 130.219 150.25 130.068 150.67 130.068C151.091 130.068 151.451 130.219 151.752 130.52C152.054 130.821 152.204 131.182 152.204 131.602C152.204 131.881 152.133 132.136 151.991 132.369C151.855 132.602 151.67 132.79 151.437 132.932C151.21 133.068 150.954 133.136 150.67 133.136Z" fill="black"/>
<path d="M155.439 133V131.466L162.87 121.92V121.784H155.677V119.909H165.461V121.511L158.234 130.989V131.125H165.7V133H155.439Z" fill="black"/>
</g>
<defs>
<clipPath id="clip0_713_672">
<rect width="259" height="259" fill="white"/>
</clipPath>
</defs>
</svg>
