<svg width="259" height="259" viewBox="0 0 259 259" fill="none" xmlns="http://www.w3.org/2000/svg">
<g clip-path="url(#clip0_712_622)">
<rect width="259" height="259" fill="white"/>
<rect x="9.5" y="9.5" width="249" height="249" stroke="#FF485E"/>
<rect x="1" y="1" width="248" height="248" fill="white" stroke="black" stroke-width="2"/>
<line x1="124.25" y1="75" x2="124.25" y2="112" stroke="black"/>
<line x1="98.75" y1="137" x2="98.75" y2="174" stroke="black"/>
<line x1="149.75" y1="137" x2="149.75" y2="174" stroke="black"/>
<line x1="124.604" y1="111.354" x2="98.6036" y2="137.354" stroke="black"/>
<line y1="-0.5" x2="36.7696" y2="-0.5" transform="matrix(0.707107 0.707107 0.707107 -0.707107 124.25 111)" stroke="black"/>
<line x1="88.3536" y1="163.646" x2="98.9602" y2="174.253" stroke="black"/>
<line y1="-0.5" x2="15" y2="-0.5" transform="matrix(-0.707107 0.707107 0.707107 0.707107 109.5 164)" stroke="black"/>
<line x1="139.354" y1="163.646" x2="149.96" y2="174.253" stroke="black"/>
<line y1="-0.5" x2="15" y2="-0.5" transform="matrix(-0.707107 0.707107 0.707107 0.707107 160.5 164)" stroke="black"/>
<circle cx="124.25" cy="77" r="3.5" fill="white" stroke="#FF485E"/>
<circle cx="124.25" cy="113" r="3.5" fill="white" stroke="black"/>
<circle cx="98.75" cy="137" r="3.5" fill="white" stroke="black"/>
<circle cx="149.75" cy="137" r="3.5" fill="white" stroke="#FF485E"/>
<path d="M58.8557 41.4547V56.0001H57.0944V43.3012H57.0091L53.458 45.6592V43.8694L57.0944 41.4547H58.8557Z" fill="black"/>
<path d="M63.4296 56.1137C63.0792 56.1137 62.7786 55.9883 62.5276 55.7373C62.2767 55.4864 62.1512 55.1857 62.1512 54.8353C62.1512 54.485 62.2767 54.1843 62.5276 53.9334C62.7786 53.6824 63.0792 53.5569 63.4296 53.5569C63.78 53.5569 64.0806 53.6824 64.3316 53.9334C64.5825 54.1843 64.708 54.485 64.708 54.8353C64.708 55.0673 64.6488 55.2804 64.5305 55.4745C64.4168 55.6687 64.2629 55.8249 64.0688 55.9433C63.8794 56.0569 63.6663 56.1137 63.4296 56.1137Z" fill="black"/>
<path d="M67.849 56.0001L74.3547 43.1308V43.0172H66.8547V41.4547H76.1729V43.1024L69.6956 56.0001H67.849Z" fill="black"/>
<path d="M77.5702 56.1137C77.2198 56.1137 76.9192 55.9883 76.6682 55.7373C76.4173 55.4864 76.2918 55.1857 76.2918 54.8353C76.2918 54.485 76.4173 54.1843 76.6682 53.9334C76.9192 53.6824 77.2198 53.5569 77.5702 53.5569C77.9206 53.5569 78.2213 53.6824 78.4722 53.9334C78.7232 54.1843 78.8486 54.485 78.8486 54.8353C78.8486 55.0673 78.7894 55.2804 78.6711 55.4745C78.5574 55.6687 78.4036 55.8249 78.2094 55.9433C78.02 56.0569 77.807 56.1137 77.5702 56.1137Z" fill="black"/>
<path d="M81.828 56.0001V54.7217L86.6292 49.466C87.1926 48.8505 87.6566 48.3155 88.0212 47.8609C88.3858 47.4016 88.6557 46.9708 88.8309 46.5683C89.0108 46.1611 89.1008 45.735 89.1008 45.2899C89.1008 44.7785 88.9777 44.3358 88.7314 43.9618C88.49 43.5877 88.1585 43.2989 87.7371 43.0953C87.3157 42.8917 86.8422 42.7899 86.3167 42.7899C85.758 42.7899 85.2703 42.9059 84.8536 43.1379C84.4417 43.3652 84.1221 43.6848 83.8948 44.0967C83.6723 44.5086 83.561 44.9916 83.561 45.5456H81.8849C81.8849 44.6933 82.0813 43.9452 82.4743 43.3012C82.8673 42.6573 83.4024 42.1554 84.0795 41.7956C84.7613 41.4357 85.526 41.2558 86.3735 41.2558C87.2258 41.2558 87.981 41.4357 88.6391 41.7956C89.2973 42.1554 89.8134 42.6407 90.1874 43.2515C90.5615 43.8623 90.7485 44.5418 90.7485 45.2899C90.7485 45.8249 90.6514 46.3481 90.4573 46.8595C90.2679 47.3661 89.9365 47.9319 89.463 48.5569C88.9942 49.1772 88.3432 49.9348 87.5099 50.8297L84.2428 54.324V54.4376H91.0042V56.0001H81.828Z" fill="black"/>
<path d="M98.6817 56.199C97.6117 56.199 96.7002 55.9078 95.9474 55.3254C95.1945 54.7383 94.6192 53.8884 94.2215 52.7757C93.8238 51.6583 93.6249 50.3088 93.6249 48.7274C93.6249 47.1554 93.8238 45.8131 94.2215 44.7004C94.624 43.583 95.2016 42.7307 95.9545 42.1436C96.712 41.5517 97.6211 41.2558 98.6817 41.2558C99.7423 41.2558 100.649 41.5517 101.402 42.1436C102.159 42.7307 102.737 43.583 103.135 44.7004C103.537 45.8131 103.739 47.1554 103.739 48.7274C103.739 50.3088 103.54 51.6583 103.142 52.7757C102.744 53.8884 102.169 54.7383 101.416 55.3254C100.663 55.9078 99.7518 56.199 98.6817 56.199ZM98.6817 54.6365C99.7423 54.6365 100.566 54.1251 101.153 53.1024C101.74 52.0797 102.034 50.6213 102.034 48.7274C102.034 47.4679 101.899 46.3955 101.629 45.5101C101.364 44.6246 100.98 43.9499 100.479 43.4859C99.9814 43.0219 99.3825 42.7899 98.6817 42.7899C97.6306 42.7899 96.8091 43.3084 96.2172 44.3453C95.6254 45.3775 95.3295 46.8382 95.3295 48.7274C95.3295 49.9869 95.462 51.0569 95.7272 51.9376C95.9923 52.8183 96.3735 53.4883 96.8706 53.9476C97.3725 54.4068 97.9762 54.6365 98.6817 54.6365Z" fill="black"/>
<path d="M106.437 56.0001V54.7217L111.239 49.466C111.802 48.8505 112.266 48.3155 112.631 47.8609C112.995 47.4016 113.265 46.9708 113.44 46.5683C113.62 46.1611 113.71 45.735 113.71 45.2899C113.71 44.7785 113.587 44.3358 113.341 43.9618C113.099 43.5877 112.768 43.2989 112.347 43.0953C111.925 42.8917 111.452 42.7899 110.926 42.7899C110.367 42.7899 109.88 42.9059 109.463 43.1379C109.051 43.3652 108.731 43.6848 108.504 44.0967C108.282 44.5086 108.17 44.9916 108.17 45.5456H106.494C106.494 44.6933 106.691 43.9452 107.084 43.3012C107.477 42.6573 108.012 42.1554 108.689 41.7956C109.371 41.4357 110.135 41.2558 110.983 41.2558C111.835 41.2558 112.59 41.4357 113.248 41.7956C113.907 42.1554 114.423 42.6407 114.797 43.2515C115.171 43.8623 115.358 44.5418 115.358 45.2899C115.358 45.8249 115.261 46.3481 115.067 46.8595C114.877 47.3661 114.546 47.9319 114.072 48.5569C113.604 49.1772 112.953 49.9348 112.119 50.8297L108.852 54.324V54.4376H115.614V56.0001H106.437Z" fill="black"/>
<path d="M118.547 56.0001V54.7217L123.348 49.466C123.911 48.8505 124.375 48.3155 124.74 47.8609C125.105 47.4016 125.374 46.9708 125.55 46.5683C125.73 46.1611 125.82 45.735 125.82 45.2899C125.82 44.7785 125.696 44.3358 125.45 43.9618C125.209 43.5877 124.877 43.2989 124.456 43.0953C124.034 42.8917 123.561 42.7899 123.035 42.7899C122.477 42.7899 121.989 42.9059 121.572 43.1379C121.16 43.3652 120.841 43.6848 120.614 44.0967C120.391 44.5086 120.28 44.9916 120.28 45.5456H118.604C118.604 44.6933 118.8 43.9452 119.193 43.3012C119.586 42.6573 120.121 42.1554 120.798 41.7956C121.48 41.4357 122.245 41.2558 123.092 41.2558C123.945 41.2558 124.7 41.4357 125.358 41.7956C126.016 42.1554 126.532 42.6407 126.906 43.2515C127.28 43.8623 127.467 44.5418 127.467 45.2899C127.467 45.8249 127.37 46.3481 127.176 46.8595C126.987 47.3661 126.655 47.9319 126.182 48.5569C125.713 49.1772 125.062 49.9348 124.229 50.8297L120.962 54.324V54.4376H127.723V56.0001H118.547Z" fill="black"/>
<path d="M136.935 47.9461V49.5086H130.571V47.9461H136.935Z" fill="black"/>
<path d="M144.6 56.199C143.53 56.199 142.618 55.9078 141.865 55.3254C141.112 54.7383 140.537 53.8884 140.139 52.7757C139.742 51.6583 139.543 50.3088 139.543 48.7274C139.543 47.1554 139.742 45.8131 140.139 44.7004C140.542 43.583 141.12 42.7307 141.872 42.1436C142.63 41.5517 143.539 41.2558 144.6 41.2558C145.66 41.2558 146.567 41.5517 147.32 42.1436C148.077 42.7307 148.655 43.583 149.053 44.7004C149.455 45.8131 149.657 47.1554 149.657 48.7274C149.657 50.3088 149.458 51.6583 149.06 52.7757C148.662 53.8884 148.087 54.7383 147.334 55.3254C146.581 55.9078 145.67 56.199 144.6 56.199ZM144.6 54.6365C145.66 54.6365 146.484 54.1251 147.071 53.1024C147.658 52.0797 147.952 50.6213 147.952 48.7274C147.952 47.4679 147.817 46.3955 147.547 45.5101C147.282 44.6246 146.898 43.9499 146.397 43.4859C145.899 43.0219 145.3 42.7899 144.6 42.7899C143.549 42.7899 142.727 43.3084 142.135 44.3453C141.543 45.3775 141.247 46.8382 141.247 48.7274C141.247 49.9869 141.38 51.0569 141.645 51.9376C141.91 52.8183 142.291 53.4883 142.789 53.9476C143.291 54.4068 143.894 54.6365 144.6 54.6365Z" fill="black"/>
<path d="M156.986 41.2558C157.583 41.2605 158.179 41.3742 158.776 41.5967C159.372 41.8192 159.917 42.1886 160.409 42.7047C160.902 43.216 161.297 43.9144 161.595 44.7998C161.894 45.6852 162.043 46.7956 162.043 48.1308C162.043 49.4234 161.92 50.5716 161.674 51.5754C161.432 52.5744 161.082 53.4173 160.622 54.1038C160.168 54.7904 159.614 55.3112 158.96 55.6663C158.312 56.0214 157.578 56.199 156.759 56.199C155.944 56.199 155.218 56.038 154.578 55.716C153.944 55.3893 153.423 54.9371 153.016 54.3595C152.613 53.7771 152.355 53.1024 152.242 52.3353H153.975C154.131 53.003 154.441 53.5546 154.905 53.9902C155.374 54.421 155.992 54.6365 156.759 54.6365C157.881 54.6365 158.766 54.1464 159.415 53.1663C160.068 52.1862 160.395 50.8012 160.395 49.0115H160.282C160.016 49.4092 159.701 49.7525 159.337 50.0413C158.972 50.3301 158.568 50.5527 158.122 50.7089C157.677 50.8652 157.204 50.9433 156.702 50.9433C155.869 50.9433 155.104 50.7373 154.408 50.3254C153.717 49.9087 153.163 49.3382 152.746 48.6137C152.334 47.8846 152.128 47.0512 152.128 46.1137C152.128 45.2236 152.327 44.4092 152.725 43.6706C153.127 42.9272 153.691 42.3353 154.415 41.895C155.144 41.4547 156.001 41.2416 156.986 41.2558ZM156.986 42.8183C156.389 42.8183 155.852 42.9674 155.374 43.2657C154.9 43.5593 154.524 43.957 154.245 44.4589C153.97 44.9561 153.833 45.5077 153.833 46.1137C153.833 46.7198 153.965 47.2714 154.23 47.7686C154.5 48.261 154.867 48.654 155.331 48.9476C155.8 49.2364 156.333 49.3808 156.929 49.3808C157.379 49.3808 157.798 49.2932 158.186 49.118C158.575 48.9381 158.913 48.6942 159.202 48.3865C159.496 48.074 159.725 47.7212 159.891 47.3282C160.057 46.9305 160.139 46.5162 160.139 46.0853C160.139 45.5172 160.002 44.9845 159.728 44.4873C159.458 43.9902 159.084 43.5877 158.605 43.2799C158.132 42.9722 157.592 42.8183 156.986 42.8183Z" fill="black"/>
<path d="M171.114 47.9461V49.5086H164.751V47.9461H171.114Z" fill="black"/>
<path d="M178.779 56.199C177.709 56.199 176.798 55.9078 176.045 55.3254C175.292 54.7383 174.717 53.8884 174.319 52.7757C173.921 51.6583 173.723 50.3088 173.723 48.7274C173.723 47.1554 173.921 45.8131 174.319 44.7004C174.722 43.583 175.299 42.7307 176.052 42.1436C176.81 41.5517 177.719 41.2558 178.779 41.2558C179.84 41.2558 180.747 41.5517 181.5 42.1436C182.257 42.7307 182.835 43.583 183.233 44.7004C183.635 45.8131 183.836 47.1554 183.836 48.7274C183.836 50.3088 183.637 51.6583 183.24 52.7757C182.842 53.8884 182.267 54.7383 181.514 55.3254C180.761 55.9078 179.849 56.199 178.779 56.199ZM178.779 54.6365C179.84 54.6365 180.664 54.1251 181.251 53.1024C181.838 52.0797 182.132 50.6213 182.132 48.7274C182.132 47.4679 181.997 46.3955 181.727 45.5101C181.462 44.6246 181.078 43.9499 180.576 43.4859C180.079 43.0219 179.48 42.7899 178.779 42.7899C177.728 42.7899 176.907 43.3084 176.315 44.3453C175.723 45.3775 175.427 46.8382 175.427 48.7274C175.427 49.9869 175.56 51.0569 175.825 51.9376C176.09 52.8183 176.471 53.4883 176.968 53.9476C177.47 54.4068 178.074 54.6365 178.779 54.6365Z" fill="black"/>
<path d="M191.45 56.199C190.512 56.199 189.677 56.038 188.943 55.716C188.214 55.3941 187.634 54.9466 187.203 54.3737C186.777 53.796 186.545 53.1261 186.507 52.3637H188.296C188.334 52.8325 188.495 53.2373 188.779 53.5782C189.063 53.9144 189.435 54.1748 189.894 54.3595C190.354 54.5441 190.863 54.6365 191.421 54.6365C192.046 54.6365 192.6 54.5276 193.083 54.3098C193.566 54.092 193.945 53.7889 194.22 53.4007C194.494 53.0124 194.632 52.5626 194.632 52.0512C194.632 51.5162 194.499 51.0451 194.234 50.6379C193.969 50.226 193.581 49.904 193.069 49.672C192.558 49.44 191.933 49.324 191.194 49.324H190.029V47.7615H191.194C191.772 47.7615 192.278 47.6573 192.714 47.449C193.154 47.2406 193.498 46.9471 193.744 46.5683C193.995 46.1895 194.12 45.7444 194.12 45.2331C194.12 44.7406 194.011 44.3121 193.794 43.9476C193.576 43.583 193.268 43.2989 192.87 43.0953C192.477 42.8917 192.013 42.7899 191.478 42.7899C190.976 42.7899 190.503 42.8822 190.058 43.0669C189.617 43.2468 189.258 43.5096 188.978 43.8552C188.699 44.1961 188.547 44.6081 188.524 45.091H186.819C186.848 44.3287 187.077 43.6611 187.508 43.0882C187.939 42.5105 188.502 42.0607 189.198 41.7387C189.899 41.4168 190.669 41.2558 191.507 41.2558C192.406 41.2558 193.178 41.4381 193.822 41.8027C194.466 42.1625 194.961 42.6384 195.306 43.2302C195.652 43.8221 195.825 44.4613 195.825 45.1478C195.825 45.967 195.609 46.6654 195.179 47.243C194.752 47.8207 194.172 48.2208 193.438 48.4433V48.5569C194.357 48.7084 195.074 49.0991 195.59 49.7288C196.107 50.3538 196.365 51.128 196.365 52.0512C196.365 52.842 196.149 53.5522 195.718 54.1819C195.292 54.8069 194.71 55.2994 193.971 55.6592C193.233 56.0191 192.392 56.199 191.45 56.199Z" fill="black"/>
<path d="M60.5474 30.9999V20.8181H61.7207V24.5766H61.8201C61.9063 24.444 62.0256 24.275 62.178 24.0695C62.3338 23.8607 62.5559 23.6751 62.8442 23.5127C63.1359 23.347 63.5303 23.2641 64.0275 23.2641C64.6705 23.2641 65.2372 23.4249 65.7278 23.7464C66.2183 24.0679 66.6011 24.5236 66.8762 25.1135C67.1513 25.7035 67.2888 26.3995 67.2888 27.2016C67.2888 28.0103 67.1513 28.7113 66.8762 29.3046C66.6011 29.8946 66.2199 30.3519 65.7327 30.6768C65.2455 30.9983 64.6837 31.159 64.0474 31.159C63.5568 31.159 63.1641 31.0778 62.8691 30.9154C62.5741 30.7497 62.3471 30.5624 62.188 30.3536C62.0289 30.1415 61.9063 29.9658 61.8201 29.8266H61.6809V30.9999H60.5474ZM61.7008 27.1817C61.7008 27.7584 61.7853 28.2672 61.9543 28.708C62.1234 29.1455 62.3703 29.4885 62.6951 29.7371C63.0199 29.9824 63.4176 30.105 63.8883 30.105C64.3788 30.105 64.7881 29.9758 65.1163 29.7172C65.4477 29.4554 65.6963 29.1041 65.862 28.6633C66.031 28.2191 66.1155 27.7253 66.1155 27.1817C66.1155 26.6448 66.0327 26.1609 65.867 25.73C65.7046 25.2958 65.4576 24.9528 65.1262 24.7009C64.7981 24.4457 64.3854 24.3181 63.8883 24.3181C63.411 24.3181 63.01 24.4391 62.6851 24.681C62.3603 24.9197 62.1151 25.2544 61.9494 25.6853C61.7836 26.1128 61.7008 26.6117 61.7008 27.1817Z" fill="#FF485E"/>
<path d="M69.0836 30.9999V23.3635H70.2569V30.9999H69.0836ZM69.6802 22.0908C69.4515 22.0908 69.2543 22.0129 69.0886 21.8572C68.9262 21.7014 68.8449 21.5141 68.8449 21.2954C68.8449 21.0766 68.9262 20.8894 69.0886 20.7336C69.2543 20.5778 69.4515 20.4999 69.6802 20.4999C69.9089 20.4999 70.1044 20.5778 70.2668 20.7336C70.4325 20.8894 70.5154 21.0766 70.5154 21.2954C70.5154 21.5141 70.4325 21.7014 70.2668 21.8572C70.1044 22.0129 69.9089 22.0908 69.6802 22.0908Z" fill="#FF485E"/>
<path d="M72.4059 30.9999V23.3635H73.5394V24.517H73.6189C73.7581 24.1391 74.01 23.8325 74.3746 23.5972C74.7392 23.3619 75.1502 23.2442 75.6076 23.2442C75.6937 23.2442 75.8014 23.2459 75.9307 23.2492C76.06 23.2525 76.1577 23.2575 76.224 23.2641V24.4573C76.1843 24.4474 76.0931 24.4324 75.9506 24.4126C75.8114 24.3894 75.6639 24.3778 75.5081 24.3778C75.1369 24.3778 74.8055 24.4556 74.5138 24.6114C74.2255 24.7639 73.9968 24.976 73.8277 25.2478C73.662 25.5162 73.5791 25.8228 73.5791 26.1675V30.9999H72.4059Z" fill="#FF485E"/>
<path d="M81.4144 23.3635V24.3579H77.457V23.3635H81.4144ZM78.6104 21.534H79.7837V28.8124C79.7837 29.1439 79.8318 29.3924 79.9279 29.5582C80.0273 29.7206 80.1532 29.8299 80.3057 29.8863C80.4615 29.9393 80.6255 29.9658 80.7979 29.9658C80.9272 29.9658 81.0332 29.9592 81.1161 29.9459C81.1989 29.9294 81.2652 29.9161 81.3149 29.9062L81.5536 30.9601C81.474 30.99 81.363 31.0198 81.2205 31.0496C81.078 31.0828 80.8973 31.0993 80.6786 31.0993C80.3471 31.0993 80.0223 31.0281 79.7041 30.8856C79.3893 30.743 79.1274 30.526 78.9186 30.2343C78.7131 29.9426 78.6104 29.5747 78.6104 29.1306V21.534Z" fill="#FF485E"/>
<path d="M84.5166 26.4062V30.9999H83.3434V20.8181H84.5166V24.5567H84.6161C84.7951 24.1623 85.0635 23.8491 85.4215 23.6171C85.7827 23.3818 86.2633 23.2641 86.8632 23.2641C87.3836 23.2641 87.8393 23.3685 88.2304 23.5773C88.6215 23.7828 88.9248 24.0993 89.1402 24.5269C89.359 24.9511 89.4684 25.4914 89.4684 26.1476V30.9999H88.2951V26.2272C88.2951 25.6207 88.1376 25.1517 87.8228 24.8202C87.5112 24.4855 87.0787 24.3181 86.5252 24.3181C86.1407 24.3181 85.796 24.3993 85.4911 24.5617C85.1895 24.7241 84.9508 24.9611 84.7752 25.2726C84.6028 25.5842 84.5166 25.962 84.5166 26.4062Z" fill="#FF485E"/>
<path d="M94.4984 31.159C93.862 31.159 93.3002 30.9983 92.813 30.6768C92.3258 30.3519 91.9446 29.8946 91.6695 29.3046C91.3944 28.7113 91.2569 28.0103 91.2569 27.2016C91.2569 26.3995 91.3944 25.7035 91.6695 25.1135C91.9446 24.5236 92.3274 24.0679 92.818 23.7464C93.3085 23.4249 93.8752 23.2641 94.5182 23.2641C95.0154 23.2641 95.4082 23.347 95.6965 23.5127C95.9882 23.6751 96.2102 23.8607 96.3627 24.0695C96.5185 24.275 96.6395 24.444 96.7256 24.5766H96.8251V20.8181H97.9984V30.9999H96.8648V29.8266H96.7256C96.6395 29.9658 96.5168 30.1415 96.3577 30.3536C96.1986 30.5624 95.9716 30.7497 95.6766 30.9154C95.3816 31.0778 94.9889 31.159 94.4984 31.159ZM94.6574 30.105C95.1281 30.105 95.5258 29.9824 95.8506 29.7371C96.1754 29.4885 96.4224 29.1455 96.5914 28.708C96.7604 28.2672 96.8449 27.7584 96.8449 27.1817C96.8449 26.6117 96.7621 26.1128 96.5964 25.6853C96.4306 25.2544 96.1854 24.9197 95.8606 24.681C95.5358 24.4391 95.1347 24.3181 94.6574 24.3181C94.1603 24.3181 93.746 24.4457 93.4146 24.7009C93.0864 24.9528 92.8395 25.2958 92.6738 25.73C92.5114 26.1609 92.4302 26.6448 92.4302 27.1817C92.4302 27.7253 92.513 28.2191 92.6788 28.6633C92.8478 29.1041 93.0964 29.4554 93.4245 29.7172C93.7559 29.9758 94.1669 30.105 94.6574 30.105Z" fill="#FF485E"/>
<path d="M102.557 31.1789C102.073 31.1789 101.634 31.0877 101.24 30.9055C100.845 30.7198 100.532 30.453 100.3 30.105C100.068 29.7537 99.9522 29.3295 99.9522 28.8323C99.9522 28.3948 100.038 28.0402 100.211 27.7684C100.383 27.4933 100.613 27.2778 100.902 27.1221C101.19 26.9663 101.508 26.8503 101.856 26.7741C102.208 26.6945 102.561 26.6315 102.915 26.5851C103.379 26.5255 103.755 26.4807 104.044 26.4509C104.335 26.4178 104.548 26.3631 104.68 26.2868C104.816 26.2106 104.884 26.078 104.884 25.8891V25.8493C104.884 25.3588 104.75 24.9777 104.481 24.7059C104.216 24.4341 103.813 24.2982 103.273 24.2982C102.713 24.2982 102.274 24.4208 101.956 24.6661C101.638 24.9114 101.414 25.1732 101.285 25.4516L100.171 25.0539C100.37 24.5899 100.635 24.2286 100.966 23.9701C101.301 23.7082 101.666 23.526 102.06 23.4232C102.458 23.3171 102.849 23.2641 103.233 23.2641C103.479 23.2641 103.76 23.2939 104.079 23.3536C104.4 23.4099 104.71 23.5276 105.008 23.7066C105.31 23.8856 105.56 24.1557 105.759 24.517C105.958 24.8782 106.057 25.3621 106.057 25.9687V30.9999H104.884V29.9658H104.824C104.745 30.1315 104.612 30.3089 104.427 30.4978C104.241 30.6867 103.994 30.8475 103.686 30.98C103.378 31.1126 103.001 31.1789 102.557 31.1789ZM102.736 30.1249C103.2 30.1249 103.591 30.0338 103.91 29.8515C104.231 29.6692 104.473 29.4339 104.635 29.1455C104.801 28.8572 104.884 28.5539 104.884 28.2357V27.1618C104.834 27.2215 104.725 27.2762 104.556 27.3259C104.39 27.3723 104.198 27.4137 103.979 27.4502C103.764 27.4833 103.553 27.5132 103.348 27.5397C103.146 27.5629 102.982 27.5828 102.856 27.5993C102.551 27.6391 102.266 27.7037 102 27.7932C101.739 27.8794 101.527 28.0103 101.364 28.186C101.205 28.3583 101.125 28.5937 101.125 28.892C101.125 29.2996 101.276 29.6079 101.578 29.8167C101.883 30.0222 102.269 30.1249 102.736 30.1249Z" fill="#FF485E"/>
<path d="M108.681 33.8635C108.482 33.8635 108.305 33.847 108.149 33.8138C107.993 33.784 107.886 33.7542 107.826 33.7243L108.124 32.6903C108.409 32.7632 108.661 32.7897 108.88 32.7698C109.099 32.7499 109.293 32.6521 109.462 32.4765C109.634 32.3041 109.791 32.0241 109.934 31.6363L110.153 31.0397L107.329 23.3635H108.602L110.709 29.4488H110.789L112.897 23.3635H114.17L110.928 32.1135C110.782 32.508 110.602 32.8344 110.386 33.093C110.171 33.3548 109.921 33.5487 109.636 33.6746C109.354 33.8006 109.036 33.8635 108.681 33.8635Z" fill="#FF485E"/>
<path d="M120.093 26.088V27.1817H115.639V26.088H120.093Z" fill="#FF485E"/>
<path d="M125.558 23.3635V24.3579H121.442V23.3635H125.558ZM122.675 30.9999V22.3096C122.675 21.8721 122.778 21.5075 122.983 21.2158C123.189 20.9242 123.455 20.7054 123.784 20.5596C124.112 20.4137 124.458 20.3408 124.823 20.3408C125.111 20.3408 125.346 20.364 125.529 20.4104C125.711 20.4568 125.847 20.4999 125.936 20.5397L125.598 21.5539C125.538 21.534 125.456 21.5091 125.35 21.4793C125.247 21.4495 125.111 21.4346 124.942 21.4346C124.554 21.4346 124.274 21.5323 124.102 21.7279C123.933 21.9234 123.848 22.2101 123.848 22.588V30.9999H122.675Z" fill="#FF485E"/>
<path d="M129.991 31.159C129.301 31.159 128.696 30.9949 128.176 30.6668C127.659 30.3387 127.255 29.8796 126.963 29.2897C126.674 28.6997 126.53 28.0103 126.53 27.2215C126.53 26.426 126.674 25.7317 126.963 25.1384C127.255 24.5451 127.659 24.0844 128.176 23.7563C128.696 23.4282 129.301 23.2641 129.991 23.2641C130.68 23.2641 131.283 23.4282 131.8 23.7563C132.321 24.0844 132.725 24.5451 133.013 25.1384C133.305 25.7317 133.451 26.426 133.451 27.2215C133.451 28.0103 133.305 28.6997 133.013 29.2897C132.725 29.8796 132.321 30.3387 131.8 30.6668C131.283 30.9949 130.68 31.159 129.991 31.159ZM129.991 30.105C130.514 30.105 130.945 29.9708 131.283 29.7023C131.621 29.4339 131.871 29.0809 132.034 28.6434C132.196 28.2059 132.277 27.7319 132.277 27.2215C132.277 26.7111 132.196 26.2355 132.034 25.7947C131.871 25.3538 131.621 24.9975 131.283 24.7258C130.945 24.454 130.514 24.3181 129.991 24.3181C129.467 24.3181 129.036 24.454 128.698 24.7258C128.36 24.9975 128.11 25.3538 127.947 25.7947C127.785 26.2355 127.704 26.7111 127.704 27.2215C127.704 27.7319 127.785 28.2059 127.947 28.6434C128.11 29.0809 128.36 29.4339 128.698 29.7023C129.036 29.9708 129.467 30.105 129.991 30.105Z" fill="#FF485E"/>
<path d="M135.242 30.9999V23.3635H136.375V24.517H136.455C136.594 24.1391 136.846 23.8325 137.211 23.5972C137.575 23.3619 137.986 23.2442 138.443 23.2442C138.53 23.2442 138.637 23.2459 138.767 23.2492C138.896 23.2525 138.994 23.2575 139.06 23.2641V24.4573C139.02 24.4474 138.929 24.4324 138.787 24.4126C138.647 24.3894 138.5 24.3778 138.344 24.3778C137.973 24.3778 137.641 24.4556 137.35 24.6114C137.061 24.7639 136.833 24.976 136.664 25.2478C136.498 25.5162 136.415 25.8228 136.415 26.1675V30.9999H135.242Z" fill="#FF485E"/>
<path d="M140.451 30.9999V23.3635H141.584V24.5567H141.684C141.843 24.1491 142.1 23.8325 142.454 23.6072C142.809 23.3785 143.235 23.2641 143.732 23.2641C144.236 23.2641 144.655 23.3785 144.99 23.6072C145.328 23.8325 145.591 24.1491 145.78 24.5567H145.86C146.055 24.1623 146.349 23.8491 146.74 23.6171C147.131 23.3818 147.6 23.2641 148.147 23.2641C148.83 23.2641 149.388 23.4779 149.822 23.9055C150.256 24.3297 150.473 24.9909 150.473 25.8891V30.9999H149.3V25.8891C149.3 25.3257 149.146 24.923 148.838 24.681C148.53 24.4391 148.167 24.3181 147.749 24.3181C147.212 24.3181 146.796 24.4805 146.501 24.8053C146.206 25.1268 146.059 25.5345 146.059 26.0283V30.9999H144.866V25.7698C144.866 25.3356 144.725 24.9859 144.443 24.7208C144.161 24.4523 143.798 24.3181 143.354 24.3181C143.049 24.3181 142.764 24.3993 142.499 24.5617C142.237 24.7241 142.025 24.9495 141.863 25.2378C141.704 25.5229 141.624 25.8527 141.624 26.2272V30.9999H140.451Z" fill="#FF485E"/>
<path d="M156.994 26.088V27.1817H152.539V26.088H156.994Z" fill="#FF485E"/>
<path d="M158.56 30.9999V30.105L161.921 26.426C162.315 25.9952 162.64 25.6207 162.895 25.3025C163.15 24.981 163.339 24.6794 163.462 24.3976C163.588 24.1126 163.651 23.8143 163.651 23.5028C163.651 23.1448 163.565 22.8349 163.392 22.5731C163.223 22.3112 162.991 22.109 162.696 21.9665C162.401 21.824 162.07 21.7528 161.702 21.7528C161.311 21.7528 160.969 21.834 160.678 21.9964C160.389 22.1555 160.166 22.3792 160.007 22.6675C159.851 22.9559 159.773 23.2939 159.773 23.6817H158.6C158.6 23.0851 158.737 22.5615 159.012 22.1107C159.287 21.6599 159.662 21.3086 160.136 21.0567C160.613 20.8048 161.148 20.6789 161.742 20.6789C162.338 20.6789 162.867 20.8048 163.328 21.0567C163.788 21.3086 164.15 21.6483 164.411 22.0759C164.673 22.5035 164.804 22.9791 164.804 23.5028C164.804 23.8773 164.736 24.2435 164.6 24.6015C164.468 24.9561 164.236 25.3522 163.904 25.7897C163.576 26.2239 163.12 26.7542 162.537 27.3806L160.25 29.8266V29.9062H164.983V30.9999H158.56Z" fill="#FF485E"/>
<path d="M170.357 31.1391C169.608 31.1391 168.97 30.9353 168.443 30.5276C167.916 30.1166 167.514 29.5217 167.235 28.7428C166.957 27.9606 166.818 27.016 166.818 25.909C166.818 24.8086 166.957 23.869 167.235 23.0901C167.517 22.3079 167.921 21.7113 168.448 21.3003C168.979 20.886 169.615 20.6789 170.357 20.6789C171.1 20.6789 171.735 20.886 172.261 21.3003C172.792 21.7113 173.196 22.3079 173.475 23.0901C173.756 23.869 173.897 24.8086 173.897 25.909C173.897 27.016 173.758 27.9606 173.48 28.7428C173.201 29.5217 172.798 30.1166 172.271 30.5276C171.744 30.9353 171.106 31.1391 170.357 31.1391ZM170.357 30.0454C171.1 30.0454 171.677 29.6874 172.087 28.9715C172.498 28.2556 172.704 27.2348 172.704 25.909C172.704 25.0274 172.61 24.2767 172.421 23.6569C172.235 23.0371 171.967 22.5648 171.615 22.24C171.267 21.9152 170.848 21.7528 170.357 21.7528C169.622 21.7528 169.047 22.1157 168.632 22.8415C168.218 23.5641 168.011 24.5866 168.011 25.909C168.011 26.7906 168.104 27.5397 168.289 28.1562C168.475 28.7726 168.742 29.2416 169.09 29.5631C169.441 29.8846 169.864 30.0454 170.357 30.0454Z" fill="#FF485E"/>
<path d="M175.786 30.9999V30.105L179.147 26.426C179.542 25.9952 179.866 25.6207 180.122 25.3025C180.377 24.981 180.566 24.6794 180.688 24.3976C180.814 24.1126 180.877 23.8143 180.877 23.5028C180.877 23.1448 180.791 22.8349 180.619 22.5731C180.45 22.3112 180.218 22.109 179.923 21.9665C179.628 21.824 179.296 21.7528 178.928 21.7528C178.537 21.7528 178.196 21.834 177.904 21.9964C177.616 22.1555 177.392 22.3792 177.233 22.6675C177.077 22.9559 176.999 23.2939 176.999 23.6817H175.826C175.826 23.0851 175.964 22.5615 176.239 22.1107C176.514 21.6599 176.888 21.3086 177.362 21.0567C177.84 20.8048 178.375 20.6789 178.968 20.6789C179.565 20.6789 180.093 20.8048 180.554 21.0567C181.015 21.3086 181.376 21.6483 181.638 22.0759C181.9 22.5035 182.031 22.9791 182.031 23.5028C182.031 23.8773 181.963 24.2435 181.827 24.6015C181.694 24.9561 181.462 25.3522 181.131 25.7897C180.803 26.2239 180.347 26.7542 179.764 27.3806L177.477 29.8266V29.9062H182.21V30.9999H175.786Z" fill="#FF485E"/>
<path d="M184.263 30.9999V30.105L187.624 26.426C188.018 25.9952 188.343 25.6207 188.598 25.3025C188.853 24.981 189.042 24.6794 189.165 24.3976C189.291 24.1126 189.354 23.8143 189.354 23.5028C189.354 23.1448 189.268 22.8349 189.095 22.5731C188.926 22.3112 188.694 22.109 188.399 21.9665C188.104 21.824 187.773 21.7528 187.405 21.7528C187.014 21.7528 186.672 21.834 186.381 21.9964C186.092 22.1555 185.869 22.3792 185.71 22.6675C185.554 22.9559 185.476 23.2939 185.476 23.6817H184.303C184.303 23.0851 184.44 22.5615 184.715 22.1107C184.99 21.6599 185.365 21.3086 185.839 21.0567C186.316 20.8048 186.851 20.6789 187.445 20.6789C188.041 20.6789 188.57 20.8048 189.031 21.0567C189.491 21.3086 189.853 21.6483 190.114 22.0759C190.376 22.5035 190.507 22.9791 190.507 23.5028C190.507 23.8773 190.439 24.2435 190.303 24.6015C190.171 24.9561 189.939 25.3522 189.607 25.7897C189.279 26.2239 188.824 26.7542 188.24 27.3806L185.953 29.8266V29.9062H190.686V30.9999H184.263Z" fill="#FF485E"/>
<path d="M52.5605 226V224.722L57.3617 219.466C57.9251 218.85 58.3891 218.315 58.7537 217.861C59.1183 217.402 59.3882 216.971 59.5634 216.568C59.7433 216.161 59.8333 215.735 59.8333 215.29C59.8333 214.779 59.7102 214.336 59.464 213.962C59.2225 213.588 58.891 213.299 58.4696 213.095C58.0482 212.892 57.5748 212.79 57.0492 212.79C56.4905 212.79 56.0028 212.906 55.5861 213.138C55.1742 213.365 54.8546 213.685 54.6273 214.097C54.4048 214.509 54.2935 214.992 54.2935 215.546H52.6174C52.6174 214.693 52.8139 213.945 53.2069 213.301C53.5998 212.657 54.1349 212.155 54.812 211.796C55.4938 211.436 56.2585 211.256 57.106 211.256C57.9583 211.256 58.7135 211.436 59.3716 211.796C60.0298 212.155 60.5459 212.641 60.9199 213.252C61.294 213.862 61.481 214.542 61.481 215.29C61.481 215.825 61.3839 216.348 61.1898 216.859C61.0004 217.366 60.669 217.932 60.1955 218.557C59.7267 219.177 59.0757 219.935 58.2424 220.83L54.9753 224.324V224.438H61.7367V226H52.5605Z" fill="black"/>
<path d="M65.9199 226.114C65.5695 226.114 65.2689 225.988 65.0179 225.737C64.767 225.486 64.6415 225.186 64.6415 224.835C64.6415 224.485 64.767 224.184 65.0179 223.933C65.2689 223.682 65.5695 223.557 65.9199 223.557C66.2703 223.557 66.571 223.682 66.8219 223.933C67.0729 224.184 67.1983 224.485 67.1983 224.835C67.1983 225.067 67.1391 225.28 67.0208 225.475C66.9071 225.669 66.7533 225.825 66.5591 225.943C66.3697 226.057 66.1567 226.114 65.9199 226.114Z" fill="black"/>
<path d="M73.5531 211.455V226H71.7917V213.301H71.7065L68.1554 215.659V213.869L71.7917 211.455H73.5531Z" fill="black"/>
<path d="M78.127 226.114C77.7766 226.114 77.4759 225.988 77.225 225.737C76.974 225.486 76.8485 225.186 76.8485 224.835C76.8485 224.485 76.974 224.184 77.225 223.933C77.4759 223.682 77.7766 223.557 78.127 223.557C78.4773 223.557 78.778 223.682 79.0289 223.933C79.2799 224.184 79.4054 224.485 79.4054 224.835C79.4054 225.067 79.3462 225.28 79.2278 225.475C79.1142 225.669 78.9603 225.825 78.7662 225.943C78.5768 226.057 78.3637 226.114 78.127 226.114Z" fill="black"/>
<path d="M82.3848 226V224.722L87.1859 219.466C87.7494 218.85 88.2134 218.315 88.5779 217.861C88.9425 217.402 89.2124 216.971 89.3876 216.568C89.5675 216.161 89.6575 215.735 89.6575 215.29C89.6575 214.779 89.5344 214.336 89.2882 213.962C89.0467 213.588 88.7153 213.299 88.2939 213.095C87.8725 212.892 87.399 212.79 86.8734 212.79C86.3147 212.79 85.827 212.906 85.4103 213.138C84.9984 213.365 84.6788 213.685 84.4515 214.097C84.229 214.509 84.1177 214.992 84.1177 215.546H82.4416C82.4416 214.693 82.6381 213.945 83.0311 213.301C83.4241 212.657 83.9591 212.155 84.6362 211.796C85.318 211.436 86.0827 211.256 86.9302 211.256C87.7825 211.256 88.5377 211.436 89.1958 211.796C89.854 212.155 90.3701 212.641 90.7441 213.252C91.1182 213.862 91.3052 214.542 91.3052 215.29C91.3052 215.825 91.2082 216.348 91.014 216.859C90.8246 217.366 90.4932 217.932 90.0197 218.557C89.551 219.177 88.8999 219.935 88.0666 220.83L84.7995 224.324V224.438H91.5609V226H82.3848Z" fill="black"/>
<path d="M99.2385 226.199C98.1684 226.199 97.2569 225.908 96.5041 225.325C95.7512 224.738 95.176 223.888 94.7782 222.776C94.3805 221.658 94.1816 220.309 94.1816 218.727C94.1816 217.155 94.3805 215.813 94.7782 214.7C95.1807 213.583 95.7583 212.731 96.5112 212.144C97.2688 211.552 98.1779 211.256 99.2385 211.256C100.299 211.256 101.206 211.552 101.959 212.144C102.716 212.731 103.294 213.583 103.692 214.7C104.094 215.813 104.295 217.155 104.295 218.727C104.295 220.309 104.096 221.658 103.699 222.776C103.301 223.888 102.726 224.738 101.973 225.325C101.22 225.908 100.309 226.199 99.2385 226.199ZM99.2385 224.636C100.299 224.636 101.123 224.125 101.71 223.102C102.297 222.08 102.591 220.621 102.591 218.727C102.591 217.468 102.456 216.395 102.186 215.51C101.921 214.625 101.537 213.95 101.035 213.486C100.538 213.022 99.9392 212.79 99.2385 212.79C98.1873 212.79 97.3658 213.308 96.774 214.345C96.1821 215.377 95.8862 216.838 95.8862 218.727C95.8862 219.987 96.0188 221.057 96.2839 221.938C96.5491 222.818 96.9302 223.488 97.4274 223.948C97.9293 224.407 98.533 224.636 99.2385 224.636Z" fill="black"/>
<path d="M106.994 226V224.722L111.795 219.466C112.359 218.85 112.823 218.315 113.187 217.861C113.552 217.402 113.822 216.971 113.997 216.568C114.177 216.161 114.267 215.735 114.267 215.29C114.267 214.779 114.144 214.336 113.898 213.962C113.656 213.588 113.325 213.299 112.903 213.095C112.482 212.892 112.008 212.79 111.483 212.79C110.924 212.79 110.436 212.906 110.02 213.138C109.608 213.365 109.288 213.685 109.061 214.097C108.838 214.509 108.727 214.992 108.727 215.546H107.051C107.051 214.693 107.247 213.945 107.64 213.301C108.033 212.657 108.568 212.155 109.246 211.796C109.927 211.436 110.692 211.256 111.54 211.256C112.392 211.256 113.147 211.436 113.805 211.796C114.463 212.155 114.979 212.641 115.354 213.252C115.728 213.862 115.915 214.542 115.915 215.29C115.915 215.825 115.818 216.348 115.623 216.859C115.434 217.366 115.103 217.932 114.629 218.557C114.16 219.177 113.509 219.935 112.676 220.83L109.409 224.324V224.438H116.17V226H106.994Z" fill="black"/>
<path d="M124.018 226.199C123.081 226.199 122.245 226.038 121.511 225.716C120.782 225.394 120.202 224.947 119.771 224.374C119.345 223.796 119.113 223.126 119.075 222.364H120.865C120.903 222.832 121.064 223.237 121.348 223.578C121.632 223.914 122.004 224.175 122.463 224.359C122.922 224.544 123.431 224.636 123.99 224.636C124.615 224.636 125.169 224.528 125.652 224.31C126.135 224.092 126.514 223.789 126.788 223.401C127.063 223.012 127.2 222.563 127.2 222.051C127.2 221.516 127.068 221.045 126.802 220.638C126.537 220.226 126.149 219.904 125.638 219.672C125.126 219.44 124.501 219.324 123.763 219.324H122.598V217.761H123.763C124.34 217.761 124.847 217.657 125.282 217.449C125.723 217.241 126.066 216.947 126.312 216.568C126.563 216.19 126.689 215.744 126.689 215.233C126.689 214.741 126.58 214.312 126.362 213.948C126.144 213.583 125.836 213.299 125.439 213.095C125.046 212.892 124.582 212.79 124.047 212.79C123.545 212.79 123.071 212.882 122.626 213.067C122.186 213.247 121.826 213.51 121.547 213.855C121.267 214.196 121.116 214.608 121.092 215.091H119.388C119.416 214.329 119.646 213.661 120.077 213.088C120.507 212.511 121.071 212.061 121.767 211.739C122.468 211.417 123.237 211.256 124.075 211.256C124.975 211.256 125.747 211.438 126.39 211.803C127.034 212.163 127.529 212.638 127.875 213.23C128.22 213.822 128.393 214.461 128.393 215.148C128.393 215.967 128.178 216.665 127.747 217.243C127.321 217.821 126.741 218.221 126.007 218.443V218.557C126.925 218.708 127.643 219.099 128.159 219.729C128.675 220.354 128.933 221.128 128.933 222.051C128.933 222.842 128.718 223.552 128.287 224.182C127.861 224.807 127.278 225.299 126.54 225.659C125.801 226.019 124.961 226.199 124.018 226.199Z" fill="black"/>
<path d="M138.116 217.946V219.509H131.753V217.946H138.116Z" fill="black"/>
<path d="M145.781 226.199C144.711 226.199 143.8 225.908 143.047 225.325C142.294 224.738 141.719 223.888 141.321 222.776C140.923 221.658 140.725 220.309 140.725 218.727C140.725 217.155 140.923 215.813 141.321 214.7C141.724 213.583 142.301 212.731 143.054 212.144C143.812 211.552 144.721 211.256 145.781 211.256C146.842 211.256 147.749 211.552 148.502 212.144C149.259 212.731 149.837 213.583 150.235 214.7C150.637 215.813 150.838 217.155 150.838 218.727C150.838 220.309 150.639 221.658 150.242 222.776C149.844 223.888 149.269 224.738 148.516 225.325C147.763 225.908 146.852 226.199 145.781 226.199ZM145.781 224.636C146.842 224.636 147.666 224.125 148.253 223.102C148.84 222.08 149.134 220.621 149.134 218.727C149.134 217.468 148.999 216.395 148.729 215.51C148.464 214.625 148.08 213.95 147.578 213.486C147.081 213.022 146.482 212.79 145.781 212.79C144.73 212.79 143.909 213.308 143.317 214.345C142.725 215.377 142.429 216.838 142.429 218.727C142.429 219.987 142.562 221.057 142.827 221.938C143.092 222.818 143.473 223.488 143.97 223.948C144.472 224.407 145.076 224.636 145.781 224.636Z" fill="black"/>
<path d="M158.168 211.256C158.764 211.261 159.361 211.374 159.958 211.597C160.554 211.819 161.099 212.189 161.591 212.705C162.084 213.216 162.479 213.914 162.777 214.8C163.075 215.685 163.225 216.796 163.225 218.131C163.225 219.423 163.101 220.572 162.855 221.575C162.614 222.574 162.263 223.417 161.804 224.104C161.35 224.79 160.796 225.311 160.142 225.666C159.494 226.021 158.76 226.199 157.941 226.199C157.126 226.199 156.399 226.038 155.76 225.716C155.126 225.389 154.605 224.937 154.198 224.359C153.795 223.777 153.537 223.102 153.423 222.335H155.156C155.313 223.003 155.623 223.555 156.087 223.99C156.556 224.421 157.173 224.636 157.941 224.636C159.063 224.636 159.948 224.146 160.597 223.166C161.25 222.186 161.577 220.801 161.577 219.011H161.463C161.198 219.409 160.883 219.752 160.519 220.041C160.154 220.33 159.749 220.553 159.304 220.709C158.859 220.865 158.386 220.943 157.884 220.943C157.05 220.943 156.286 220.737 155.59 220.325C154.898 219.909 154.344 219.338 153.928 218.614C153.516 217.885 153.31 217.051 153.31 216.114C153.31 215.224 153.509 214.409 153.906 213.671C154.309 212.927 154.872 212.335 155.597 211.895C156.326 211.455 157.183 211.242 158.168 211.256ZM158.168 212.818C157.571 212.818 157.034 212.967 156.556 213.266C156.082 213.559 155.706 213.957 155.426 214.459C155.152 214.956 155.014 215.508 155.014 216.114C155.014 216.72 155.147 217.271 155.412 217.769C155.682 218.261 156.049 218.654 156.513 218.948C156.982 219.236 157.514 219.381 158.111 219.381C158.561 219.381 158.98 219.293 159.368 219.118C159.756 218.938 160.095 218.694 160.384 218.386C160.677 218.074 160.907 217.721 161.073 217.328C161.238 216.931 161.321 216.516 161.321 216.085C161.321 215.517 161.184 214.984 160.909 214.487C160.639 213.99 160.265 213.588 159.787 213.28C159.314 212.972 158.774 212.818 158.168 212.818Z" fill="black"/>
<path d="M172.296 217.946V219.509H165.932V217.946H172.296Z" fill="black"/>
<path d="M179.961 226.199C178.891 226.199 177.98 225.908 177.227 225.325C176.474 224.738 175.899 223.888 175.501 222.776C175.103 221.658 174.904 220.309 174.904 218.727C174.904 217.155 175.103 215.813 175.501 214.7C175.903 213.583 176.481 212.731 177.234 212.144C177.991 211.552 178.901 211.256 179.961 211.256C181.022 211.256 181.928 211.552 182.681 212.144C183.439 212.731 184.017 213.583 184.414 214.7C184.817 215.813 185.018 217.155 185.018 218.727C185.018 220.309 184.819 221.658 184.421 222.776C184.024 223.888 183.448 224.738 182.695 225.325C181.943 225.908 181.031 226.199 179.961 226.199ZM179.961 224.636C181.022 224.636 181.846 224.125 182.433 223.102C183.02 222.08 183.313 220.621 183.313 218.727C183.313 217.468 183.178 216.395 182.909 215.51C182.643 214.625 182.26 213.95 181.758 213.486C181.261 213.022 180.662 212.79 179.961 212.79C178.91 212.79 178.088 213.308 177.497 214.345C176.905 215.377 176.609 216.838 176.609 218.727C176.609 219.987 176.741 221.057 177.007 221.938C177.272 222.818 177.653 223.488 178.15 223.948C178.652 224.407 179.256 224.636 179.961 224.636Z" fill="black"/>
<path d="M192.632 226.199C191.694 226.199 190.858 226.038 190.124 225.716C189.395 225.394 188.815 224.947 188.384 224.374C187.958 223.796 187.726 223.126 187.688 222.364H189.478C189.516 222.832 189.677 223.237 189.961 223.578C190.245 223.914 190.617 224.175 191.076 224.359C191.535 224.544 192.044 224.636 192.603 224.636C193.228 224.636 193.782 224.528 194.265 224.31C194.748 224.092 195.127 223.789 195.401 223.401C195.676 223.012 195.813 222.563 195.813 222.051C195.813 221.516 195.681 221.045 195.416 220.638C195.151 220.226 194.762 219.904 194.251 219.672C193.74 219.44 193.115 219.324 192.376 219.324H191.211V217.761H192.376C192.954 217.761 193.46 217.657 193.896 217.449C194.336 217.241 194.679 216.947 194.926 216.568C195.177 216.19 195.302 215.744 195.302 215.233C195.302 214.741 195.193 214.312 194.975 213.948C194.758 213.583 194.45 213.299 194.052 213.095C193.659 212.892 193.195 212.79 192.66 212.79C192.158 212.79 191.685 212.882 191.24 213.067C190.799 213.247 190.439 213.51 190.16 213.855C189.881 214.196 189.729 214.608 189.705 215.091H188.001C188.029 214.329 188.259 213.661 188.69 213.088C189.121 212.511 189.684 212.061 190.38 211.739C191.081 211.417 191.85 211.256 192.688 211.256C193.588 211.256 194.36 211.438 195.004 211.803C195.648 212.163 196.142 212.638 196.488 213.23C196.834 213.822 197.007 214.461 197.007 215.148C197.007 215.967 196.791 216.665 196.36 217.243C195.934 217.821 195.354 218.221 194.62 218.443V218.557C195.539 218.708 196.256 219.099 196.772 219.729C197.288 220.354 197.546 221.128 197.546 222.051C197.546 222.842 197.331 223.552 196.9 224.182C196.474 224.807 195.892 225.299 195.153 225.659C194.414 226.019 193.574 226.199 192.632 226.199Z" fill="black"/>
<path d="M60.3286 201V190.818H61.5019V194.577H61.6013C61.6875 194.444 61.8068 194.275 61.9593 194.07C62.1151 193.861 62.3371 193.675 62.6255 193.513C62.9172 193.347 63.3116 193.264 63.8087 193.264C64.4517 193.264 65.0185 193.425 65.509 193.746C65.9995 194.068 66.3824 194.524 66.6574 195.114C66.9325 195.704 67.0701 196.4 67.0701 197.202C67.0701 198.01 66.9325 198.711 66.6574 199.305C66.3824 199.895 66.0012 200.352 65.514 200.677C65.0268 200.998 64.465 201.159 63.8286 201.159C63.3381 201.159 62.9453 201.078 62.6503 200.915C62.3554 200.75 62.1283 200.562 61.9692 200.354C61.8101 200.141 61.6875 199.966 61.6013 199.827H61.4621V201H60.3286ZM61.482 197.182C61.482 197.758 61.5665 198.267 61.7356 198.708C61.9046 199.146 62.1515 199.489 62.4763 199.737C62.8012 199.982 63.1989 200.105 63.6695 200.105C64.1601 200.105 64.5694 199.976 64.8975 199.717C65.2289 199.455 65.4775 199.104 65.6432 198.663C65.8123 198.219 65.8968 197.725 65.8968 197.182C65.8968 196.645 65.8139 196.161 65.6482 195.73C65.4858 195.296 65.2389 194.953 64.9074 194.701C64.5793 194.446 64.1667 194.318 63.6695 194.318C63.1922 194.318 62.7912 194.439 62.4664 194.681C62.1416 194.92 61.8963 195.254 61.7306 195.685C61.5649 196.113 61.482 196.612 61.482 197.182Z" fill="#FF485E"/>
<path d="M68.8648 201V193.364H70.0381V201H68.8648ZM69.4614 192.091C69.2327 192.091 69.0355 192.013 68.8698 191.857C68.7074 191.701 68.6262 191.514 68.6262 191.295C68.6262 191.077 68.7074 190.889 68.8698 190.734C69.0355 190.578 69.2327 190.5 69.4614 190.5C69.6901 190.5 69.8857 190.578 70.0481 190.734C70.2138 190.889 70.2967 191.077 70.2967 191.295C70.2967 191.514 70.2138 191.701 70.0481 191.857C69.8857 192.013 69.6901 192.091 69.4614 192.091Z" fill="#FF485E"/>
<path d="M72.1871 201V193.364H73.3206V194.517H73.4002C73.5394 194.139 73.7913 193.833 74.1559 193.597C74.5204 193.362 74.9314 193.244 75.3888 193.244C75.475 193.244 75.5827 193.246 75.712 193.249C75.8412 193.253 75.939 193.257 76.0053 193.264V194.457C75.9655 194.447 75.8744 194.432 75.7318 194.413C75.5926 194.389 75.4451 194.378 75.2894 194.378C74.9182 194.378 74.5867 194.456 74.2951 194.611C74.0067 194.764 73.778 194.976 73.609 195.248C73.4433 195.516 73.3604 195.823 73.3604 196.168V201H72.1871Z" fill="#FF485E"/>
<path d="M81.1956 193.364V194.358H77.2382V193.364H81.1956ZM78.3916 191.534H79.5649V198.812C79.5649 199.144 79.613 199.392 79.7091 199.558C79.8085 199.721 79.9345 199.83 80.087 199.886C80.2427 199.939 80.4068 199.966 80.5791 199.966C80.7084 199.966 80.8145 199.959 80.8973 199.946C80.9802 199.929 81.0465 199.916 81.0962 199.906L81.3348 200.96C81.2553 200.99 81.1443 201.02 81.0017 201.05C80.8592 201.083 80.6786 201.099 80.4598 201.099C80.1284 201.099 79.8036 201.028 79.4854 200.886C79.1705 200.743 78.9087 200.526 78.6999 200.234C78.4944 199.943 78.3916 199.575 78.3916 199.131V191.534Z" fill="#FF485E"/>
<path d="M84.2979 196.406V201H83.1246V190.818H84.2979V194.557H84.3973C84.5763 194.162 84.8448 193.849 85.2027 193.617C85.564 193.382 86.0446 193.264 86.6445 193.264C87.1648 193.264 87.6206 193.369 88.0117 193.577C88.4028 193.783 88.706 194.099 88.9215 194.527C89.1402 194.951 89.2496 195.491 89.2496 196.148V201H88.0763V196.227C88.0763 195.621 87.9189 195.152 87.604 194.82C87.2925 194.485 86.8599 194.318 86.3064 194.318C85.9219 194.318 85.5773 194.399 85.2723 194.562C84.9707 194.724 84.7321 194.961 84.5564 195.273C84.3841 195.584 84.2979 195.962 84.2979 196.406Z" fill="#FF485E"/>
<path d="M94.2796 201.159C93.6432 201.159 93.0815 200.998 92.5942 200.677C92.107 200.352 91.7259 199.895 91.4508 199.305C91.1757 198.711 91.0381 198.01 91.0381 197.202C91.0381 196.4 91.1757 195.704 91.4508 195.114C91.7259 194.524 92.1087 194.068 92.5992 193.746C93.0897 193.425 93.6565 193.264 94.2995 193.264C94.7967 193.264 95.1894 193.347 95.4778 193.513C95.7694 193.675 95.9915 193.861 96.144 194.07C96.2997 194.275 96.4207 194.444 96.5069 194.577H96.6063V190.818H97.7796V201H96.6461V199.827H96.5069C96.4207 199.966 96.2981 200.141 96.139 200.354C95.9799 200.562 95.7529 200.75 95.4579 200.915C95.1629 201.078 94.7701 201.159 94.2796 201.159ZM94.4387 200.105C94.9093 200.105 95.3071 199.982 95.6319 199.737C95.9567 199.489 96.2036 199.146 96.3726 198.708C96.5417 198.267 96.6262 197.758 96.6262 197.182C96.6262 196.612 96.5433 196.113 96.3776 195.685C96.2119 195.254 95.9666 194.92 95.6418 194.681C95.317 194.439 94.916 194.318 94.4387 194.318C93.9415 194.318 93.5272 194.446 93.1958 194.701C92.8677 194.953 92.6208 195.296 92.455 195.73C92.2926 196.161 92.2114 196.645 92.2114 197.182C92.2114 197.725 92.2943 198.219 92.46 198.663C92.629 199.104 92.8776 199.455 93.2057 199.717C93.5372 199.976 93.9482 200.105 94.4387 200.105Z" fill="#FF485E"/>
<path d="M102.339 201.179C101.855 201.179 101.415 201.088 101.021 200.905C100.627 200.72 100.313 200.453 100.081 200.105C99.8494 199.754 99.7334 199.329 99.7334 198.832C99.7334 198.395 99.8196 198.04 99.992 197.768C100.164 197.493 100.395 197.278 100.683 197.122C100.971 196.966 101.29 196.85 101.638 196.774C101.989 196.695 102.342 196.632 102.697 196.585C103.161 196.525 103.537 196.481 103.825 196.451C104.117 196.418 104.329 196.363 104.461 196.287C104.597 196.211 104.665 196.078 104.665 195.889V195.849C104.665 195.359 104.531 194.978 104.263 194.706C103.997 194.434 103.595 194.298 103.054 194.298C102.494 194.298 102.055 194.421 101.737 194.666C101.419 194.911 101.195 195.173 101.066 195.452L99.9522 195.054C100.151 194.59 100.416 194.229 100.748 193.97C101.082 193.708 101.447 193.526 101.841 193.423C102.239 193.317 102.63 193.264 103.015 193.264C103.26 193.264 103.542 193.294 103.86 193.354C104.181 193.41 104.491 193.528 104.79 193.707C105.091 193.886 105.341 194.156 105.54 194.517C105.739 194.878 105.839 195.362 105.839 195.969V201H104.665V199.966H104.606C104.526 200.132 104.393 200.309 104.208 200.498C104.022 200.687 103.775 200.847 103.467 200.98C103.159 201.113 102.783 201.179 102.339 201.179ZM102.518 200.125C102.982 200.125 103.373 200.034 103.691 199.851C104.012 199.669 104.254 199.434 104.417 199.146C104.582 198.857 104.665 198.554 104.665 198.236V197.162C104.616 197.222 104.506 197.276 104.337 197.326C104.171 197.372 103.979 197.414 103.76 197.45C103.545 197.483 103.335 197.513 103.129 197.54C102.927 197.563 102.763 197.583 102.637 197.599C102.332 197.639 102.047 197.704 101.782 197.793C101.52 197.879 101.308 198.01 101.145 198.186C100.986 198.358 100.907 198.594 100.907 198.892C100.907 199.3 101.058 199.608 101.359 199.817C101.664 200.022 102.05 200.125 102.518 200.125Z" fill="#FF485E"/>
<path d="M108.462 203.864C108.263 203.864 108.086 203.847 107.93 203.814C107.775 203.784 107.667 203.754 107.607 203.724L107.905 202.69C108.191 202.763 108.442 202.79 108.661 202.77C108.88 202.75 109.074 202.652 109.243 202.476C109.415 202.304 109.573 202.024 109.715 201.636L109.934 201.04L107.11 193.364H108.383L110.491 199.449H110.57L112.678 193.364H113.951L110.709 202.114C110.564 202.508 110.383 202.834 110.168 203.093C109.952 203.355 109.702 203.549 109.417 203.675C109.135 203.801 108.817 203.864 108.462 203.864Z" fill="#FF485E"/>
<path d="M119.875 196.088V197.182H115.42V196.088H119.875Z" fill="#FF485E"/>
<path d="M125.34 193.364V194.358H121.223V193.364H125.34ZM122.456 201V192.31C122.456 191.872 122.559 191.507 122.764 191.216C122.97 190.924 123.237 190.705 123.565 190.56C123.893 190.414 124.239 190.341 124.604 190.341C124.892 190.341 125.127 190.364 125.31 190.41C125.492 190.457 125.628 190.5 125.717 190.54L125.379 191.554C125.32 191.534 125.237 191.509 125.131 191.479C125.028 191.449 124.892 191.435 124.723 191.435C124.335 191.435 124.055 191.532 123.883 191.728C123.714 191.923 123.629 192.21 123.629 192.588V201H122.456Z" fill="#FF485E"/>
<path d="M129.772 201.159C129.082 201.159 128.478 200.995 127.957 200.667C127.44 200.339 127.036 199.88 126.744 199.29C126.456 198.7 126.312 198.01 126.312 197.222C126.312 196.426 126.456 195.732 126.744 195.138C127.036 194.545 127.44 194.084 127.957 193.756C128.478 193.428 129.082 193.264 129.772 193.264C130.461 193.264 131.064 193.428 131.581 193.756C132.102 194.084 132.506 194.545 132.795 195.138C133.086 195.732 133.232 196.426 133.232 197.222C133.232 198.01 133.086 198.7 132.795 199.29C132.506 199.88 132.102 200.339 131.581 200.667C131.064 200.995 130.461 201.159 129.772 201.159ZM129.772 200.105C130.295 200.105 130.726 199.971 131.064 199.702C131.402 199.434 131.653 199.081 131.815 198.643C131.978 198.206 132.059 197.732 132.059 197.222C132.059 196.711 131.978 196.235 131.815 195.795C131.653 195.354 131.402 194.998 131.064 194.726C130.726 194.454 130.295 194.318 129.772 194.318C129.248 194.318 128.817 194.454 128.479 194.726C128.141 194.998 127.891 195.354 127.728 195.795C127.566 196.235 127.485 196.711 127.485 197.222C127.485 197.732 127.566 198.206 127.728 198.643C127.891 199.081 128.141 199.434 128.479 199.702C128.817 199.971 129.248 200.105 129.772 200.105Z" fill="#FF485E"/>
<path d="M135.023 201V193.364H136.157V194.517H136.236C136.375 194.139 136.627 193.833 136.992 193.597C137.356 193.362 137.767 193.244 138.225 193.244C138.311 193.244 138.419 193.246 138.548 193.249C138.677 193.253 138.775 193.257 138.841 193.264V194.457C138.801 194.447 138.71 194.432 138.568 194.413C138.429 194.389 138.281 194.378 138.125 194.378C137.754 194.378 137.423 194.456 137.131 194.611C136.843 194.764 136.614 194.976 136.445 195.248C136.279 195.516 136.196 195.823 136.196 196.168V201H135.023Z" fill="#FF485E"/>
<path d="M140.232 201V193.364H141.366V194.557H141.465C141.624 194.149 141.881 193.833 142.236 193.607C142.59 193.378 143.016 193.264 143.513 193.264C144.017 193.264 144.436 193.378 144.771 193.607C145.109 193.833 145.373 194.149 145.562 194.557H145.641C145.837 194.162 146.13 193.849 146.521 193.617C146.912 193.382 147.381 193.264 147.928 193.264C148.611 193.264 149.169 193.478 149.603 193.905C150.038 194.33 150.255 194.991 150.255 195.889V201H149.081V195.889C149.081 195.326 148.927 194.923 148.619 194.681C148.311 194.439 147.948 194.318 147.53 194.318C146.993 194.318 146.577 194.48 146.282 194.805C145.987 195.127 145.84 195.534 145.84 196.028V201H144.647V195.77C144.647 195.336 144.506 194.986 144.224 194.721C143.942 194.452 143.58 194.318 143.135 194.318C142.831 194.318 142.545 194.399 142.28 194.562C142.018 194.724 141.806 194.949 141.644 195.238C141.485 195.523 141.405 195.853 141.405 196.227V201H140.232Z" fill="#FF485E"/>
<path d="M156.775 196.088V197.182H152.32V196.088H156.775Z" fill="#FF485E"/>
<path d="M158.341 201V200.105L161.702 196.426C162.096 195.995 162.421 195.621 162.676 195.302C162.931 194.981 163.12 194.679 163.243 194.398C163.369 194.113 163.432 193.814 163.432 193.503C163.432 193.145 163.346 192.835 163.173 192.573C163.004 192.311 162.772 192.109 162.477 191.967C162.182 191.824 161.851 191.753 161.483 191.753C161.092 191.753 160.751 191.834 160.459 191.996C160.171 192.155 159.947 192.379 159.788 192.668C159.632 192.956 159.554 193.294 159.554 193.682H158.381C158.381 193.085 158.518 192.561 158.793 192.111C159.069 191.66 159.443 191.309 159.917 191.057C160.394 190.805 160.93 190.679 161.523 190.679C162.119 190.679 162.648 190.805 163.109 191.057C163.569 191.309 163.931 191.648 164.193 192.076C164.454 192.503 164.585 192.979 164.585 193.503C164.585 193.877 164.517 194.244 164.382 194.601C164.249 194.956 164.017 195.352 163.686 195.79C163.357 196.224 162.902 196.754 162.318 197.381L160.031 199.827V199.906H164.764V201H158.341Z" fill="#FF485E"/>
<path d="M170.139 201.139C169.39 201.139 168.752 200.935 168.225 200.528C167.698 200.117 167.295 199.522 167.016 198.743C166.738 197.961 166.599 197.016 166.599 195.909C166.599 194.809 166.738 193.869 167.016 193.09C167.298 192.308 167.703 191.711 168.23 191.3C168.76 190.886 169.396 190.679 170.139 190.679C170.881 190.679 171.516 190.886 172.043 191.3C172.573 191.711 172.977 192.308 173.256 193.09C173.538 193.869 173.678 194.809 173.678 195.909C173.678 197.016 173.539 197.961 173.261 198.743C172.982 199.522 172.58 200.117 172.053 200.528C171.526 200.935 170.888 201.139 170.139 201.139ZM170.139 200.045C170.881 200.045 171.458 199.687 171.869 198.972C172.28 198.256 172.485 197.235 172.485 195.909C172.485 195.027 172.391 194.277 172.202 193.657C172.016 193.037 171.748 192.565 171.396 192.24C171.048 191.915 170.629 191.753 170.139 191.753C169.403 191.753 168.828 192.116 168.413 192.842C167.999 193.564 167.792 194.587 167.792 195.909C167.792 196.791 167.885 197.54 168.07 198.156C168.256 198.773 168.523 199.242 168.871 199.563C169.222 199.885 169.645 200.045 170.139 200.045Z" fill="#FF485E"/>
<path d="M175.568 201V200.105L178.928 196.426C179.323 195.995 179.648 195.621 179.903 195.302C180.158 194.981 180.347 194.679 180.47 194.398C180.596 194.113 180.659 193.814 180.659 193.503C180.659 193.145 180.572 192.835 180.4 192.573C180.231 192.311 179.999 192.109 179.704 191.967C179.409 191.824 179.078 191.753 178.71 191.753C178.319 191.753 177.977 191.834 177.686 191.996C177.397 192.155 177.173 192.379 177.014 192.668C176.859 192.956 176.781 193.294 176.781 193.682H175.607C175.607 193.085 175.745 192.561 176.02 192.111C176.295 191.66 176.67 191.309 177.144 191.057C177.621 190.805 178.156 190.679 178.749 190.679C179.346 190.679 179.875 190.805 180.335 191.057C180.796 191.309 181.157 191.648 181.419 192.076C181.681 192.503 181.812 192.979 181.812 193.503C181.812 193.877 181.744 194.244 181.608 194.601C181.476 194.956 181.244 195.352 180.912 195.79C180.584 196.224 180.128 196.754 179.545 197.381L177.258 199.827V199.906H181.991V201H175.568Z" fill="#FF485E"/>
<path d="M187.485 201.139C186.828 201.139 186.243 201.026 185.73 200.801C185.219 200.576 184.813 200.262 184.511 199.861C184.213 199.457 184.051 198.988 184.024 198.454H185.277C185.304 198.783 185.416 199.066 185.615 199.305C185.814 199.54 186.074 199.722 186.396 199.851C186.717 199.981 187.074 200.045 187.465 200.045C187.902 200.045 188.29 199.969 188.628 199.817C188.966 199.664 189.231 199.452 189.423 199.18C189.616 198.909 189.712 198.594 189.712 198.236C189.712 197.861 189.619 197.531 189.433 197.246C189.248 196.958 188.976 196.733 188.618 196.57C188.26 196.408 187.823 196.327 187.306 196.327H186.49V195.233H187.306C187.71 195.233 188.065 195.16 188.369 195.014C188.678 194.868 188.918 194.663 189.09 194.398C189.266 194.132 189.354 193.821 189.354 193.463C189.354 193.118 189.278 192.818 189.125 192.563C188.973 192.308 188.757 192.109 188.479 191.967C188.204 191.824 187.879 191.753 187.504 191.753C187.153 191.753 186.822 191.817 186.51 191.947C186.202 192.073 185.95 192.257 185.754 192.498C185.559 192.737 185.453 193.025 185.436 193.364H184.243C184.263 192.83 184.424 192.363 184.725 191.962C185.027 191.557 185.421 191.242 185.909 191.017C186.399 190.792 186.938 190.679 187.524 190.679C188.154 190.679 188.694 190.806 189.145 191.062C189.596 191.314 189.942 191.647 190.184 192.061C190.426 192.475 190.547 192.923 190.547 193.403C190.547 193.977 190.396 194.466 190.095 194.87C189.796 195.274 189.39 195.554 188.877 195.71V195.79C189.52 195.896 190.022 196.169 190.383 196.61C190.744 197.047 190.925 197.589 190.925 198.236C190.925 198.789 190.774 199.286 190.472 199.727C190.174 200.165 189.766 200.509 189.249 200.761C188.732 201.013 188.144 201.139 187.485 201.139Z" fill="#FF485E"/>
</g>
<defs>
<clipPath id="clip0_712_622">
<rect width="259" height="259" fill="white"/>
</clipPath>
</defs>
</svg>
