<svg width="259" height="259" viewBox="0 0 259 259" fill="none" xmlns="http://www.w3.org/2000/svg">
<g clip-path="url(#clip0_707_531)">
<rect width="259" height="259" fill="white"/>
<rect x="9.5" y="9.5" width="249" height="249" stroke="#FF485E"/>
<rect x="1" y="1" width="248" height="248" fill="white" stroke="black" stroke-width="2"/>
<rect x="29.5" y="74.5" width="191" height="50" stroke="#FF485E" stroke-dasharray="8 8"/>
<path d="M203.353 104.645C203.295 104.587 203.252 104.517 203.228 104.439C203.204 104.361 203.199 104.278 203.215 104.198C203.23 104.118 203.264 104.043 203.315 103.979C203.366 103.915 203.432 103.865 203.506 103.833L209.101 101.4C209.377 101.277 209.609 101.074 209.768 100.817C209.926 100.56 210.003 100.261 209.989 99.9596C209.975 99.6581 209.87 99.3679 209.688 99.1269C209.506 98.8859 209.256 98.7053 208.97 98.6088L188.96 92.0751C188.698 91.9914 188.418 91.9815 188.15 92.0465C187.883 92.1114 187.638 92.2488 187.444 92.4434C187.249 92.6381 187.112 92.8826 187.047 93.1501C186.982 93.4176 186.992 93.6978 187.075 93.9601L193.609 113.97C193.702 114.259 193.881 114.513 194.122 114.697C194.364 114.881 194.656 114.987 194.959 115H195.033C195.324 115.001 195.609 114.917 195.852 114.757C196.095 114.597 196.286 114.369 196.4 114.101L198.833 108.506C198.865 108.432 198.916 108.366 198.979 108.315C199.043 108.264 199.118 108.23 199.198 108.214C199.278 108.199 199.361 108.204 199.439 108.228C199.517 108.252 199.588 108.295 199.645 108.353L205.854 114.561C205.993 114.701 206.159 114.812 206.341 114.888C206.524 114.964 206.719 115.003 206.916 115.003C207.114 115.003 207.309 114.964 207.492 114.888C207.674 114.812 207.84 114.701 207.979 114.561L209.565 112.975C209.705 112.836 209.816 112.67 209.892 112.488C209.967 112.305 210.006 112.11 210.006 111.913C210.006 111.715 209.967 111.52 209.892 111.337C209.816 111.155 209.705 110.989 209.565 110.85L203.353 104.645ZM208.853 112.27L207.266 113.856C207.173 113.95 207.046 114.002 206.913 114.002C206.781 114.002 206.654 113.95 206.56 113.856L200.351 107.648C200.07 107.366 199.689 107.208 199.291 107.208C199.197 107.207 199.103 107.217 199.01 107.235C198.77 107.281 198.545 107.384 198.354 107.537C198.163 107.689 198.013 107.886 197.915 108.11L195.483 113.705C195.441 113.795 195.373 113.87 195.288 113.921C195.203 113.972 195.105 113.997 195.006 113.993C194.907 113.988 194.812 113.954 194.732 113.895C194.653 113.836 194.592 113.755 194.559 113.661L188.026 93.6501C188 93.5632 187.997 93.4707 188.019 93.3825C188.041 93.2942 188.087 93.2137 188.151 93.1494C188.215 93.0851 188.296 93.0396 188.384 93.0177C188.472 92.9958 188.565 92.9983 188.651 93.0251L208.659 99.5601C208.754 99.5911 208.838 99.6504 208.899 99.7301C208.96 99.8098 208.995 99.9061 208.999 100.006C209.004 100.106 208.978 100.206 208.925 100.291C208.872 100.376 208.795 100.443 208.703 100.483L203.108 102.916C202.884 103.014 202.687 103.165 202.534 103.356C202.381 103.547 202.278 103.772 202.232 104.012C202.187 104.252 202.2 104.5 202.272 104.734C202.344 104.967 202.472 105.18 202.645 105.353L208.854 111.561C208.947 111.655 209 111.782 209 111.914C209 112.047 208.947 112.174 208.854 112.268L208.853 112.27ZM194 90.5001V89.5001C194 89.3675 194.053 89.2403 194.147 89.1465C194.24 89.0528 194.368 89.0001 194.5 89.0001C194.633 89.0001 194.76 89.0528 194.854 89.1465C194.948 89.2403 195 89.3675 195 89.5001V90.5001C195 90.6327 194.948 90.7599 194.854 90.8536C194.76 90.9474 194.633 91.0001 194.5 91.0001C194.368 91.0001 194.24 90.9474 194.147 90.8536C194.053 90.7599 194 90.6327 194 90.5001ZM184 99.5001C184 99.3675 184.053 99.2403 184.147 99.1465C184.24 99.0528 184.368 99.0001 184.5 99.0001H185.5C185.633 99.0001 185.76 99.0528 185.854 99.1465C185.948 99.2403 186 99.3675 186 99.5001C186 99.6327 185.948 99.7599 185.854 99.8536C185.76 99.9474 185.633 100 185.5 100H184.5C184.368 100 184.24 99.9474 184.147 99.8536C184.053 99.7599 184 99.6327 184 99.5001ZM198.053 91.2763L199.053 89.2763C199.112 89.1576 199.216 89.0674 199.342 89.0254C199.468 88.9835 199.605 88.9932 199.724 89.0526C199.843 89.1119 199.933 89.216 199.975 89.3419C200.017 89.4677 200.007 89.6051 199.948 89.7238L198.948 91.7238C198.888 91.8425 198.784 91.9328 198.658 91.9747C198.533 92.0167 198.395 92.0069 198.276 91.9476C198.158 91.8882 198.068 91.7842 198.026 91.6583C197.984 91.5324 197.993 91.395 198.053 91.2763ZM186.948 103.276C186.977 103.335 186.995 103.399 186.999 103.465C187.004 103.53 186.996 103.596 186.975 103.658C186.954 103.721 186.921 103.778 186.878 103.828C186.835 103.878 186.783 103.918 186.724 103.948L184.724 104.948C184.654 104.982 184.578 105 184.5 105C184.387 105 184.278 104.962 184.19 104.892C184.101 104.822 184.039 104.725 184.013 104.615C183.987 104.505 183.999 104.39 184.047 104.288C184.095 104.186 184.176 104.103 184.276 104.053L186.276 103.053C186.335 103.023 186.399 103.006 186.465 103.001C186.53 102.996 186.596 103.005 186.658 103.025C186.721 103.046 186.778 103.079 186.828 103.122C186.878 103.165 186.918 103.218 186.948 103.276Z" fill="black"/>
<rect x="43.5" y="39.5" width="130" height="20" stroke="black"/>
<rect x="43.5" y="89.5" width="130" height="20" stroke="black"/>
<rect x="43.5" y="139.5" width="130" height="20" stroke="black"/>
<rect x="43.5" y="189.5" width="130" height="20" stroke="black"/>
</g>
<defs>
<clipPath id="clip0_707_531">
<rect width="259" height="259" fill="white"/>
</clipPath>
</defs>
</svg>
