<svg width="259" height="259" viewBox="0 0 259 259" fill="none" xmlns="http://www.w3.org/2000/svg">
<g clip-path="url(#clip0_715_697)">
<rect width="259" height="259" fill="white"/>
<rect x="9.5" y="9.5" width="249" height="249" stroke="#FF485E"/>
<rect x="1" y="1" width="248" height="248" fill="white" stroke="black" stroke-width="2"/>
<rect x="34.5" y="34.5" width="181" height="26" stroke="black"/>
<rect x="34.5" y="87.5" width="181" height="26" stroke="black"/>
<rect x="34.5" y="140.5" width="26" height="26" stroke="black"/>
<path d="M203.433 104.25C203.241 104.583 202.759 104.583 202.567 104.25L199.103 98.25C198.91 97.9167 199.151 97.5 199.536 97.5H206.464C206.849 97.5 207.09 97.9167 206.897 98.25L203.433 104.25Z" stroke="black"/>
<mask id="path-7-inside-1_715_697" fill="white">
<path d="M55.7413 149.933L54.0274 148.25C53.9478 148.17 53.8532 148.106 53.749 148.063C53.6448 148.02 53.5332 147.998 53.4204 147.998C53.3076 147.998 53.1959 148.02 53.0918 148.063C52.9876 148.106 52.893 148.17 52.8134 148.25L46.1928 154.772C46.1663 154.799 46.1348 154.82 46.1001 154.834C46.0654 154.849 46.0283 154.856 45.9907 154.856C45.9532 154.856 45.916 154.849 45.8814 154.834C45.8467 154.82 45.8152 154.799 45.7886 154.772V154.768L43.1736 152.249C43.094 152.169 42.9994 152.105 42.8952 152.062C42.791 152.019 42.6794 151.997 42.5666 151.997C42.4538 151.997 42.3421 152.019 42.2379 152.062C42.1338 152.105 42.0392 152.169 41.9596 152.249L40.2457 153.963C40.1658 154.042 40.1024 154.137 40.0592 154.241C40.0159 154.345 39.9937 154.457 39.9937 154.57C39.9937 154.682 40.0159 154.794 40.0592 154.898C40.1024 155.002 40.1658 155.097 40.2457 155.177L45.3595 160.318C45.4391 160.398 45.5337 160.461 45.6378 160.505C45.742 160.548 45.8537 160.57 45.9665 160.57C46.0792 160.57 46.1909 160.548 46.2951 160.505C46.3992 160.461 46.4938 160.398 46.5735 160.318L55.7427 151.147C55.8224 151.067 55.8856 150.972 55.9286 150.868C55.9717 150.764 55.9938 150.653 55.9937 150.54C55.9935 150.427 55.9712 150.316 55.9278 150.212C55.8845 150.107 55.8211 150.013 55.7413 149.933ZM55.3392 150.743L46.1693 159.913C46.1157 159.966 46.0432 159.996 45.9675 159.996C45.8919 159.996 45.8193 159.966 45.7658 159.913L40.652 154.771C40.6255 154.744 40.6044 154.713 40.59 154.678C40.5756 154.644 40.5683 154.606 40.5683 154.569C40.5683 154.531 40.5756 154.494 40.59 154.459C40.6044 154.425 40.6255 154.393 40.652 154.367L42.3659 152.653C42.3924 152.626 42.424 152.605 42.4586 152.591C42.4933 152.577 42.5305 152.569 42.568 152.569C42.6065 152.569 42.6446 152.577 42.6802 152.592C42.7157 152.607 42.748 152.628 42.7751 152.656L45.393 155.176C45.5536 155.336 45.771 155.425 45.9975 155.425C46.2241 155.425 46.4414 155.336 46.602 155.176L53.2226 148.654C53.2491 148.627 53.2807 148.606 53.3155 148.591C53.3503 148.577 53.3877 148.569 53.4254 148.569C53.4631 148.569 53.5004 148.577 53.5352 148.591C53.57 148.606 53.6016 148.627 53.6282 148.654L55.3421 150.338C55.3686 150.364 55.3897 150.396 55.4039 150.431C55.4182 150.466 55.4254 150.503 55.4251 150.541C55.4249 150.579 55.4171 150.616 55.4024 150.651C55.3876 150.685 55.3662 150.717 55.3392 150.743Z"/>
</mask>
<path d="M55.7413 149.933L57.1522 148.516L57.1429 148.507L55.7413 149.933ZM54.0274 148.25L52.6107 149.661L52.6182 149.669L52.6257 149.676L54.0274 148.25ZM53.4204 147.998V149.998V147.998ZM52.8134 148.25L54.217 149.674L54.2236 149.668L54.2301 149.661L52.8134 148.25ZM46.1928 154.772L44.7892 153.348L44.7835 153.353L44.7778 153.359L46.1928 154.772ZM45.7886 154.772H43.7886V155.6L44.3736 156.186L45.7886 154.772ZM45.7886 154.768H47.7886V153.918L47.1763 153.328L45.7886 154.768ZM43.1736 152.249L41.7569 153.66L41.7713 153.675L41.7859 153.689L43.1736 152.249ZM41.9596 152.249L43.3738 153.663L43.3762 153.66L41.9596 152.249ZM40.2457 153.963L41.6575 155.379L41.6599 155.377L40.2457 153.963ZM39.9937 154.57H37.9937H39.9937ZM40.2457 155.177L41.6638 153.766L41.6575 153.76L40.2457 155.177ZM45.3595 160.318L43.9414 161.728L43.9428 161.73L45.3595 160.318ZM46.5735 160.318L45.1591 158.904L45.1568 158.906L46.5735 160.318ZM55.7427 151.147L54.3284 149.733L54.3283 149.733L55.7427 151.147ZM55.3392 150.743L53.9409 149.313L53.9329 149.321L53.925 149.329L55.3392 150.743ZM46.1693 159.913L47.5818 161.328L47.5834 161.327L46.1693 159.913ZM45.7658 159.913L44.3477 161.323L44.3533 161.328L45.7658 159.913ZM40.652 154.771L42.0701 153.361L42.0655 153.356L40.652 154.771ZM40.652 154.367L42.0655 155.782L42.0662 155.781L40.652 154.367ZM42.3659 152.653L40.9525 151.238L40.9517 151.239L42.3659 152.653ZM42.568 152.569L42.57 150.569L42.5696 150.569L42.568 152.569ZM42.7751 152.656L41.355 154.064L41.3713 154.08L41.3881 154.097L42.7751 152.656ZM45.393 155.176L46.8039 153.758L46.7921 153.746L46.7801 153.735L45.393 155.176ZM46.602 155.176L45.1984 153.751L45.1912 153.758L46.602 155.176ZM53.2226 148.654L54.6261 150.079L54.6344 150.07L54.6426 150.062L53.2226 148.654ZM53.6282 148.654L52.2082 150.062L52.2173 150.071L52.2265 150.08L53.6282 148.654ZM55.3421 150.338L56.7604 148.928L56.7521 148.919L56.7437 148.911L55.3421 150.338ZM57.1429 148.507L55.4291 146.823L52.6257 149.676L54.3396 151.36L57.1429 148.507ZM55.444 146.838C55.1786 146.572 54.8632 146.36 54.516 146.216L52.982 149.91C52.8431 149.852 52.7169 149.768 52.6107 149.661L55.444 146.838ZM54.516 146.216C54.1687 146.072 53.7964 145.998 53.4204 145.998V149.998C53.2699 149.998 53.121 149.968 52.982 149.91L54.516 146.216ZM53.4204 145.998C53.0444 145.998 52.6721 146.072 52.3248 146.216L53.8587 149.91C53.7198 149.968 53.5708 149.998 53.4204 149.998V145.998ZM52.3248 146.216C51.9775 146.36 51.6621 146.572 51.3967 146.838L54.2301 149.661C54.1239 149.768 53.9977 149.852 53.8587 149.91L52.3248 146.216ZM51.4097 146.825L44.7892 153.348L47.5965 156.197L54.217 149.674L51.4097 146.825ZM44.7778 153.359C44.9371 153.199 45.1261 153.073 45.3342 152.987L46.866 156.682C47.1435 156.567 47.3956 156.398 47.6078 156.186L44.7778 153.359ZM45.3342 152.987C45.5424 152.9 45.7655 152.856 45.9907 152.856V156.856C46.2911 156.856 46.5885 156.797 46.866 156.682L45.3342 152.987ZM45.9907 152.856C46.216 152.856 46.4391 152.9 46.6472 152.987L45.1155 156.682C45.393 156.797 45.6904 156.856 45.9907 156.856V152.856ZM46.6472 152.987C46.8554 153.073 47.0444 153.199 47.2036 153.359L44.3736 156.186C44.5859 156.398 44.838 156.567 45.1155 156.682L46.6472 152.987ZM47.7886 154.772V154.768H43.7886V154.772H47.7886ZM47.1763 153.328L44.5612 150.808L41.7859 153.689L44.401 156.208L47.1763 153.328ZM44.5902 150.837C44.3248 150.571 44.0094 150.359 43.6622 150.215L42.1282 153.909C41.9893 153.852 41.8631 153.767 41.7569 153.66L44.5902 150.837ZM43.6622 150.215C43.3149 150.071 42.9426 149.997 42.5666 149.997V153.997C42.4161 153.997 42.2672 153.967 42.1282 153.909L43.6622 150.215ZM42.5666 149.997C42.1906 149.997 41.8182 150.071 41.471 150.215L43.0049 153.909C42.866 153.967 42.717 153.997 42.5666 153.997V149.997ZM41.471 150.215C41.1237 150.359 40.8083 150.571 40.5429 150.837L43.3762 153.66C43.27 153.767 43.1439 153.852 43.0049 153.909L41.471 150.215ZM40.5454 150.834L38.8315 152.548L41.6599 155.377L43.3738 153.663L40.5454 150.834ZM38.8339 152.546C38.5676 152.811 38.3563 153.127 38.2121 153.474L41.9063 155.008C41.8486 155.147 41.764 155.273 41.6575 155.379L38.8339 152.546ZM38.2121 153.474C38.0679 153.821 37.9937 154.193 37.9937 154.57H41.9937C41.9937 154.72 41.964 154.869 41.9063 155.008L38.2121 153.474ZM37.9937 154.57C37.9937 154.946 38.0679 155.318 38.2121 155.665L41.9063 154.131C41.964 154.27 41.9937 154.419 41.9937 154.57H37.9937ZM38.2121 155.665C38.3563 156.012 38.5676 156.328 38.8339 156.593L41.6575 153.76C41.764 153.866 41.8486 153.992 41.9063 154.131L38.2121 155.665ZM38.8276 156.587L43.9414 161.728L46.7775 158.908L41.6637 153.766L38.8276 156.587ZM43.9428 161.73C44.2082 161.996 44.5236 162.208 44.8709 162.352L46.4048 158.658C46.5438 158.715 46.6699 158.8 46.7761 158.906L43.9428 161.73ZM44.8709 162.352C45.2181 162.496 45.5904 162.57 45.9665 162.57V158.57C46.1169 158.57 46.2659 158.6 46.4048 158.658L44.8709 162.352ZM45.9665 162.57C46.3425 162.57 46.7148 162.496 47.0621 162.352L45.5281 158.658C45.667 158.6 45.816 158.57 45.9665 158.57V162.57ZM47.0621 162.352C47.4093 162.208 47.7247 161.996 47.9901 161.73L45.1568 158.906C45.263 158.8 45.3892 158.715 45.5281 158.658L47.0621 162.352ZM47.9878 161.732L57.1571 152.561L54.3283 149.733L45.1591 158.904L47.9878 161.732ZM57.1569 152.561C57.4226 152.295 57.6333 151.98 57.7768 151.633L54.0804 150.104C54.1378 149.965 54.2221 149.839 54.3284 149.733L57.1569 152.561ZM57.7768 151.633C57.9204 151.285 57.9941 150.913 57.9937 150.537L53.9937 150.542C53.9935 150.392 54.023 150.243 54.0804 150.104L57.7768 151.633ZM57.9937 150.537C57.9932 150.162 57.9187 149.79 57.7743 149.443L54.0814 150.98C54.0237 150.841 53.9938 150.693 53.9937 150.542L57.9937 150.537ZM57.7743 149.443C57.6299 149.096 57.4185 148.781 57.1522 148.516L54.3303 151.351C54.2238 151.245 54.1392 151.119 54.0814 150.98L57.7743 149.443ZM53.925 149.329L44.7551 158.498L47.5834 161.327L56.7534 152.158L53.925 149.329ZM44.7568 158.497C45.0782 158.176 45.5136 157.996 45.9675 157.996V161.996C46.5728 161.996 47.1533 161.756 47.5818 161.328L44.7568 158.497ZM45.9675 157.996C46.4215 157.996 46.8569 158.176 47.1783 158.497L44.3533 161.328C44.7818 161.756 45.3623 161.996 45.9675 161.996V157.996ZM47.1838 158.502L42.0701 153.361L39.234 156.181L44.3477 161.323L47.1838 158.502ZM42.0655 153.356C42.2248 153.515 42.3513 153.704 42.4376 153.912L38.7425 155.444C38.8575 155.722 39.0261 155.974 39.2386 156.186L42.0655 153.356ZM42.4376 153.912C42.5238 154.12 42.5683 154.344 42.5683 154.569H38.5683C38.5683 154.869 38.6275 155.167 38.7425 155.444L42.4376 153.912ZM42.5683 154.569C42.5683 154.794 42.5238 155.017 42.4376 155.225L38.7425 153.694C38.6275 153.971 38.5683 154.268 38.5683 154.569H42.5683ZM42.4376 155.225C42.3513 155.433 42.2248 155.622 42.0655 155.782L39.2386 152.952C39.0261 153.164 38.8575 153.416 38.7425 153.694L42.4376 155.225ZM42.0662 155.781L43.7801 154.067L40.9517 151.239L39.2378 152.952L42.0662 155.781ZM43.7793 154.068C43.62 154.227 43.4309 154.353 43.2228 154.439L41.6945 150.743C41.417 150.857 41.1649 151.026 40.9525 151.238L43.7793 154.068ZM43.2228 154.439C43.0146 154.525 42.7916 154.569 42.5664 154.569L42.5696 150.569C42.2693 150.569 41.972 150.628 41.6945 150.743L43.2228 154.439ZM42.566 154.569C42.3408 154.569 42.1179 154.524 41.91 154.438L43.4503 150.746C43.1714 150.63 42.8722 150.57 42.57 150.569L42.566 154.569ZM41.91 154.438C41.7022 154.351 41.5136 154.224 41.355 154.064L44.1952 151.247C43.9824 151.033 43.7292 150.862 43.4503 150.746L41.91 154.438ZM41.3881 154.097L44.006 156.617L46.7801 153.735L44.1621 151.215L41.3881 154.097ZM43.9822 156.593C44.5176 157.126 45.2422 157.425 45.9975 157.425V153.425C46.2997 153.425 46.5897 153.545 46.8039 153.758L43.9822 156.593ZM45.9975 157.425C46.7529 157.425 47.4775 157.126 48.0129 156.593L45.1912 153.758C45.4054 153.545 45.6953 153.425 45.9975 153.425V157.425ZM48.0056 156.601L54.6261 150.079L51.819 147.229L45.1985 153.751L48.0056 156.601ZM54.6426 150.062C54.4832 150.223 54.2936 150.35 54.0847 150.437L52.5464 146.745C52.2679 146.861 52.0151 147.031 51.8026 147.245L54.6426 150.062ZM54.0847 150.437C53.8758 150.524 53.6517 150.569 53.4254 150.569V146.569C53.1236 146.569 52.8249 146.629 52.5464 146.745L54.0847 150.437ZM53.4254 150.569C53.1991 150.569 52.975 150.524 52.7661 150.437L54.3044 146.745C54.0259 146.629 53.7271 146.569 53.4254 146.569V150.569ZM52.7661 150.437C52.5572 150.35 52.3676 150.223 52.2082 150.062L55.0482 147.245C54.8357 147.031 54.5829 146.861 54.3044 146.745L52.7661 150.437ZM52.2265 150.08L53.9404 151.764L56.7437 148.911L55.0299 147.227L52.2265 150.08ZM53.9237 151.748C53.7642 151.587 53.638 151.397 53.5524 151.187L57.2555 149.675C57.1414 149.396 56.9731 149.142 56.7604 148.928L53.9237 151.748ZM53.5524 151.187C53.4668 150.978 53.4236 150.753 53.4252 150.527L57.4251 150.555C57.4272 150.253 57.3696 149.954 57.2555 149.675L53.5524 151.187ZM53.4252 150.527C53.4268 150.301 53.4732 150.077 53.5617 149.869L57.2431 151.433C57.3611 151.155 57.423 150.857 57.4251 150.555L53.4252 150.527ZM53.5617 149.869C53.6502 149.66 53.7791 149.472 53.9409 149.313L56.7375 152.173C56.9533 151.962 57.1251 151.711 57.2431 151.433L53.5617 149.869Z" fill="#FF485E" mask="url(#path-7-inside-1_715_697)"/>
<circle cx="47.5" cy="206.5" r="13" stroke="black"/>
<circle cx="97.5" cy="206.5" r="13" stroke="black"/>
<circle cx="97.5" cy="206.5" r="5.5" fill="#FF485E"/>
<circle cx="147.5" cy="206.5" r="13" stroke="black"/>
</g>
<defs>
<clipPath id="clip0_715_697">
<rect width="259" height="259" fill="white"/>
</clipPath>
</defs>
</svg>
