<svg width="259" height="259" viewBox="0 0 259 259" fill="none" xmlns="http://www.w3.org/2000/svg">
<g clip-path="url(#clip0_726_128)">
<rect width="259" height="259" fill="white"/>
<rect x="9.5" y="9.5" width="249" height="249" stroke="#FF485E"/>
<rect x="1" y="1" width="248" height="248" fill="white" stroke="black" stroke-width="2"/>
<path d="M73.5 57H65V52.5C65 52.3674 64.9473 52.2402 64.8536 52.1464C64.7598 52.0527 64.6326 52 64.5 52C64.3674 52 64.2402 52.0527 64.1464 52.1464C64.0527 52.2402 64 52.3674 64 52.5V57H55.5C54.5717 57 53.6815 57.3687 53.0251 58.0251C52.3687 58.6815 52 59.5717 52 60.5V74.5C52 75.4283 52.3687 76.3185 53.0251 76.9749C53.6815 77.6313 54.5717 78 55.5 78H73.5C74.4283 78 75.3185 77.6313 75.9749 76.9749C76.6313 76.3185 77 75.4283 77 74.5V60.5C77 59.5717 76.6313 58.6815 75.9749 58.0251C75.3185 57.3687 74.4283 57 73.5 57ZM76 74.5C76 75.163 75.7366 75.7989 75.2678 76.2678C74.7989 76.7366 74.163 77 73.5 77H55.5C54.837 77 54.2011 76.7366 53.7322 76.2678C53.2634 75.7989 53 75.163 53 74.5V60.5C53 59.837 53.2634 59.2011 53.7322 58.7322C54.2011 58.2634 54.837 58 55.5 58H73.5C74.163 58 74.7989 58.2634 75.2678 58.7322C75.7366 59.2011 76 59.837 76 60.5V74.5ZM69 68H60C59.2044 68 58.4413 68.3161 57.8787 68.8787C57.3161 69.4413 57 70.2044 57 71C57 71.7956 57.3161 72.5587 57.8787 73.1213C58.4413 73.6839 59.2044 74 60 74H69C69.7956 74 70.5587 73.6839 71.1213 73.1213C71.6839 72.5587 72 71.7956 72 71C72 70.2044 71.6839 69.4413 71.1213 68.8787C70.5587 68.3161 69.7956 68 69 68ZM66 69V73H63V69H66ZM58 71C58 70.4696 58.2107 69.9609 58.5858 69.5858C58.9609 69.2107 59.4696 69 60 69H62V73H60C59.4696 73 58.9609 72.7893 58.5858 72.4142C58.2107 72.0391 58 71.5304 58 71ZM69 73H67V69H69C69.5304 69 70.0391 69.2107 70.4142 69.5858C70.7893 69.9609 71 70.4696 71 71C71 71.5304 70.7893 72.0391 70.4142 72.4142C70.0391 72.7893 69.5304 73 69 73ZM58 64C58 63.8022 58.0586 63.6089 58.1685 63.4444C58.2784 63.28 58.4346 63.1518 58.6173 63.0761C58.8 63.0004 59.0011 62.9806 59.1951 63.0192C59.3891 63.0578 59.5673 63.153 59.7071 63.2929C59.847 63.4327 59.9422 63.6109 59.9808 63.8049C60.0194 63.9989 59.9996 64.2 59.9239 64.3827C59.8482 64.5654 59.72 64.7216 59.5556 64.8315C59.3911 64.9414 59.1978 65 59 65C58.7348 65 58.4804 64.8946 58.2929 64.7071C58.1054 64.5196 58 64.2652 58 64ZM69 64C69 63.8022 69.0586 63.6089 69.1685 63.4444C69.2784 63.28 69.4346 63.1518 69.6173 63.0761C69.8 63.0004 70.0011 62.9806 70.1951 63.0192C70.3891 63.0578 70.5673 63.153 70.7071 63.2929C70.847 63.4327 70.9422 63.6109 70.9808 63.8049C71.0194 63.9989 70.9996 64.2 70.9239 64.3827C70.8482 64.5654 70.72 64.7216 70.5556 64.8315C70.3911 64.9414 70.1978 65 70 65C69.7348 65 69.4804 64.8946 69.2929 64.7071C69.1054 64.5196 69 64.2652 69 64Z" fill="black"/>
<path d="M113.5 57H105V52.5C105 52.3674 104.947 52.2402 104.854 52.1464C104.76 52.0527 104.633 52 104.5 52C104.367 52 104.24 52.0527 104.146 52.1464C104.053 52.2402 104 52.3674 104 52.5V57H95.5C94.5717 57 93.6815 57.3687 93.0251 58.0251C92.3687 58.6815 92 59.5717 92 60.5V74.5C92 75.4283 92.3687 76.3185 93.0251 76.9749C93.6815 77.6313 94.5717 78 95.5 78H113.5C114.428 78 115.318 77.6313 115.975 76.9749C116.631 76.3185 117 75.4283 117 74.5V60.5C117 59.5717 116.631 58.6815 115.975 58.0251C115.318 57.3687 114.428 57 113.5 57ZM116 74.5C116 75.163 115.737 75.7989 115.268 76.2678C114.799 76.7366 114.163 77 113.5 77H95.5C94.837 77 94.2011 76.7366 93.7322 76.2678C93.2634 75.7989 93 75.163 93 74.5V60.5C93 59.837 93.2634 59.2011 93.7322 58.7322C94.2011 58.2634 94.837 58 95.5 58H113.5C114.163 58 114.799 58.2634 115.268 58.7322C115.737 59.2011 116 59.837 116 60.5V74.5ZM109 68H100C99.2044 68 98.4413 68.3161 97.8787 68.8787C97.3161 69.4413 97 70.2044 97 71C97 71.7956 97.3161 72.5587 97.8787 73.1213C98.4413 73.6839 99.2044 74 100 74H109C109.796 74 110.559 73.6839 111.121 73.1213C111.684 72.5587 112 71.7956 112 71C112 70.2044 111.684 69.4413 111.121 68.8787C110.559 68.3161 109.796 68 109 68ZM106 69V73H103V69H106ZM98 71C98 70.4696 98.2107 69.9609 98.5858 69.5858C98.9609 69.2107 99.4696 69 100 69H102V73H100C99.4696 73 98.9609 72.7893 98.5858 72.4142C98.2107 72.0391 98 71.5304 98 71ZM109 73H107V69H109C109.53 69 110.039 69.2107 110.414 69.5858C110.789 69.9609 111 70.4696 111 71C111 71.5304 110.789 72.0391 110.414 72.4142C110.039 72.7893 109.53 73 109 73ZM98 64C98 63.8022 98.0586 63.6089 98.1685 63.4444C98.2784 63.28 98.4346 63.1518 98.6173 63.0761C98.8 63.0004 99.0011 62.9806 99.1951 63.0192C99.3891 63.0578 99.5673 63.153 99.7071 63.2929C99.847 63.4327 99.9422 63.6109 99.9808 63.8049C100.019 63.9989 99.9996 64.2 99.9239 64.3827C99.8482 64.5654 99.72 64.7216 99.5556 64.8315C99.3911 64.9414 99.1978 65 99 65C98.7348 65 98.4804 64.8946 98.2929 64.7071C98.1054 64.5196 98 64.2652 98 64ZM109 64C109 63.8022 109.059 63.6089 109.169 63.4444C109.278 63.28 109.435 63.1518 109.617 63.0761C109.8 63.0004 110.001 62.9806 110.195 63.0192C110.389 63.0578 110.567 63.153 110.707 63.2929C110.847 63.4327 110.942 63.6109 110.981 63.8049C111.019 63.9989 111 64.2 110.924 64.3827C110.848 64.5654 110.72 64.7216 110.556 64.8315C110.391 64.9414 110.198 65 110 65C109.735 65 109.48 64.8946 109.293 64.7071C109.105 64.5196 109 64.2652 109 64Z" fill="black"/>
<path d="M153.5 57H145V52.5C145 52.3674 144.947 52.2402 144.854 52.1464C144.76 52.0527 144.633 52 144.5 52C144.367 52 144.24 52.0527 144.146 52.1464C144.053 52.2402 144 52.3674 144 52.5V57H135.5C134.572 57 133.682 57.3687 133.025 58.0251C132.369 58.6815 132 59.5717 132 60.5V74.5C132 75.4283 132.369 76.3185 133.025 76.9749C133.682 77.6313 134.572 78 135.5 78H153.5C154.428 78 155.318 77.6313 155.975 76.9749C156.631 76.3185 157 75.4283 157 74.5V60.5C157 59.5717 156.631 58.6815 155.975 58.0251C155.318 57.3687 154.428 57 153.5 57ZM156 74.5C156 75.163 155.737 75.7989 155.268 76.2678C154.799 76.7366 154.163 77 153.5 77H135.5C134.837 77 134.201 76.7366 133.732 76.2678C133.263 75.7989 133 75.163 133 74.5V60.5C133 59.837 133.263 59.2011 133.732 58.7322C134.201 58.2634 134.837 58 135.5 58H153.5C154.163 58 154.799 58.2634 155.268 58.7322C155.737 59.2011 156 59.837 156 60.5V74.5ZM149 68H140C139.204 68 138.441 68.3161 137.879 68.8787C137.316 69.4413 137 70.2044 137 71C137 71.7956 137.316 72.5587 137.879 73.1213C138.441 73.6839 139.204 74 140 74H149C149.796 74 150.559 73.6839 151.121 73.1213C151.684 72.5587 152 71.7956 152 71C152 70.2044 151.684 69.4413 151.121 68.8787C150.559 68.3161 149.796 68 149 68ZM146 69V73H143V69H146ZM138 71C138 70.4696 138.211 69.9609 138.586 69.5858C138.961 69.2107 139.47 69 140 69H142V73H140C139.47 73 138.961 72.7893 138.586 72.4142C138.211 72.0391 138 71.5304 138 71ZM149 73H147V69H149C149.53 69 150.039 69.2107 150.414 69.5858C150.789 69.9609 151 70.4696 151 71C151 71.5304 150.789 72.0391 150.414 72.4142C150.039 72.7893 149.53 73 149 73ZM138 64C138 63.8022 138.059 63.6089 138.169 63.4444C138.278 63.28 138.435 63.1518 138.617 63.0761C138.8 63.0004 139.001 62.9806 139.195 63.0192C139.389 63.0578 139.567 63.153 139.707 63.2929C139.847 63.4327 139.942 63.6109 139.981 63.8049C140.019 63.9989 140 64.2 139.924 64.3827C139.848 64.5654 139.72 64.7216 139.556 64.8315C139.391 64.9414 139.198 65 139 65C138.735 65 138.48 64.8946 138.293 64.7071C138.105 64.5196 138 64.2652 138 64ZM149 64C149 63.8022 149.059 63.6089 149.169 63.4444C149.278 63.28 149.435 63.1518 149.617 63.0761C149.8 63.0004 150.001 62.9806 150.195 63.0192C150.389 63.0578 150.567 63.153 150.707 63.2929C150.847 63.4327 150.942 63.6109 150.981 63.8049C151.019 63.9989 151 64.2 150.924 64.3827C150.848 64.5654 150.72 64.7216 150.556 64.8315C150.391 64.9414 150.198 65 150 65C149.735 65 149.48 64.8946 149.293 64.7071C149.105 64.5196 149 64.2652 149 64Z" fill="black"/>
<path d="M193.5 57H185V52.5C185 52.3674 184.947 52.2402 184.854 52.1464C184.76 52.0527 184.633 52 184.5 52C184.367 52 184.24 52.0527 184.146 52.1464C184.053 52.2402 184 52.3674 184 52.5V57H175.5C174.572 57 173.682 57.3687 173.025 58.0251C172.369 58.6815 172 59.5717 172 60.5V74.5C172 75.4283 172.369 76.3185 173.025 76.9749C173.682 77.6313 174.572 78 175.5 78H193.5C194.428 78 195.318 77.6313 195.975 76.9749C196.631 76.3185 197 75.4283 197 74.5V60.5C197 59.5717 196.631 58.6815 195.975 58.0251C195.318 57.3687 194.428 57 193.5 57ZM196 74.5C196 75.163 195.737 75.7989 195.268 76.2678C194.799 76.7366 194.163 77 193.5 77H175.5C174.837 77 174.201 76.7366 173.732 76.2678C173.263 75.7989 173 75.163 173 74.5V60.5C173 59.837 173.263 59.2011 173.732 58.7322C174.201 58.2634 174.837 58 175.5 58H193.5C194.163 58 194.799 58.2634 195.268 58.7322C195.737 59.2011 196 59.837 196 60.5V74.5ZM189 68H180C179.204 68 178.441 68.3161 177.879 68.8787C177.316 69.4413 177 70.2044 177 71C177 71.7956 177.316 72.5587 177.879 73.1213C178.441 73.6839 179.204 74 180 74H189C189.796 74 190.559 73.6839 191.121 73.1213C191.684 72.5587 192 71.7956 192 71C192 70.2044 191.684 69.4413 191.121 68.8787C190.559 68.3161 189.796 68 189 68ZM186 69V73H183V69H186ZM178 71C178 70.4696 178.211 69.9609 178.586 69.5858C178.961 69.2107 179.47 69 180 69H182V73H180C179.47 73 178.961 72.7893 178.586 72.4142C178.211 72.0391 178 71.5304 178 71ZM189 73H187V69H189C189.53 69 190.039 69.2107 190.414 69.5858C190.789 69.9609 191 70.4696 191 71C191 71.5304 190.789 72.0391 190.414 72.4142C190.039 72.7893 189.53 73 189 73ZM178 64C178 63.8022 178.059 63.6089 178.169 63.4444C178.278 63.28 178.435 63.1518 178.617 63.0761C178.8 63.0004 179.001 62.9806 179.195 63.0192C179.389 63.0578 179.567 63.153 179.707 63.2929C179.847 63.4327 179.942 63.6109 179.981 63.8049C180.019 63.9989 180 64.2 179.924 64.3827C179.848 64.5654 179.72 64.7216 179.556 64.8315C179.391 64.9414 179.198 65 179 65C178.735 65 178.48 64.8946 178.293 64.7071C178.105 64.5196 178 64.2652 178 64ZM189 64C189 63.8022 189.059 63.6089 189.169 63.4444C189.278 63.28 189.435 63.1518 189.617 63.0761C189.8 63.0004 190.001 62.9806 190.195 63.0192C190.389 63.0578 190.567 63.153 190.707 63.2929C190.847 63.4327 190.942 63.6109 190.981 63.8049C191.019 63.9989 191 64.2 190.924 64.3827C190.848 64.5654 190.72 64.7216 190.556 64.8315C190.391 64.9414 190.198 65 190 65C189.735 65 189.48 64.8946 189.293 64.7071C189.105 64.5196 189 64.2652 189 64Z" fill="black"/>
<path d="M73.5 97H65V92.5C65 92.3674 64.9473 92.2402 64.8536 92.1464C64.7598 92.0527 64.6326 92 64.5 92C64.3674 92 64.2402 92.0527 64.1464 92.1464C64.0527 92.2402 64 92.3674 64 92.5V97H55.5C54.5717 97 53.6815 97.3687 53.0251 98.0251C52.3687 98.6815 52 99.5717 52 100.5V114.5C52 115.428 52.3687 116.318 53.0251 116.975C53.6815 117.631 54.5717 118 55.5 118H73.5C74.4283 118 75.3185 117.631 75.9749 116.975C76.6313 116.318 77 115.428 77 114.5V100.5C77 99.5717 76.6313 98.6815 75.9749 98.0251C75.3185 97.3687 74.4283 97 73.5 97ZM76 114.5C76 115.163 75.7366 115.799 75.2678 116.268C74.7989 116.737 74.163 117 73.5 117H55.5C54.837 117 54.2011 116.737 53.7322 116.268C53.2634 115.799 53 115.163 53 114.5V100.5C53 99.837 53.2634 99.2011 53.7322 98.7322C54.2011 98.2634 54.837 98 55.5 98H73.5C74.163 98 74.7989 98.2634 75.2678 98.7322C75.7366 99.2011 76 99.837 76 100.5V114.5ZM69 108H60C59.2044 108 58.4413 108.316 57.8787 108.879C57.3161 109.441 57 110.204 57 111C57 111.796 57.3161 112.559 57.8787 113.121C58.4413 113.684 59.2044 114 60 114H69C69.7956 114 70.5587 113.684 71.1213 113.121C71.6839 112.559 72 111.796 72 111C72 110.204 71.6839 109.441 71.1213 108.879C70.5587 108.316 69.7956 108 69 108ZM66 109V113H63V109H66ZM58 111C58 110.47 58.2107 109.961 58.5858 109.586C58.9609 109.211 59.4696 109 60 109H62V113H60C59.4696 113 58.9609 112.789 58.5858 112.414C58.2107 112.039 58 111.53 58 111ZM69 113H67V109H69C69.5304 109 70.0391 109.211 70.4142 109.586C70.7893 109.961 71 110.47 71 111C71 111.53 70.7893 112.039 70.4142 112.414C70.0391 112.789 69.5304 113 69 113ZM58 104C58 103.802 58.0586 103.609 58.1685 103.444C58.2784 103.28 58.4346 103.152 58.6173 103.076C58.8 103 59.0011 102.981 59.1951 103.019C59.3891 103.058 59.5673 103.153 59.7071 103.293C59.847 103.433 59.9422 103.611 59.9808 103.805C60.0194 103.999 59.9996 104.2 59.9239 104.383C59.8482 104.565 59.72 104.722 59.5556 104.831C59.3911 104.941 59.1978 105 59 105C58.7348 105 58.4804 104.895 58.2929 104.707C58.1054 104.52 58 104.265 58 104ZM69 104C69 103.802 69.0586 103.609 69.1685 103.444C69.2784 103.28 69.4346 103.152 69.6173 103.076C69.8 103 70.0011 102.981 70.1951 103.019C70.3891 103.058 70.5673 103.153 70.7071 103.293C70.847 103.433 70.9422 103.611 70.9808 103.805C71.0194 103.999 70.9996 104.2 70.9239 104.383C70.8482 104.565 70.72 104.722 70.5556 104.831C70.3911 104.941 70.1978 105 70 105C69.7348 105 69.4804 104.895 69.2929 104.707C69.1054 104.52 69 104.265 69 104Z" fill="black"/>
<path d="M113.5 97H105V92.5C105 92.3674 104.947 92.2402 104.854 92.1464C104.76 92.0527 104.633 92 104.5 92C104.367 92 104.24 92.0527 104.146 92.1464C104.053 92.2402 104 92.3674 104 92.5V97H95.5C94.5717 97 93.6815 97.3687 93.0251 98.0251C92.3687 98.6815 92 99.5717 92 100.5V114.5C92 115.428 92.3687 116.318 93.0251 116.975C93.6815 117.631 94.5717 118 95.5 118H113.5C114.428 118 115.318 117.631 115.975 116.975C116.631 116.318 117 115.428 117 114.5V100.5C117 99.5717 116.631 98.6815 115.975 98.0251C115.318 97.3687 114.428 97 113.5 97ZM116 114.5C116 115.163 115.737 115.799 115.268 116.268C114.799 116.737 114.163 117 113.5 117H95.5C94.837 117 94.2011 116.737 93.7322 116.268C93.2634 115.799 93 115.163 93 114.5V100.5C93 99.837 93.2634 99.2011 93.7322 98.7322C94.2011 98.2634 94.837 98 95.5 98H113.5C114.163 98 114.799 98.2634 115.268 98.7322C115.737 99.2011 116 99.837 116 100.5V114.5ZM109 108H100C99.2044 108 98.4413 108.316 97.8787 108.879C97.3161 109.441 97 110.204 97 111C97 111.796 97.3161 112.559 97.8787 113.121C98.4413 113.684 99.2044 114 100 114H109C109.796 114 110.559 113.684 111.121 113.121C111.684 112.559 112 111.796 112 111C112 110.204 111.684 109.441 111.121 108.879C110.559 108.316 109.796 108 109 108ZM106 109V113H103V109H106ZM98 111C98 110.47 98.2107 109.961 98.5858 109.586C98.9609 109.211 99.4696 109 100 109H102V113H100C99.4696 113 98.9609 112.789 98.5858 112.414C98.2107 112.039 98 111.53 98 111ZM109 113H107V109H109C109.53 109 110.039 109.211 110.414 109.586C110.789 109.961 111 110.47 111 111C111 111.53 110.789 112.039 110.414 112.414C110.039 112.789 109.53 113 109 113ZM98 104C98 103.802 98.0586 103.609 98.1685 103.444C98.2784 103.28 98.4346 103.152 98.6173 103.076C98.8 103 99.0011 102.981 99.1951 103.019C99.3891 103.058 99.5673 103.153 99.7071 103.293C99.847 103.433 99.9422 103.611 99.9808 103.805C100.019 103.999 99.9996 104.2 99.9239 104.383C99.8482 104.565 99.72 104.722 99.5556 104.831C99.3911 104.941 99.1978 105 99 105C98.7348 105 98.4804 104.895 98.2929 104.707C98.1054 104.52 98 104.265 98 104ZM109 104C109 103.802 109.059 103.609 109.169 103.444C109.278 103.28 109.435 103.152 109.617 103.076C109.8 103 110.001 102.981 110.195 103.019C110.389 103.058 110.567 103.153 110.707 103.293C110.847 103.433 110.942 103.611 110.981 103.805C111.019 103.999 111 104.2 110.924 104.383C110.848 104.565 110.72 104.722 110.556 104.831C110.391 104.941 110.198 105 110 105C109.735 105 109.48 104.895 109.293 104.707C109.105 104.52 109 104.265 109 104Z" fill="black"/>
<path d="M153.5 97H145V92.5C145 92.3674 144.947 92.2402 144.854 92.1464C144.76 92.0527 144.633 92 144.5 92C144.367 92 144.24 92.0527 144.146 92.1464C144.053 92.2402 144 92.3674 144 92.5V97H135.5C134.572 97 133.682 97.3687 133.025 98.0251C132.369 98.6815 132 99.5717 132 100.5V114.5C132 115.428 132.369 116.318 133.025 116.975C133.682 117.631 134.572 118 135.5 118H153.5C154.428 118 155.318 117.631 155.975 116.975C156.631 116.318 157 115.428 157 114.5V100.5C157 99.5717 156.631 98.6815 155.975 98.0251C155.318 97.3687 154.428 97 153.5 97ZM156 114.5C156 115.163 155.737 115.799 155.268 116.268C154.799 116.737 154.163 117 153.5 117H135.5C134.837 117 134.201 116.737 133.732 116.268C133.263 115.799 133 115.163 133 114.5V100.5C133 99.837 133.263 99.2011 133.732 98.7322C134.201 98.2634 134.837 98 135.5 98H153.5C154.163 98 154.799 98.2634 155.268 98.7322C155.737 99.2011 156 99.837 156 100.5V114.5ZM149 108H140C139.204 108 138.441 108.316 137.879 108.879C137.316 109.441 137 110.204 137 111C137 111.796 137.316 112.559 137.879 113.121C138.441 113.684 139.204 114 140 114H149C149.796 114 150.559 113.684 151.121 113.121C151.684 112.559 152 111.796 152 111C152 110.204 151.684 109.441 151.121 108.879C150.559 108.316 149.796 108 149 108ZM146 109V113H143V109H146ZM138 111C138 110.47 138.211 109.961 138.586 109.586C138.961 109.211 139.47 109 140 109H142V113H140C139.47 113 138.961 112.789 138.586 112.414C138.211 112.039 138 111.53 138 111ZM149 113H147V109H149C149.53 109 150.039 109.211 150.414 109.586C150.789 109.961 151 110.47 151 111C151 111.53 150.789 112.039 150.414 112.414C150.039 112.789 149.53 113 149 113ZM138 104C138 103.802 138.059 103.609 138.169 103.444C138.278 103.28 138.435 103.152 138.617 103.076C138.8 103 139.001 102.981 139.195 103.019C139.389 103.058 139.567 103.153 139.707 103.293C139.847 103.433 139.942 103.611 139.981 103.805C140.019 103.999 140 104.2 139.924 104.383C139.848 104.565 139.72 104.722 139.556 104.831C139.391 104.941 139.198 105 139 105C138.735 105 138.48 104.895 138.293 104.707C138.105 104.52 138 104.265 138 104ZM149 104C149 103.802 149.059 103.609 149.169 103.444C149.278 103.28 149.435 103.152 149.617 103.076C149.8 103 150.001 102.981 150.195 103.019C150.389 103.058 150.567 103.153 150.707 103.293C150.847 103.433 150.942 103.611 150.981 103.805C151.019 103.999 151 104.2 150.924 104.383C150.848 104.565 150.72 104.722 150.556 104.831C150.391 104.941 150.198 105 150 105C149.735 105 149.48 104.895 149.293 104.707C149.105 104.52 149 104.265 149 104Z" fill="black"/>
<path d="M193.5 97H185V92.5C185 92.3674 184.947 92.2402 184.854 92.1464C184.76 92.0527 184.633 92 184.5 92C184.367 92 184.24 92.0527 184.146 92.1464C184.053 92.2402 184 92.3674 184 92.5V97H175.5C174.572 97 173.682 97.3687 173.025 98.0251C172.369 98.6815 172 99.5717 172 100.5V114.5C172 115.428 172.369 116.318 173.025 116.975C173.682 117.631 174.572 118 175.5 118H193.5C194.428 118 195.318 117.631 195.975 116.975C196.631 116.318 197 115.428 197 114.5V100.5C197 99.5717 196.631 98.6815 195.975 98.0251C195.318 97.3687 194.428 97 193.5 97ZM196 114.5C196 115.163 195.737 115.799 195.268 116.268C194.799 116.737 194.163 117 193.5 117H175.5C174.837 117 174.201 116.737 173.732 116.268C173.263 115.799 173 115.163 173 114.5V100.5C173 99.837 173.263 99.2011 173.732 98.7322C174.201 98.2634 174.837 98 175.5 98H193.5C194.163 98 194.799 98.2634 195.268 98.7322C195.737 99.2011 196 99.837 196 100.5V114.5ZM189 108H180C179.204 108 178.441 108.316 177.879 108.879C177.316 109.441 177 110.204 177 111C177 111.796 177.316 112.559 177.879 113.121C178.441 113.684 179.204 114 180 114H189C189.796 114 190.559 113.684 191.121 113.121C191.684 112.559 192 111.796 192 111C192 110.204 191.684 109.441 191.121 108.879C190.559 108.316 189.796 108 189 108ZM186 109V113H183V109H186ZM178 111C178 110.47 178.211 109.961 178.586 109.586C178.961 109.211 179.47 109 180 109H182V113H180C179.47 113 178.961 112.789 178.586 112.414C178.211 112.039 178 111.53 178 111ZM189 113H187V109H189C189.53 109 190.039 109.211 190.414 109.586C190.789 109.961 191 110.47 191 111C191 111.53 190.789 112.039 190.414 112.414C190.039 112.789 189.53 113 189 113ZM178 104C178 103.802 178.059 103.609 178.169 103.444C178.278 103.28 178.435 103.152 178.617 103.076C178.8 103 179.001 102.981 179.195 103.019C179.389 103.058 179.567 103.153 179.707 103.293C179.847 103.433 179.942 103.611 179.981 103.805C180.019 103.999 180 104.2 179.924 104.383C179.848 104.565 179.72 104.722 179.556 104.831C179.391 104.941 179.198 105 179 105C178.735 105 178.48 104.895 178.293 104.707C178.105 104.52 178 104.265 178 104ZM189 104C189 103.802 189.059 103.609 189.169 103.444C189.278 103.28 189.435 103.152 189.617 103.076C189.8 103 190.001 102.981 190.195 103.019C190.389 103.058 190.567 103.153 190.707 103.293C190.847 103.433 190.942 103.611 190.981 103.805C191.019 103.999 191 104.2 190.924 104.383C190.848 104.565 190.72 104.722 190.556 104.831C190.391 104.941 190.198 105 190 105C189.735 105 189.48 104.895 189.293 104.707C189.105 104.52 189 104.265 189 104Z" fill="black"/>
<path d="M73.5 137H65V132.5C65 132.367 64.9473 132.24 64.8536 132.146C64.7598 132.053 64.6326 132 64.5 132C64.3674 132 64.2402 132.053 64.1464 132.146C64.0527 132.24 64 132.367 64 132.5V137H55.5C54.5717 137 53.6815 137.369 53.0251 138.025C52.3687 138.682 52 139.572 52 140.5V154.5C52 155.428 52.3687 156.318 53.0251 156.975C53.6815 157.631 54.5717 158 55.5 158H73.5C74.4283 158 75.3185 157.631 75.9749 156.975C76.6313 156.318 77 155.428 77 154.5V140.5C77 139.572 76.6313 138.682 75.9749 138.025C75.3185 137.369 74.4283 137 73.5 137ZM76 154.5C76 155.163 75.7366 155.799 75.2678 156.268C74.7989 156.737 74.163 157 73.5 157H55.5C54.837 157 54.2011 156.737 53.7322 156.268C53.2634 155.799 53 155.163 53 154.5V140.5C53 139.837 53.2634 139.201 53.7322 138.732C54.2011 138.263 54.837 138 55.5 138H73.5C74.163 138 74.7989 138.263 75.2678 138.732C75.7366 139.201 76 139.837 76 140.5V154.5ZM69 148H60C59.2044 148 58.4413 148.316 57.8787 148.879C57.3161 149.441 57 150.204 57 151C57 151.796 57.3161 152.559 57.8787 153.121C58.4413 153.684 59.2044 154 60 154H69C69.7956 154 70.5587 153.684 71.1213 153.121C71.6839 152.559 72 151.796 72 151C72 150.204 71.6839 149.441 71.1213 148.879C70.5587 148.316 69.7956 148 69 148ZM66 149V153H63V149H66ZM58 151C58 150.47 58.2107 149.961 58.5858 149.586C58.9609 149.211 59.4696 149 60 149H62V153H60C59.4696 153 58.9609 152.789 58.5858 152.414C58.2107 152.039 58 151.53 58 151ZM69 153H67V149H69C69.5304 149 70.0391 149.211 70.4142 149.586C70.7893 149.961 71 150.47 71 151C71 151.53 70.7893 152.039 70.4142 152.414C70.0391 152.789 69.5304 153 69 153ZM58 144C58 143.802 58.0586 143.609 58.1685 143.444C58.2784 143.28 58.4346 143.152 58.6173 143.076C58.8 143 59.0011 142.981 59.1951 143.019C59.3891 143.058 59.5673 143.153 59.7071 143.293C59.847 143.433 59.9422 143.611 59.9808 143.805C60.0194 143.999 59.9996 144.2 59.9239 144.383C59.8482 144.565 59.72 144.722 59.5556 144.831C59.3911 144.941 59.1978 145 59 145C58.7348 145 58.4804 144.895 58.2929 144.707C58.1054 144.52 58 144.265 58 144ZM69 144C69 143.802 69.0586 143.609 69.1685 143.444C69.2784 143.28 69.4346 143.152 69.6173 143.076C69.8 143 70.0011 142.981 70.1951 143.019C70.3891 143.058 70.5673 143.153 70.7071 143.293C70.847 143.433 70.9422 143.611 70.9808 143.805C71.0194 143.999 70.9996 144.2 70.9239 144.383C70.8482 144.565 70.72 144.722 70.5556 144.831C70.3911 144.941 70.1978 145 70 145C69.7348 145 69.4804 144.895 69.2929 144.707C69.1054 144.52 69 144.265 69 144Z" fill="black"/>
<path d="M113.5 137H105V132.5C105 132.367 104.947 132.24 104.854 132.146C104.76 132.053 104.633 132 104.5 132C104.367 132 104.24 132.053 104.146 132.146C104.053 132.24 104 132.367 104 132.5V137H95.5C94.5717 137 93.6815 137.369 93.0251 138.025C92.3687 138.682 92 139.572 92 140.5V154.5C92 155.428 92.3687 156.318 93.0251 156.975C93.6815 157.631 94.5717 158 95.5 158H113.5C114.428 158 115.318 157.631 115.975 156.975C116.631 156.318 117 155.428 117 154.5V140.5C117 139.572 116.631 138.682 115.975 138.025C115.318 137.369 114.428 137 113.5 137ZM116 154.5C116 155.163 115.737 155.799 115.268 156.268C114.799 156.737 114.163 157 113.5 157H95.5C94.837 157 94.2011 156.737 93.7322 156.268C93.2634 155.799 93 155.163 93 154.5V140.5C93 139.837 93.2634 139.201 93.7322 138.732C94.2011 138.263 94.837 138 95.5 138H113.5C114.163 138 114.799 138.263 115.268 138.732C115.737 139.201 116 139.837 116 140.5V154.5ZM109 148H100C99.2044 148 98.4413 148.316 97.8787 148.879C97.3161 149.441 97 150.204 97 151C97 151.796 97.3161 152.559 97.8787 153.121C98.4413 153.684 99.2044 154 100 154H109C109.796 154 110.559 153.684 111.121 153.121C111.684 152.559 112 151.796 112 151C112 150.204 111.684 149.441 111.121 148.879C110.559 148.316 109.796 148 109 148ZM106 149V153H103V149H106ZM98 151C98 150.47 98.2107 149.961 98.5858 149.586C98.9609 149.211 99.4696 149 100 149H102V153H100C99.4696 153 98.9609 152.789 98.5858 152.414C98.2107 152.039 98 151.53 98 151ZM109 153H107V149H109C109.53 149 110.039 149.211 110.414 149.586C110.789 149.961 111 150.47 111 151C111 151.53 110.789 152.039 110.414 152.414C110.039 152.789 109.53 153 109 153ZM98 144C98 143.802 98.0586 143.609 98.1685 143.444C98.2784 143.28 98.4346 143.152 98.6173 143.076C98.8 143 99.0011 142.981 99.1951 143.019C99.3891 143.058 99.5673 143.153 99.7071 143.293C99.847 143.433 99.9422 143.611 99.9808 143.805C100.019 143.999 99.9996 144.2 99.9239 144.383C99.8482 144.565 99.72 144.722 99.5556 144.831C99.3911 144.941 99.1978 145 99 145C98.7348 145 98.4804 144.895 98.2929 144.707C98.1054 144.52 98 144.265 98 144ZM109 144C109 143.802 109.059 143.609 109.169 143.444C109.278 143.28 109.435 143.152 109.617 143.076C109.8 143 110.001 142.981 110.195 143.019C110.389 143.058 110.567 143.153 110.707 143.293C110.847 143.433 110.942 143.611 110.981 143.805C111.019 143.999 111 144.2 110.924 144.383C110.848 144.565 110.72 144.722 110.556 144.831C110.391 144.941 110.198 145 110 145C109.735 145 109.48 144.895 109.293 144.707C109.105 144.52 109 144.265 109 144Z" fill="black"/>
<path d="M153.5 137H145V132.5C145 132.367 144.947 132.24 144.854 132.146C144.76 132.053 144.633 132 144.5 132C144.367 132 144.24 132.053 144.146 132.146C144.053 132.24 144 132.367 144 132.5V137H135.5C134.572 137 133.682 137.369 133.025 138.025C132.369 138.682 132 139.572 132 140.5V154.5C132 155.428 132.369 156.318 133.025 156.975C133.682 157.631 134.572 158 135.5 158H153.5C154.428 158 155.318 157.631 155.975 156.975C156.631 156.318 157 155.428 157 154.5V140.5C157 139.572 156.631 138.682 155.975 138.025C155.318 137.369 154.428 137 153.5 137ZM156 154.5C156 155.163 155.737 155.799 155.268 156.268C154.799 156.737 154.163 157 153.5 157H135.5C134.837 157 134.201 156.737 133.732 156.268C133.263 155.799 133 155.163 133 154.5V140.5C133 139.837 133.263 139.201 133.732 138.732C134.201 138.263 134.837 138 135.5 138H153.5C154.163 138 154.799 138.263 155.268 138.732C155.737 139.201 156 139.837 156 140.5V154.5ZM149 148H140C139.204 148 138.441 148.316 137.879 148.879C137.316 149.441 137 150.204 137 151C137 151.796 137.316 152.559 137.879 153.121C138.441 153.684 139.204 154 140 154H149C149.796 154 150.559 153.684 151.121 153.121C151.684 152.559 152 151.796 152 151C152 150.204 151.684 149.441 151.121 148.879C150.559 148.316 149.796 148 149 148ZM146 149V153H143V149H146ZM138 151C138 150.47 138.211 149.961 138.586 149.586C138.961 149.211 139.47 149 140 149H142V153H140C139.47 153 138.961 152.789 138.586 152.414C138.211 152.039 138 151.53 138 151ZM149 153H147V149H149C149.53 149 150.039 149.211 150.414 149.586C150.789 149.961 151 150.47 151 151C151 151.53 150.789 152.039 150.414 152.414C150.039 152.789 149.53 153 149 153ZM138 144C138 143.802 138.059 143.609 138.169 143.444C138.278 143.28 138.435 143.152 138.617 143.076C138.8 143 139.001 142.981 139.195 143.019C139.389 143.058 139.567 143.153 139.707 143.293C139.847 143.433 139.942 143.611 139.981 143.805C140.019 143.999 140 144.2 139.924 144.383C139.848 144.565 139.72 144.722 139.556 144.831C139.391 144.941 139.198 145 139 145C138.735 145 138.48 144.895 138.293 144.707C138.105 144.52 138 144.265 138 144ZM149 144C149 143.802 149.059 143.609 149.169 143.444C149.278 143.28 149.435 143.152 149.617 143.076C149.8 143 150.001 142.981 150.195 143.019C150.389 143.058 150.567 143.153 150.707 143.293C150.847 143.433 150.942 143.611 150.981 143.805C151.019 143.999 151 144.2 150.924 144.383C150.848 144.565 150.72 144.722 150.556 144.831C150.391 144.941 150.198 145 150 145C149.735 145 149.48 144.895 149.293 144.707C149.105 144.52 149 144.265 149 144Z" fill="black"/>
<path d="M193.5 137H185V132.5C185 132.367 184.947 132.24 184.854 132.146C184.76 132.053 184.633 132 184.5 132C184.367 132 184.24 132.053 184.146 132.146C184.053 132.24 184 132.367 184 132.5V137H175.5C174.572 137 173.682 137.369 173.025 138.025C172.369 138.682 172 139.572 172 140.5V154.5C172 155.428 172.369 156.318 173.025 156.975C173.682 157.631 174.572 158 175.5 158H193.5C194.428 158 195.318 157.631 195.975 156.975C196.631 156.318 197 155.428 197 154.5V140.5C197 139.572 196.631 138.682 195.975 138.025C195.318 137.369 194.428 137 193.5 137ZM196 154.5C196 155.163 195.737 155.799 195.268 156.268C194.799 156.737 194.163 157 193.5 157H175.5C174.837 157 174.201 156.737 173.732 156.268C173.263 155.799 173 155.163 173 154.5V140.5C173 139.837 173.263 139.201 173.732 138.732C174.201 138.263 174.837 138 175.5 138H193.5C194.163 138 194.799 138.263 195.268 138.732C195.737 139.201 196 139.837 196 140.5V154.5ZM189 148H180C179.204 148 178.441 148.316 177.879 148.879C177.316 149.441 177 150.204 177 151C177 151.796 177.316 152.559 177.879 153.121C178.441 153.684 179.204 154 180 154H189C189.796 154 190.559 153.684 191.121 153.121C191.684 152.559 192 151.796 192 151C192 150.204 191.684 149.441 191.121 148.879C190.559 148.316 189.796 148 189 148ZM186 149V153H183V149H186ZM178 151C178 150.47 178.211 149.961 178.586 149.586C178.961 149.211 179.47 149 180 149H182V153H180C179.47 153 178.961 152.789 178.586 152.414C178.211 152.039 178 151.53 178 151ZM189 153H187V149H189C189.53 149 190.039 149.211 190.414 149.586C190.789 149.961 191 150.47 191 151C191 151.53 190.789 152.039 190.414 152.414C190.039 152.789 189.53 153 189 153ZM178 144C178 143.802 178.059 143.609 178.169 143.444C178.278 143.28 178.435 143.152 178.617 143.076C178.8 143 179.001 142.981 179.195 143.019C179.389 143.058 179.567 143.153 179.707 143.293C179.847 143.433 179.942 143.611 179.981 143.805C180.019 143.999 180 144.2 179.924 144.383C179.848 144.565 179.72 144.722 179.556 144.831C179.391 144.941 179.198 145 179 145C178.735 145 178.48 144.895 178.293 144.707C178.105 144.52 178 144.265 178 144ZM189 144C189 143.802 189.059 143.609 189.169 143.444C189.278 143.28 189.435 143.152 189.617 143.076C189.8 143 190.001 142.981 190.195 143.019C190.389 143.058 190.567 143.153 190.707 143.293C190.847 143.433 190.942 143.611 190.981 143.805C191.019 143.999 191 144.2 190.924 144.383C190.848 144.565 190.72 144.722 190.556 144.831C190.391 144.941 190.198 145 190 145C189.735 145 189.48 144.895 189.293 144.707C189.105 144.52 189 144.265 189 144Z" fill="black"/>
<path d="M73.5 177H65V172.5C65 172.367 64.9473 172.24 64.8536 172.146C64.7598 172.053 64.6326 172 64.5 172C64.3674 172 64.2402 172.053 64.1464 172.146C64.0527 172.24 64 172.367 64 172.5V177H55.5C54.5717 177 53.6815 177.369 53.0251 178.025C52.3687 178.682 52 179.572 52 180.5V194.5C52 195.428 52.3687 196.318 53.0251 196.975C53.6815 197.631 54.5717 198 55.5 198H73.5C74.4283 198 75.3185 197.631 75.9749 196.975C76.6313 196.318 77 195.428 77 194.5V180.5C77 179.572 76.6313 178.682 75.9749 178.025C75.3185 177.369 74.4283 177 73.5 177ZM76 194.5C76 195.163 75.7366 195.799 75.2678 196.268C74.7989 196.737 74.163 197 73.5 197H55.5C54.837 197 54.2011 196.737 53.7322 196.268C53.2634 195.799 53 195.163 53 194.5V180.5C53 179.837 53.2634 179.201 53.7322 178.732C54.2011 178.263 54.837 178 55.5 178H73.5C74.163 178 74.7989 178.263 75.2678 178.732C75.7366 179.201 76 179.837 76 180.5V194.5ZM69 188H60C59.2044 188 58.4413 188.316 57.8787 188.879C57.3161 189.441 57 190.204 57 191C57 191.796 57.3161 192.559 57.8787 193.121C58.4413 193.684 59.2044 194 60 194H69C69.7956 194 70.5587 193.684 71.1213 193.121C71.6839 192.559 72 191.796 72 191C72 190.204 71.6839 189.441 71.1213 188.879C70.5587 188.316 69.7956 188 69 188ZM66 189V193H63V189H66ZM58 191C58 190.47 58.2107 189.961 58.5858 189.586C58.9609 189.211 59.4696 189 60 189H62V193H60C59.4696 193 58.9609 192.789 58.5858 192.414C58.2107 192.039 58 191.53 58 191ZM69 193H67V189H69C69.5304 189 70.0391 189.211 70.4142 189.586C70.7893 189.961 71 190.47 71 191C71 191.53 70.7893 192.039 70.4142 192.414C70.0391 192.789 69.5304 193 69 193ZM58 184C58 183.802 58.0586 183.609 58.1685 183.444C58.2784 183.28 58.4346 183.152 58.6173 183.076C58.8 183 59.0011 182.981 59.1951 183.019C59.3891 183.058 59.5673 183.153 59.7071 183.293C59.847 183.433 59.9422 183.611 59.9808 183.805C60.0194 183.999 59.9996 184.2 59.9239 184.383C59.8482 184.565 59.72 184.722 59.5556 184.831C59.3911 184.941 59.1978 185 59 185C58.7348 185 58.4804 184.895 58.2929 184.707C58.1054 184.52 58 184.265 58 184ZM69 184C69 183.802 69.0586 183.609 69.1685 183.444C69.2784 183.28 69.4346 183.152 69.6173 183.076C69.8 183 70.0011 182.981 70.1951 183.019C70.3891 183.058 70.5673 183.153 70.7071 183.293C70.847 183.433 70.9422 183.611 70.9808 183.805C71.0194 183.999 70.9996 184.2 70.9239 184.383C70.8482 184.565 70.72 184.722 70.5556 184.831C70.3911 184.941 70.1978 185 70 185C69.7348 185 69.4804 184.895 69.2929 184.707C69.1054 184.52 69 184.265 69 184Z" fill="black"/>
<path d="M113.5 177H105V172.5C105 172.367 104.947 172.24 104.854 172.146C104.76 172.053 104.633 172 104.5 172C104.367 172 104.24 172.053 104.146 172.146C104.053 172.24 104 172.367 104 172.5V177H95.5C94.5717 177 93.6815 177.369 93.0251 178.025C92.3687 178.682 92 179.572 92 180.5V194.5C92 195.428 92.3687 196.318 93.0251 196.975C93.6815 197.631 94.5717 198 95.5 198H113.5C114.428 198 115.318 197.631 115.975 196.975C116.631 196.318 117 195.428 117 194.5V180.5C117 179.572 116.631 178.682 115.975 178.025C115.318 177.369 114.428 177 113.5 177ZM116 194.5C116 195.163 115.737 195.799 115.268 196.268C114.799 196.737 114.163 197 113.5 197H95.5C94.837 197 94.2011 196.737 93.7322 196.268C93.2634 195.799 93 195.163 93 194.5V180.5C93 179.837 93.2634 179.201 93.7322 178.732C94.2011 178.263 94.837 178 95.5 178H113.5C114.163 178 114.799 178.263 115.268 178.732C115.737 179.201 116 179.837 116 180.5V194.5ZM109 188H100C99.2044 188 98.4413 188.316 97.8787 188.879C97.3161 189.441 97 190.204 97 191C97 191.796 97.3161 192.559 97.8787 193.121C98.4413 193.684 99.2044 194 100 194H109C109.796 194 110.559 193.684 111.121 193.121C111.684 192.559 112 191.796 112 191C112 190.204 111.684 189.441 111.121 188.879C110.559 188.316 109.796 188 109 188ZM106 189V193H103V189H106ZM98 191C98 190.47 98.2107 189.961 98.5858 189.586C98.9609 189.211 99.4696 189 100 189H102V193H100C99.4696 193 98.9609 192.789 98.5858 192.414C98.2107 192.039 98 191.53 98 191ZM109 193H107V189H109C109.53 189 110.039 189.211 110.414 189.586C110.789 189.961 111 190.47 111 191C111 191.53 110.789 192.039 110.414 192.414C110.039 192.789 109.53 193 109 193ZM98 184C98 183.802 98.0586 183.609 98.1685 183.444C98.2784 183.28 98.4346 183.152 98.6173 183.076C98.8 183 99.0011 182.981 99.1951 183.019C99.3891 183.058 99.5673 183.153 99.7071 183.293C99.847 183.433 99.9422 183.611 99.9808 183.805C100.019 183.999 99.9996 184.2 99.9239 184.383C99.8482 184.565 99.72 184.722 99.5556 184.831C99.3911 184.941 99.1978 185 99 185C98.7348 185 98.4804 184.895 98.2929 184.707C98.1054 184.52 98 184.265 98 184ZM109 184C109 183.802 109.059 183.609 109.169 183.444C109.278 183.28 109.435 183.152 109.617 183.076C109.8 183 110.001 182.981 110.195 183.019C110.389 183.058 110.567 183.153 110.707 183.293C110.847 183.433 110.942 183.611 110.981 183.805C111.019 183.999 111 184.2 110.924 184.383C110.848 184.565 110.72 184.722 110.556 184.831C110.391 184.941 110.198 185 110 185C109.735 185 109.48 184.895 109.293 184.707C109.105 184.52 109 184.265 109 184Z" fill="black"/>
<path d="M153.5 177H145V172.5C145 172.367 144.947 172.24 144.854 172.146C144.76 172.053 144.633 172 144.5 172C144.367 172 144.24 172.053 144.146 172.146C144.053 172.24 144 172.367 144 172.5V177H135.5C134.572 177 133.682 177.369 133.025 178.025C132.369 178.682 132 179.572 132 180.5V194.5C132 195.428 132.369 196.318 133.025 196.975C133.682 197.631 134.572 198 135.5 198H153.5C154.428 198 155.318 197.631 155.975 196.975C156.631 196.318 157 195.428 157 194.5V180.5C157 179.572 156.631 178.682 155.975 178.025C155.318 177.369 154.428 177 153.5 177ZM156 194.5C156 195.163 155.737 195.799 155.268 196.268C154.799 196.737 154.163 197 153.5 197H135.5C134.837 197 134.201 196.737 133.732 196.268C133.263 195.799 133 195.163 133 194.5V180.5C133 179.837 133.263 179.201 133.732 178.732C134.201 178.263 134.837 178 135.5 178H153.5C154.163 178 154.799 178.263 155.268 178.732C155.737 179.201 156 179.837 156 180.5V194.5ZM149 188H140C139.204 188 138.441 188.316 137.879 188.879C137.316 189.441 137 190.204 137 191C137 191.796 137.316 192.559 137.879 193.121C138.441 193.684 139.204 194 140 194H149C149.796 194 150.559 193.684 151.121 193.121C151.684 192.559 152 191.796 152 191C152 190.204 151.684 189.441 151.121 188.879C150.559 188.316 149.796 188 149 188ZM146 189V193H143V189H146ZM138 191C138 190.47 138.211 189.961 138.586 189.586C138.961 189.211 139.47 189 140 189H142V193H140C139.47 193 138.961 192.789 138.586 192.414C138.211 192.039 138 191.53 138 191ZM149 193H147V189H149C149.53 189 150.039 189.211 150.414 189.586C150.789 189.961 151 190.47 151 191C151 191.53 150.789 192.039 150.414 192.414C150.039 192.789 149.53 193 149 193ZM138 184C138 183.802 138.059 183.609 138.169 183.444C138.278 183.28 138.435 183.152 138.617 183.076C138.8 183 139.001 182.981 139.195 183.019C139.389 183.058 139.567 183.153 139.707 183.293C139.847 183.433 139.942 183.611 139.981 183.805C140.019 183.999 140 184.2 139.924 184.383C139.848 184.565 139.72 184.722 139.556 184.831C139.391 184.941 139.198 185 139 185C138.735 185 138.48 184.895 138.293 184.707C138.105 184.52 138 184.265 138 184ZM149 184C149 183.802 149.059 183.609 149.169 183.444C149.278 183.28 149.435 183.152 149.617 183.076C149.8 183 150.001 182.981 150.195 183.019C150.389 183.058 150.567 183.153 150.707 183.293C150.847 183.433 150.942 183.611 150.981 183.805C151.019 183.999 151 184.2 150.924 184.383C150.848 184.565 150.72 184.722 150.556 184.831C150.391 184.941 150.198 185 150 185C149.735 185 149.48 184.895 149.293 184.707C149.105 184.52 149 184.265 149 184Z" fill="black"/>
<path d="M193.5 177H185V172.5C185 172.367 184.947 172.24 184.854 172.146C184.76 172.053 184.633 172 184.5 172C184.367 172 184.24 172.053 184.146 172.146C184.053 172.24 184 172.367 184 172.5V177H175.5C174.572 177 173.682 177.369 173.025 178.025C172.369 178.682 172 179.572 172 180.5V194.5C172 195.428 172.369 196.318 173.025 196.975C173.682 197.631 174.572 198 175.5 198H193.5C194.428 198 195.318 197.631 195.975 196.975C196.631 196.318 197 195.428 197 194.5V180.5C197 179.572 196.631 178.682 195.975 178.025C195.318 177.369 194.428 177 193.5 177ZM196 194.5C196 195.163 195.737 195.799 195.268 196.268C194.799 196.737 194.163 197 193.5 197H175.5C174.837 197 174.201 196.737 173.732 196.268C173.263 195.799 173 195.163 173 194.5V180.5C173 179.837 173.263 179.201 173.732 178.732C174.201 178.263 174.837 178 175.5 178H193.5C194.163 178 194.799 178.263 195.268 178.732C195.737 179.201 196 179.837 196 180.5V194.5ZM189 188H180C179.204 188 178.441 188.316 177.879 188.879C177.316 189.441 177 190.204 177 191C177 191.796 177.316 192.559 177.879 193.121C178.441 193.684 179.204 194 180 194H189C189.796 194 190.559 193.684 191.121 193.121C191.684 192.559 192 191.796 192 191C192 190.204 191.684 189.441 191.121 188.879C190.559 188.316 189.796 188 189 188ZM186 189V193H183V189H186ZM178 191C178 190.47 178.211 189.961 178.586 189.586C178.961 189.211 179.47 189 180 189H182V193H180C179.47 193 178.961 192.789 178.586 192.414C178.211 192.039 178 191.53 178 191ZM189 193H187V189H189C189.53 189 190.039 189.211 190.414 189.586C190.789 189.961 191 190.47 191 191C191 191.53 190.789 192.039 190.414 192.414C190.039 192.789 189.53 193 189 193ZM178 184C178 183.802 178.059 183.609 178.169 183.444C178.278 183.28 178.435 183.152 178.617 183.076C178.8 183 179.001 182.981 179.195 183.019C179.389 183.058 179.567 183.153 179.707 183.293C179.847 183.433 179.942 183.611 179.981 183.805C180.019 183.999 180 184.2 179.924 184.383C179.848 184.565 179.72 184.722 179.556 184.831C179.391 184.941 179.198 185 179 185C178.735 185 178.48 184.895 178.293 184.707C178.105 184.52 178 184.265 178 184ZM189 184C189 183.802 189.059 183.609 189.169 183.444C189.278 183.28 189.435 183.152 189.617 183.076C189.8 183 190.001 182.981 190.195 183.019C190.389 183.058 190.567 183.153 190.707 183.293C190.847 183.433 190.942 183.611 190.981 183.805C191.019 183.999 191 184.2 190.924 184.383C190.848 184.565 190.72 184.722 190.556 184.831C190.391 184.941 190.198 185 190 185C189.735 185 189.48 184.895 189.293 184.707C189.105 184.52 189 184.265 189 184Z" fill="black"/>
<mask id="path-19-inside-1_726_128" fill="white">
<path fill-rule="evenodd" clip-rule="evenodd" d="M124 134.485L194.711 205.196L203.196 196.711L132.485 126L203.196 55.2893L194.711 46.804L124 117.515L53.2892 46.804L44.8039 55.2893L115.515 126L44.8039 196.711L53.2892 205.196L124 134.485Z"/>
</mask>
<path fill-rule="evenodd" clip-rule="evenodd" d="M124 134.485L194.711 205.196L203.196 196.711L132.485 126L203.196 55.2893L194.711 46.804L124 117.515L53.2892 46.804L44.8039 55.2893L115.515 126L44.8039 196.711L53.2892 205.196L124 134.485Z" fill="white"/>
<path d="M194.711 205.196L194.003 205.903L194.711 206.61L195.418 205.903L194.711 205.196ZM124 134.485L124.707 133.778L124 133.071L123.293 133.778L124 134.485ZM203.196 196.711L203.903 197.418L204.61 196.711L203.903 196.004L203.196 196.711ZM132.485 126L131.778 125.293L131.071 126L131.778 126.707L132.485 126ZM203.196 55.2893L203.903 55.9964L204.61 55.2893L203.903 54.5822L203.196 55.2893ZM194.711 46.804L195.418 46.0969L194.711 45.3898L194.003 46.0969L194.711 46.804ZM124 117.515L123.293 118.222L124 118.929L124.707 118.222L124 117.515ZM53.2892 46.804L53.9963 46.0969L53.2892 45.3898L52.5821 46.0969L53.2892 46.804ZM44.8039 55.2893L44.0968 54.5822L43.3897 55.2893L44.0968 55.9964L44.8039 55.2893ZM115.515 126L116.222 126.707L116.929 126L116.222 125.293L115.515 126ZM44.8039 196.711L44.0968 196.004L43.3897 196.711L44.0968 197.418L44.8039 196.711ZM53.2892 205.196L52.5821 205.903L53.2892 206.61L53.9963 205.903L53.2892 205.196ZM195.418 204.489L124.707 133.778L123.293 135.192L194.003 205.903L195.418 204.489ZM202.489 196.004L194.003 204.489L195.418 205.903L203.903 197.418L202.489 196.004ZM131.778 126.707L202.489 197.418L203.903 196.004L133.192 125.293L131.778 126.707ZM202.489 54.5822L131.778 125.293L133.192 126.707L203.903 55.9964L202.489 54.5822ZM194.003 47.5111L202.489 55.9964L203.903 54.5822L195.418 46.0969L194.003 47.5111ZM124.707 118.222L195.418 47.5111L194.003 46.0969L123.293 116.808L124.707 118.222ZM52.5821 47.5111L123.293 118.222L124.707 116.808L53.9963 46.0969L52.5821 47.5111ZM45.511 55.9964L53.9963 47.5111L52.5821 46.0969L44.0968 54.5822L45.511 55.9964ZM116.222 125.293L45.511 54.5822L44.0968 55.9964L114.808 126.707L116.222 125.293ZM45.511 197.418L116.222 126.707L114.808 125.293L44.0968 196.004L45.511 197.418ZM53.9963 204.489L45.511 196.004L44.0968 197.418L52.5821 205.903L53.9963 204.489ZM123.293 133.778L52.5821 204.489L53.9963 205.903L124.707 135.192L123.293 133.778Z" fill="#FF485E" mask="url(#path-19-inside-1_726_128)"/>
</g>
<defs>
<clipPath id="clip0_726_128">
<rect width="259" height="259" fill="white"/>
</clipPath>
</defs>
</svg>
