<svg width="259" height="259" viewBox="0 0 259 259" fill="none" xmlns="http://www.w3.org/2000/svg">
<g clip-path="url(#clip0_702_331)">
<rect width="259" height="259" fill="white"/>
<rect x="9.5" y="9.5" width="249" height="249" stroke="#FF485E"/>
<rect x="1" y="1" width="248" height="248" fill="white" stroke="black" stroke-width="2"/>
<path d="M34.2498 28.564L38.4078 35.406H36.8128L33.6338 29.939L30.4438 35.406H28.9038L33.0618 28.564H34.2498Z" fill="#FF485E"/>
<path d="M46.8142 39.3C46.8142 40.5173 46.9205 41.599 47.1332 42.545C47.3459 43.491 47.6575 44.3453 48.0682 45.108C48.4789 45.8633 48.9849 46.571 49.5862 47.231C50.1949 47.891 50.8915 48.5473 51.6762 49.2L51.0162 49.97C49.8209 49.002 48.7979 48.0193 47.9472 47.022C47.1039 46.032 46.4585 44.921 46.0112 43.689C45.5639 42.4496 45.3402 40.9866 45.3402 39.3C45.3402 37.606 45.5639 36.143 46.0112 34.911C46.4585 33.6716 47.1039 32.557 47.9472 31.567C48.7979 30.5696 49.8209 29.5906 51.0162 28.63L51.6762 29.4C50.8695 30.0746 50.1619 30.742 49.5532 31.402C48.9445 32.062 48.4349 32.7696 48.0242 33.525C47.6209 34.273 47.3165 35.1163 47.1112 36.055C46.9132 36.9936 46.8142 38.0753 46.8142 39.3Z" fill="#FF485E"/>
<path d="M59.1476 29.807L60.2586 29.246L69.7296 48.716L68.5966 49.211L59.1476 29.807Z" fill="#FF485E"/>
<path d="M82.657 30.588L84.021 30.775V47H82.833L82.657 45.405C82.195 46.065 81.678 46.5343 81.106 46.813C80.5414 47.0843 79.9584 47.22 79.357 47.22C78.3377 47.22 77.498 46.9706 76.838 46.472C76.1854 45.966 75.7014 45.2656 75.386 44.371C75.0707 43.469 74.913 42.4313 74.913 41.258C74.913 40.1066 75.089 39.08 75.441 38.178C75.8004 37.2686 76.3137 36.5536 76.981 36.033C77.6557 35.505 78.4697 35.241 79.423 35.241C80.127 35.241 80.743 35.3656 81.271 35.615C81.799 35.857 82.261 36.2163 82.657 36.693V30.588ZM79.764 36.418C78.6934 36.418 77.872 36.825 77.3 37.639C76.7354 38.4456 76.453 39.6483 76.453 41.247C76.453 42.259 76.5667 43.1243 76.794 43.843C77.0287 44.5543 77.3734 45.097 77.828 45.471C78.2827 45.845 78.851 46.032 79.533 46.032C80.2664 46.032 80.886 45.8266 81.392 45.416C81.9054 45.0053 82.327 44.5543 82.657 44.063V38.057C82.3197 37.5363 81.898 37.133 81.392 36.847C80.8934 36.561 80.3507 36.418 79.764 36.418Z" fill="#FF485E"/>
<path d="M95.8154 27.2V53.6H94.6274V27.2H95.8154Z" fill="#FF485E"/>
<path d="M108.248 49.486V29.114H113.385V30.401H109.535V48.221H113.385V49.486H108.248Z" fill="#FF485E"/>
<path d="M127.313 31.886V46.56H125.916V33.459L122.341 35.615L121.736 34.614L126.125 31.886H127.313ZM130.569 45.823V47H122.176V45.823H130.569Z" fill="#FF485E"/>
<path d="M137.095 40.752V39.476H145.697V40.752H137.095Z" fill="#FF485E"/>
<path d="M156.512 31.71C157.568 31.71 158.448 31.963 159.152 32.469C159.856 32.9676 160.38 33.6826 160.725 34.614C161.077 35.538 161.253 36.6453 161.253 37.936C161.253 39.4833 161.106 40.7776 160.813 41.819C160.52 42.853 160.061 43.711 159.438 44.393C158.822 45.0676 158.026 45.636 157.051 46.098C156.076 46.56 154.906 46.9963 153.542 47.407L153.201 46.307C154.675 45.8816 155.896 45.383 156.864 44.811C157.839 44.2316 158.569 43.4946 159.053 42.6C159.537 41.7053 159.779 40.576 159.779 39.212L159.823 38.2C159.823 36.88 159.695 35.835 159.438 35.065C159.189 34.295 158.818 33.745 158.327 33.415C157.843 33.085 157.242 32.92 156.523 32.92C155.43 32.92 154.609 33.239 154.059 33.877C153.516 34.515 153.245 35.439 153.245 36.649C153.245 37.8663 153.505 38.7573 154.026 39.322C154.554 39.8866 155.298 40.169 156.259 40.169C157.088 40.169 157.799 39.927 158.393 39.443C158.987 38.959 159.541 38.31 160.054 37.496V39.003C159.629 39.6776 159.09 40.2386 158.437 40.686C157.792 41.1333 157.025 41.357 156.138 41.357C155.287 41.357 154.536 41.1663 153.883 40.785C153.23 40.4036 152.721 39.8536 152.354 39.135C151.987 38.4163 151.804 37.551 151.804 36.539C151.804 35.461 152.017 34.5663 152.442 33.855C152.867 33.1363 153.436 32.601 154.147 32.249C154.858 31.8896 155.647 31.71 156.512 31.71Z" fill="#FF485E"/>
<path d="M174.543 29.114V49.486H169.406V48.232H173.256V30.401H169.406V29.114H174.543Z" fill="#FF485E"/>
<path d="M182.279 29.807L183.39 29.246L192.861 48.716L191.728 49.211L182.279 29.807Z" fill="#FF485E"/>
<path d="M205.788 30.588L207.152 30.775V47H205.964L205.788 45.405C205.326 46.065 204.809 46.5343 204.237 46.813C203.673 47.0843 203.09 47.22 202.488 47.22C201.469 47.22 200.629 46.9706 199.969 46.472C199.317 45.966 198.833 45.2656 198.517 44.371C198.202 43.469 198.044 42.4313 198.044 41.258C198.044 40.1066 198.22 39.08 198.572 38.178C198.932 37.2686 199.445 36.5536 200.112 36.033C200.787 35.505 201.601 35.241 202.554 35.241C203.258 35.241 203.874 35.3656 204.402 35.615C204.93 35.857 205.392 36.2163 205.788 36.693V30.588ZM202.895 36.418C201.825 36.418 201.003 36.825 200.431 37.639C199.867 38.4456 199.584 39.6483 199.584 41.247C199.584 42.259 199.698 43.1243 199.925 43.843C200.16 44.5543 200.505 45.097 200.959 45.471C201.414 45.845 201.982 46.032 202.664 46.032C203.398 46.032 204.017 45.8266 204.523 45.416C205.037 45.0053 205.458 44.5543 205.788 44.063V38.057C205.451 37.5363 205.029 37.133 204.523 36.847C204.025 36.561 203.482 36.418 202.895 36.418Z" fill="#FF485E"/>
<path d="M218.947 27.2V53.6H217.759V27.2H218.947Z" fill="#FF485E"/>
<path d="M88.8347 56.886V71.56H87.4377V58.459L83.8627 60.615L83.2577 59.614L87.6467 56.886H88.8347ZM92.0907 70.823V72H83.6977V70.823H92.0907Z" fill="#FF485E"/>
<path d="M97.6261 54.807L98.7371 54.246L108.208 73.716L107.075 74.211L97.6261 54.807Z" fill="#FF485E"/>
<path d="M121.136 55.588L122.5 55.775V72H121.312L121.136 70.405C120.674 71.065 120.157 71.5343 119.585 71.813C119.02 72.0843 118.437 72.22 117.836 72.22C116.816 72.22 115.977 71.9706 115.317 71.472C114.664 70.966 114.18 70.2656 113.865 69.371C113.549 68.469 113.392 67.4313 113.392 66.258C113.392 65.1066 113.568 64.08 113.92 63.178C114.279 62.2686 114.792 61.5536 115.46 61.033C116.134 60.505 116.948 60.241 117.902 60.241C118.606 60.241 119.222 60.3656 119.75 60.615C120.278 60.857 120.74 61.2163 121.136 61.693V55.588ZM118.243 61.4179C117.172 61.4179 116.351 61.8249 115.779 62.639C115.214 63.4456 114.932 64.6483 114.932 66.247C114.932 67.259 115.045 68.1243 115.273 68.843C115.507 69.5543 115.852 70.097 116.307 70.471C116.761 70.845 117.33 71.032 118.012 71.032C118.745 71.032 119.365 70.8266 119.871 70.416C120.384 70.0053 120.806 69.5543 121.136 69.063V63.057C120.798 62.5363 120.377 62.133 119.871 61.847C119.372 61.561 118.829 61.4179 118.243 61.4179Z" fill="#FF485E"/>
<path d="M128.409 54.807L129.52 54.246L138.991 73.716L137.858 74.211L128.409 54.807Z" fill="#FF485E"/>
<path d="M151.918 55.588L153.282 55.775V72H152.094L151.918 70.405C151.456 71.065 150.939 71.5343 150.367 71.813C149.803 72.0843 149.22 72.22 148.618 72.22C147.599 72.22 146.759 71.9706 146.099 71.472C145.447 70.966 144.963 70.2656 144.647 69.371C144.332 68.469 144.174 67.4313 144.174 66.258C144.174 65.1066 144.35 64.08 144.702 63.178C145.062 62.2686 145.575 61.5536 146.242 61.033C146.917 60.505 147.731 60.241 148.684 60.241C149.388 60.241 150.004 60.3656 150.532 60.615C151.06 60.857 151.522 61.2163 151.918 61.693V55.588ZM149.025 61.4179C147.955 61.4179 147.133 61.8249 146.561 62.639C145.997 63.4456 145.714 64.6483 145.714 66.247C145.714 67.259 145.828 68.1243 146.055 68.843C146.29 69.5543 146.635 70.097 147.089 70.471C147.544 70.845 148.112 71.032 148.794 71.032C149.528 71.032 150.147 70.8266 150.653 70.416C151.167 70.0053 151.588 69.5543 151.918 69.063V63.057C151.581 62.5363 151.159 62.133 150.653 61.847C150.155 61.561 149.612 61.4179 149.025 61.4179Z" fill="#FF485E"/>
<path d="M165.077 52.2V78.6H163.889V52.2H165.077Z" fill="#FF485E"/>
<path d="M63.7236 81.677C64.6183 81.677 65.3883 81.8566 66.0336 82.216C66.6863 82.5753 67.1886 83.0703 67.5406 83.701C67.8999 84.3316 68.0796 85.054 68.0796 85.868C68.0796 86.5866 67.9549 87.2906 67.7056 87.9799C67.4563 88.6619 67.0566 89.3806 66.5066 90.136C65.9566 90.884 65.238 91.7163 64.3506 92.6329C63.4706 93.5423 62.3926 94.5799 61.1166 95.7459H68.4316L68.2446 97H59.5766V95.779C60.7573 94.6496 61.7583 93.6633 62.5796 92.82C63.401 91.9766 64.0756 91.2396 64.6036 90.609C65.1316 89.971 65.5423 89.3916 65.8356 88.871C66.129 88.3503 66.3306 87.8516 66.4406 87.375C66.5579 86.8983 66.6166 86.3923 66.6166 85.857C66.6166 84.933 66.3563 84.207 65.8356 83.679C65.3223 83.151 64.6146 82.887 63.7126 82.887C62.9133 82.887 62.2679 83.019 61.7766 83.283C61.2853 83.5396 60.7866 83.954 60.2806 84.526L59.2686 83.7229C59.8773 83.0043 60.5299 82.4836 61.2266 82.1609C61.9306 81.8383 62.7629 81.677 63.7236 81.677Z" fill="#FF485E"/>
<path d="M77.465 99.486V79.114H82.602V80.401H78.752V98.221H82.602V99.486H77.465Z" fill="#FF485E"/>
<path d="M95.2214 81.677C96.7981 81.677 97.9898 82.3443 98.7964 83.679C99.6104 85.0136 100.017 86.935 100.017 89.443C100.017 91.9583 99.6104 93.8833 98.7964 95.2179C97.9898 96.5526 96.7981 97.22 95.2214 97.22C93.6521 97.22 92.4604 96.5526 91.6464 95.2179C90.8324 93.8833 90.4254 91.9583 90.4254 89.443C90.4254 86.935 90.8324 85.0136 91.6464 83.679C92.4604 82.3443 93.6521 81.677 95.2214 81.677ZM95.2214 82.865C94.2461 82.865 93.4614 83.382 92.8674 84.416C92.2808 85.4426 91.9874 87.1183 91.9874 89.443C91.9874 90.5796 92.0534 91.5623 92.1854 92.391C92.3174 93.2196 92.5154 93.9016 92.7794 94.437C93.0508 94.9723 93.3881 95.3719 93.7914 95.6359C94.2021 95.8926 94.6788 96.021 95.2214 96.021C95.8814 96.021 96.4534 95.7936 96.9374 95.339C97.4288 94.8843 97.8064 94.1729 98.0704 93.2049C98.3344 92.2296 98.4664 90.9756 98.4664 89.443C98.4664 87.925 98.3491 86.682 98.1144 85.714C97.8871 84.7386 97.5314 84.02 97.0474 83.558C96.5708 83.096 95.9621 82.865 95.2214 82.865ZM97.6084 83.415L97.9714 84.944L92.9334 95.1079L92.3394 93.8979L97.6084 83.415Z" fill="#FF485E"/>
<path d="M106.312 90.752V89.476H114.914V90.752H106.312Z" fill="#FF485E"/>
<path d="M125.674 81.677L126.796 82.205L122.638 92.028H130.866V93.172H121.164V92.116L125.674 81.677ZM128.776 87.551V97H127.456V92.38L127.654 87.551H128.776Z" fill="#FF485E"/>
<path d="M143.761 79.114V99.486H138.624V98.2319H142.474V80.401H138.624V79.114H143.761Z" fill="#FF485E"/>
<path d="M151.496 79.8069L152.607 79.246L162.078 98.716L160.945 99.211L151.496 79.8069Z" fill="#FF485E"/>
<path d="M175.005 80.588L176.369 80.775V97H175.181L175.005 95.405C174.543 96.065 174.026 96.5343 173.454 96.813C172.89 97.0843 172.307 97.22 171.705 97.22C170.686 97.22 169.846 96.9706 169.186 96.472C168.534 95.966 168.05 95.2656 167.734 94.3709C167.419 93.4689 167.261 92.4313 167.261 91.2579C167.261 90.1066 167.437 89.08 167.789 88.178C168.149 87.2686 168.662 86.5536 169.329 86.033C170.004 85.505 170.818 85.241 171.771 85.241C172.475 85.241 173.091 85.3656 173.619 85.615C174.147 85.857 174.609 86.2163 175.005 86.693V80.588ZM172.112 86.4179C171.042 86.4179 170.22 86.8249 169.648 87.639C169.084 88.4456 168.801 89.6483 168.801 91.2469C168.801 92.2589 168.915 93.1243 169.142 93.8429C169.377 94.5543 169.722 95.097 170.176 95.471C170.631 95.845 171.199 96.032 171.881 96.032C172.615 96.032 173.234 95.8266 173.74 95.416C174.254 95.0053 174.675 94.5543 175.005 94.063V88.057C174.668 87.5363 174.246 87.133 173.74 86.847C173.242 86.561 172.699 86.4179 172.112 86.4179Z" fill="#FF485E"/>
<path d="M188.164 77.2V103.6H186.976V77.2H188.164Z" fill="#FF485E"/>
<path d="M56.0279 106.677C56.9226 106.677 57.6926 106.857 58.3379 107.216C58.9906 107.575 59.4929 108.07 59.8449 108.701C60.2042 109.332 60.3839 110.054 60.3839 110.868C60.3839 111.587 60.2592 112.291 60.0099 112.98C59.7606 113.662 59.3609 114.381 58.8109 115.136C58.2609 115.884 57.5422 116.716 56.6549 117.633C55.7749 118.542 54.6969 119.58 53.4209 120.746H60.7359L60.5489 122H51.8809V120.779C53.0616 119.65 54.0626 118.663 54.8839 117.82C55.7052 116.977 56.3799 116.24 56.9079 115.609C57.4359 114.971 57.8466 114.392 58.1399 113.871C58.4332 113.35 58.6349 112.852 58.7449 112.375C58.8622 111.898 58.9209 111.392 58.9209 110.857C58.9209 109.933 58.6606 109.207 58.1399 108.679C57.6266 108.151 56.9189 107.887 56.0169 107.887C55.2176 107.887 54.5722 108.019 54.0809 108.283C53.5896 108.54 53.0909 108.954 52.5849 109.526L51.5729 108.723C52.1816 108.004 52.8342 107.484 53.5309 107.161C54.2349 106.838 55.0672 106.677 56.0279 106.677Z" fill="#FF485E"/>
<path d="M76.0613 106.886L75.8193 108.052H69.7143V113.277C70.2057 113.006 70.6603 112.822 71.0783 112.727C71.4963 112.624 71.951 112.573 72.4423 112.573C73.2783 112.573 74.0007 112.756 74.6093 113.123C75.2253 113.482 75.6983 114.014 76.0283 114.718C76.3657 115.415 76.5343 116.265 76.5343 117.27C76.5343 118.267 76.3363 119.14 75.9403 119.888C75.5443 120.629 74.9833 121.204 74.2573 121.615C73.5313 122.018 72.6697 122.22 71.6723 122.22C70.8143 122.22 70.048 122.073 69.3733 121.78C68.706 121.479 68.0753 121.061 67.4813 120.526L68.3613 119.635C68.8527 120.104 69.3697 120.453 69.9123 120.68C70.4623 120.907 71.082 121.021 71.7713 121.021C72.8273 121.021 73.645 120.702 74.2243 120.064C74.8037 119.426 75.0933 118.465 75.0933 117.182C75.0933 116.309 74.9613 115.627 74.6973 115.136C74.4333 114.637 74.0777 114.285 73.6303 114.08C73.1903 113.867 72.7027 113.761 72.1673 113.761C71.6687 113.761 71.2433 113.805 70.8913 113.893C70.5393 113.981 70.125 114.106 69.6483 114.267H68.4163V106.886H76.0613Z" fill="#FF485E"/>
<path d="M85.1607 124.486V104.114H90.2977V105.401H86.4477V123.221H90.2977V124.486H85.1607Z" fill="#FF485E"/>
<path d="M102.917 106.677C104.494 106.677 105.685 107.344 106.492 108.679C107.306 110.014 107.713 111.935 107.713 114.443C107.713 116.958 107.306 118.883 106.492 120.218C105.685 121.553 104.494 122.22 102.917 122.22C101.348 122.22 100.156 121.553 99.3421 120.218C98.5281 118.883 98.1211 116.958 98.1211 114.443C98.1211 111.935 98.5281 110.014 99.3421 108.679C100.156 107.344 101.348 106.677 102.917 106.677ZM102.917 107.865C101.942 107.865 101.157 108.382 100.563 109.416C99.9765 110.443 99.6831 112.118 99.6831 114.443C99.6831 115.58 99.7491 116.562 99.8811 117.391C100.013 118.22 100.211 118.902 100.475 119.437C100.746 119.972 101.084 120.372 101.487 120.636C101.898 120.893 102.374 121.021 102.917 121.021C103.577 121.021 104.149 120.794 104.633 120.339C105.124 119.884 105.502 119.173 105.766 118.205C106.03 117.23 106.162 115.976 106.162 114.443C106.162 112.925 106.045 111.682 105.81 110.714C105.583 109.739 105.227 109.02 104.743 108.558C104.266 108.096 103.658 107.865 102.917 107.865ZM105.304 108.415L105.667 109.944L100.629 120.108L100.035 118.898L105.304 108.415Z" fill="#FF485E"/>
<path d="M114.008 115.752V114.476H122.61V115.752H114.008Z" fill="#FF485E"/>
<path d="M137.627 106.886L137.385 108.052H131.28V113.277C131.771 113.006 132.226 112.822 132.644 112.727C133.062 112.624 133.517 112.573 134.008 112.573C134.844 112.573 135.566 112.756 136.175 113.123C136.791 113.482 137.264 114.014 137.594 114.718C137.931 115.415 138.1 116.265 138.1 117.27C138.1 118.267 137.902 119.14 137.506 119.888C137.11 120.629 136.549 121.204 135.823 121.615C135.097 122.018 134.235 122.22 133.238 122.22C132.38 122.22 131.614 122.073 130.939 121.78C130.272 121.479 129.641 121.061 129.047 120.526L129.927 119.635C130.418 120.104 130.935 120.453 131.478 120.68C132.028 120.907 132.648 121.021 133.337 121.021C134.393 121.021 135.211 120.702 135.79 120.064C136.369 119.426 136.659 118.465 136.659 117.182C136.659 116.309 136.527 115.627 136.263 115.136C135.999 114.637 135.643 114.285 135.196 114.08C134.756 113.867 134.268 113.761 133.733 113.761C133.234 113.761 132.809 113.805 132.457 113.893C132.105 113.981 131.691 114.106 131.214 114.267H129.982V106.886H137.627Z" fill="#FF485E"/>
<path d="M151.456 104.114V124.486H146.319V123.232H150.169V105.401H146.319V104.114H151.456Z" fill="#FF485E"/>
<path d="M166.716 114.3C166.716 113.075 166.613 111.994 166.408 111.055C166.21 110.116 165.905 109.273 165.495 108.525C165.091 107.77 164.585 107.062 163.977 106.402C163.368 105.742 162.66 105.075 161.854 104.4L162.514 103.63C163.716 104.591 164.739 105.57 165.583 106.567C166.426 107.557 167.071 108.672 167.519 109.911C167.966 111.143 168.19 112.606 168.19 114.3C168.19 115.987 167.966 117.45 167.519 118.689C167.071 119.921 166.426 121.032 165.583 122.022C164.739 123.019 163.716 124.002 162.514 124.97L161.854 124.2C162.638 123.547 163.331 122.891 163.933 122.231C164.541 121.571 165.051 120.863 165.462 120.108C165.872 119.345 166.184 118.491 166.397 117.545C166.609 116.599 166.716 115.517 166.716 114.3Z" fill="#FF485E"/>
<path d="M174.583 104.807L175.694 104.246L185.165 123.716L184.032 124.211L174.583 104.807Z" fill="#FF485E"/>
<path d="M193.473 120.416C193.473 120.086 193.55 119.789 193.704 119.525C193.858 119.254 194.067 119.041 194.331 118.887C194.595 118.733 194.895 118.656 195.233 118.656C195.585 118.656 195.896 118.733 196.168 118.887C196.439 119.041 196.652 119.254 196.806 119.525C196.96 119.789 197.037 120.086 197.037 120.416C197.037 120.753 196.96 121.061 196.806 121.34C196.652 121.611 196.439 121.828 196.168 121.989C195.896 122.143 195.585 122.22 195.233 122.22C194.895 122.22 194.595 122.143 194.331 121.989C194.067 121.828 193.858 121.611 193.704 121.34C193.55 121.061 193.473 120.753 193.473 120.416Z" fill="#FF485E"/>
<path d="M39.1185 139.3C39.1185 140.517 39.2248 141.599 39.4375 142.545C39.6502 143.491 39.9618 144.345 40.3725 145.108C40.7832 145.863 41.2892 146.571 41.8905 147.231C42.4992 147.891 43.1958 148.547 43.9805 149.2L43.3205 149.97C42.1252 149.002 41.1022 148.019 40.2515 147.022C39.4082 146.032 38.7628 144.921 38.3155 143.689C37.8682 142.45 37.6445 140.987 37.6445 139.3C37.6445 137.606 37.8682 136.143 38.3155 134.911C38.7628 133.672 39.4082 132.557 40.2515 131.567C41.1022 130.57 42.1252 129.591 43.3205 128.63L43.9805 129.4C43.1738 130.075 42.4662 130.742 41.8575 131.402C41.2488 132.062 40.7392 132.77 40.3285 133.525C39.9252 134.273 39.6208 135.116 39.4155 136.055C39.2175 136.994 39.1185 138.075 39.1185 139.3Z" fill="#FF485E"/>
<path d="M51.4519 129.807L52.5629 129.246L62.0339 148.716L60.9009 149.211L51.4519 129.807Z" fill="#FF485E"/>
<path d="M74.9613 130.588L76.3253 130.775V147H75.1373L74.9613 145.405C74.4993 146.065 73.9823 146.534 73.4103 146.813C72.8457 147.084 72.2627 147.22 71.6613 147.22C70.642 147.22 69.8023 146.971 69.1423 146.472C68.4897 145.966 68.0057 145.266 67.6903 144.371C67.375 143.469 67.2173 142.431 67.2173 141.258C67.2173 140.107 67.3933 139.08 67.7453 138.178C68.1047 137.269 68.618 136.554 69.2853 136.033C69.96 135.505 70.774 135.241 71.7273 135.241C72.4313 135.241 73.0473 135.366 73.5753 135.615C74.1033 135.857 74.5653 136.216 74.9613 136.693V130.588ZM72.0683 136.418C70.9977 136.418 70.1763 136.825 69.6043 137.639C69.0397 138.446 68.7573 139.648 68.7573 141.247C68.7573 142.259 68.871 143.124 69.0983 143.843C69.333 144.554 69.6777 145.097 70.1323 145.471C70.587 145.845 71.1553 146.032 71.8373 146.032C72.5707 146.032 73.1903 145.827 73.6963 145.416C74.2097 145.005 74.6313 144.554 74.9613 144.063V138.057C74.624 137.536 74.2023 137.133 73.6963 136.847C73.1977 136.561 72.655 136.418 72.0683 136.418Z" fill="#FF485E"/>
<path d="M88.1197 127.2V153.6H86.9317V127.2H88.1197Z" fill="#FF485E"/>
<path d="M100.552 149.486V129.114H105.689V130.401H101.839V148.221H105.689V149.486H100.552Z" fill="#FF485E"/>
<path d="M119.618 131.886V146.56H118.221V133.459L114.646 135.615L114.041 134.614L118.43 131.886H119.618ZM122.874 145.823V147H114.481V145.823H122.874Z" fill="#FF485E"/>
<path d="M129.399 140.752V139.476H138.001V140.752H129.399Z" fill="#FF485E"/>
<path d="M148.816 131.71C149.872 131.71 150.752 131.963 151.456 132.469C152.16 132.968 152.685 133.683 153.029 134.614C153.381 135.538 153.557 136.645 153.557 137.936C153.557 139.483 153.411 140.778 153.117 141.819C152.824 142.853 152.366 143.711 151.742 144.393C151.126 145.068 150.331 145.636 149.355 146.098C148.38 146.56 147.21 146.996 145.846 147.407L145.505 146.307C146.979 145.882 148.2 145.383 149.168 144.811C150.144 144.232 150.873 143.495 151.357 142.6C151.841 141.705 152.083 140.576 152.083 139.212L152.127 138.2C152.127 136.88 151.999 135.835 151.742 135.065C151.493 134.295 151.123 133.745 150.631 133.415C150.147 133.085 149.546 132.92 148.827 132.92C147.735 132.92 146.913 133.239 146.363 133.877C145.821 134.515 145.549 135.439 145.549 136.649C145.549 137.866 145.81 138.757 146.33 139.322C146.858 139.887 147.603 140.169 148.563 140.169C149.392 140.169 150.103 139.927 150.697 139.443C151.291 138.959 151.845 138.31 152.358 137.496V139.003C151.933 139.678 151.394 140.239 150.741 140.686C150.096 141.133 149.33 141.357 148.442 141.357C147.592 141.357 146.84 141.166 146.187 140.785C145.535 140.404 145.025 139.854 144.658 139.135C144.292 138.416 144.108 137.551 144.108 136.539C144.108 135.461 144.321 134.566 144.746 133.855C145.172 133.136 145.74 132.601 146.451 132.249C147.163 131.89 147.951 131.71 148.816 131.71Z" fill="#FF485E"/>
<path d="M166.848 129.114V149.486H161.711V148.232H165.561V130.401H161.711V129.114H166.848Z" fill="#FF485E"/>
<path d="M174.583 129.807L175.694 129.246L185.165 148.716L184.032 149.211L174.583 129.807Z" fill="#FF485E"/>
<path d="M198.093 130.588L199.457 130.775V147H198.269L198.093 145.405C197.631 146.065 197.114 146.534 196.542 146.813C195.977 147.084 195.394 147.22 194.793 147.22C193.773 147.22 192.934 146.971 192.274 146.472C191.621 145.966 191.137 145.266 190.822 144.371C190.506 143.469 190.349 142.431 190.349 141.258C190.349 140.107 190.525 139.08 190.877 138.178C191.236 137.269 191.749 136.554 192.417 136.033C193.091 135.505 193.905 135.241 194.859 135.241C195.563 135.241 196.179 135.366 196.707 135.615C197.235 135.857 197.697 136.216 198.093 136.693V130.588ZM195.2 136.418C194.129 136.418 193.308 136.825 192.736 137.639C192.171 138.446 191.889 139.648 191.889 141.247C191.889 142.259 192.002 143.124 192.23 143.843C192.464 144.554 192.809 145.097 193.264 145.471C193.718 145.845 194.287 146.032 194.969 146.032C195.702 146.032 196.322 145.827 196.828 145.416C197.341 145.005 197.763 144.554 198.093 144.063V138.057C197.755 137.536 197.334 137.133 196.828 136.847C196.329 136.561 195.786 136.418 195.2 136.418Z" fill="#FF485E"/>
<path d="M211.251 127.2V153.6H210.063V127.2H211.251Z" fill="#FF485E"/>
<path d="M88.8347 156.886V171.56H87.4377V158.459L83.8627 160.615L83.2577 159.614L87.6467 156.886H88.8347ZM92.0907 170.823V172H83.6977V170.823H92.0907Z" fill="#FF485E"/>
<path d="M97.6261 154.807L98.7371 154.246L108.208 173.716L107.075 174.211L97.6261 154.807Z" fill="#FF485E"/>
<path d="M121.136 155.588L122.5 155.775V172H121.312L121.136 170.405C120.674 171.065 120.157 171.534 119.585 171.813C119.02 172.084 118.437 172.22 117.836 172.22C116.816 172.22 115.977 171.971 115.317 171.472C114.664 170.966 114.18 170.266 113.865 169.371C113.549 168.469 113.392 167.431 113.392 166.258C113.392 165.107 113.568 164.08 113.92 163.178C114.279 162.269 114.792 161.554 115.46 161.033C116.134 160.505 116.948 160.241 117.902 160.241C118.606 160.241 119.222 160.366 119.75 160.615C120.278 160.857 120.74 161.216 121.136 161.693V155.588ZM118.243 161.418C117.172 161.418 116.351 161.825 115.779 162.639C115.214 163.446 114.932 164.648 114.932 166.247C114.932 167.259 115.045 168.124 115.273 168.843C115.507 169.554 115.852 170.097 116.307 170.471C116.761 170.845 117.33 171.032 118.012 171.032C118.745 171.032 119.365 170.827 119.871 170.416C120.384 170.005 120.806 169.554 121.136 169.063V163.057C120.798 162.536 120.377 162.133 119.871 161.847C119.372 161.561 118.829 161.418 118.243 161.418Z" fill="#FF485E"/>
<path d="M128.409 154.807L129.52 154.246L138.991 173.716L137.858 174.211L128.409 154.807Z" fill="#FF485E"/>
<path d="M151.918 155.588L153.282 155.775V172H152.094L151.918 170.405C151.456 171.065 150.939 171.534 150.367 171.813C149.803 172.084 149.22 172.22 148.618 172.22C147.599 172.22 146.759 171.971 146.099 171.472C145.447 170.966 144.963 170.266 144.647 169.371C144.332 168.469 144.174 167.431 144.174 166.258C144.174 165.107 144.35 164.08 144.702 163.178C145.062 162.269 145.575 161.554 146.242 161.033C146.917 160.505 147.731 160.241 148.684 160.241C149.388 160.241 150.004 160.366 150.532 160.615C151.06 160.857 151.522 161.216 151.918 161.693V155.588ZM149.025 161.418C147.955 161.418 147.133 161.825 146.561 162.639C145.997 163.446 145.714 164.648 145.714 166.247C145.714 167.259 145.828 168.124 146.055 168.843C146.29 169.554 146.635 170.097 147.089 170.471C147.544 170.845 148.112 171.032 148.794 171.032C149.528 171.032 150.147 170.827 150.653 170.416C151.167 170.005 151.588 169.554 151.918 169.063V163.057C151.581 162.536 151.159 162.133 150.653 161.847C150.155 161.561 149.612 161.418 149.025 161.418Z" fill="#FF485E"/>
<path d="M165.077 152.2V178.6H163.889V152.2H165.077Z" fill="#FF485E"/>
<path d="M63.7236 181.677C64.6183 181.677 65.3883 181.857 66.0336 182.216C66.6863 182.575 67.1886 183.07 67.5406 183.701C67.8999 184.332 68.0796 185.054 68.0796 185.868C68.0796 186.587 67.9549 187.291 67.7056 187.98C67.4563 188.662 67.0566 189.381 66.5066 190.136C65.9566 190.884 65.238 191.716 64.3506 192.633C63.4706 193.542 62.3926 194.58 61.1166 195.746H68.4316L68.2446 197H59.5766V195.779C60.7573 194.65 61.7583 193.663 62.5796 192.82C63.401 191.977 64.0756 191.24 64.6036 190.609C65.1316 189.971 65.5423 189.392 65.8356 188.871C66.129 188.35 66.3306 187.852 66.4406 187.375C66.5579 186.898 66.6166 186.392 66.6166 185.857C66.6166 184.933 66.3563 184.207 65.8356 183.679C65.3223 183.151 64.6146 182.887 63.7126 182.887C62.9133 182.887 62.2679 183.019 61.7766 183.283C61.2853 183.54 60.7866 183.954 60.2806 184.526L59.2686 183.723C59.8773 183.004 60.5299 182.484 61.2266 182.161C61.9306 181.838 62.7629 181.677 63.7236 181.677Z" fill="#FF485E"/>
<path d="M77.465 199.486V179.114H82.602V180.401H78.752V198.221H82.602V199.486H77.465Z" fill="#FF485E"/>
<path d="M95.2214 181.677C96.7981 181.677 97.9898 182.344 98.7964 183.679C99.6104 185.014 100.017 186.935 100.017 189.443C100.017 191.958 99.6104 193.883 98.7964 195.218C97.9898 196.553 96.7981 197.22 95.2214 197.22C93.6521 197.22 92.4604 196.553 91.6464 195.218C90.8324 193.883 90.4254 191.958 90.4254 189.443C90.4254 186.935 90.8324 185.014 91.6464 183.679C92.4604 182.344 93.6521 181.677 95.2214 181.677ZM95.2214 182.865C94.2461 182.865 93.4614 183.382 92.8674 184.416C92.2808 185.443 91.9874 187.118 91.9874 189.443C91.9874 190.58 92.0534 191.562 92.1854 192.391C92.3174 193.22 92.5154 193.902 92.7794 194.437C93.0508 194.972 93.3881 195.372 93.7914 195.636C94.2021 195.893 94.6788 196.021 95.2214 196.021C95.8814 196.021 96.4534 195.794 96.9374 195.339C97.4288 194.884 97.8064 194.173 98.0704 193.205C98.3344 192.23 98.4664 190.976 98.4664 189.443C98.4664 187.925 98.3491 186.682 98.1144 185.714C97.8871 184.739 97.5314 184.02 97.0474 183.558C96.5708 183.096 95.9621 182.865 95.2214 182.865ZM97.6084 183.415L97.9714 184.944L92.9334 195.108L92.3394 193.898L97.6084 183.415Z" fill="#FF485E"/>
<path d="M106.312 190.752V189.476H114.914V190.752H106.312Z" fill="#FF485E"/>
<path d="M125.674 181.677L126.796 182.205L122.638 192.028H130.866V193.172H121.164V192.116L125.674 181.677ZM128.776 187.551V197H127.456V192.38L127.654 187.551H128.776Z" fill="#FF485E"/>
<path d="M143.761 179.114V199.486H138.624V198.232H142.474V180.401H138.624V179.114H143.761Z" fill="#FF485E"/>
<path d="M151.496 179.807L152.607 179.246L162.078 198.716L160.945 199.211L151.496 179.807Z" fill="#FF485E"/>
<path d="M175.005 180.588L176.369 180.775V197H175.181L175.005 195.405C174.543 196.065 174.026 196.534 173.454 196.813C172.89 197.084 172.307 197.22 171.705 197.22C170.686 197.22 169.846 196.971 169.186 196.472C168.534 195.966 168.05 195.266 167.734 194.371C167.419 193.469 167.261 192.431 167.261 191.258C167.261 190.107 167.437 189.08 167.789 188.178C168.149 187.269 168.662 186.554 169.329 186.033C170.004 185.505 170.818 185.241 171.771 185.241C172.475 185.241 173.091 185.366 173.619 185.615C174.147 185.857 174.609 186.216 175.005 186.693V180.588ZM172.112 186.418C171.042 186.418 170.22 186.825 169.648 187.639C169.084 188.446 168.801 189.648 168.801 191.247C168.801 192.259 168.915 193.124 169.142 193.843C169.377 194.554 169.722 195.097 170.176 195.471C170.631 195.845 171.199 196.032 171.881 196.032C172.615 196.032 173.234 195.827 173.74 195.416C174.254 195.005 174.675 194.554 175.005 194.063V188.057C174.668 187.536 174.246 187.133 173.74 186.847C173.242 186.561 172.699 186.418 172.112 186.418Z" fill="#FF485E"/>
<path d="M188.164 177.2V203.6H186.976V177.2H188.164Z" fill="#FF485E"/>
<path d="M40.6365 206.677C41.5312 206.677 42.3012 206.857 42.9465 207.216C43.5992 207.575 44.1015 208.07 44.4535 208.701C44.8128 209.332 44.9925 210.054 44.9925 210.868C44.9925 211.587 44.8678 212.291 44.6185 212.98C44.3692 213.662 43.9695 214.381 43.4195 215.136C42.8695 215.884 42.1508 216.716 41.2635 217.633C40.3835 218.542 39.3055 219.58 38.0295 220.746H45.3445L45.1575 222H36.4895V220.779C37.6702 219.65 38.6712 218.663 39.4925 217.82C40.3138 216.977 40.9885 216.24 41.5165 215.609C42.0445 214.971 42.4552 214.392 42.7485 213.871C43.0418 213.35 43.2435 212.852 43.3535 212.375C43.4708 211.898 43.5295 211.392 43.5295 210.857C43.5295 209.933 43.2692 209.207 42.7485 208.679C42.2352 208.151 41.5275 207.887 40.6255 207.887C39.8262 207.887 39.1808 208.019 38.6895 208.283C38.1982 208.54 37.6995 208.954 37.1935 209.526L36.1815 208.723C36.7902 208.004 37.4428 207.484 38.1395 207.161C38.8435 206.838 39.6758 206.677 40.6365 206.677Z" fill="#FF485E"/>
<path d="M60.6699 206.886L60.4279 208.052H54.3229V213.277C54.8143 213.006 55.2689 212.822 55.6869 212.727C56.1049 212.624 56.5596 212.573 57.0509 212.573C57.8869 212.573 58.6093 212.756 59.2179 213.123C59.8339 213.482 60.3069 214.014 60.6369 214.718C60.9743 215.415 61.1429 216.265 61.1429 217.27C61.1429 218.267 60.9449 219.14 60.5489 219.888C60.1529 220.629 59.5919 221.204 58.8659 221.615C58.1399 222.018 57.2783 222.22 56.2809 222.22C55.4229 222.22 54.6566 222.073 53.9819 221.78C53.3146 221.479 52.6839 221.061 52.0899 220.526L52.9699 219.635C53.4613 220.104 53.9783 220.453 54.5209 220.68C55.0709 220.907 55.6906 221.021 56.3799 221.021C57.4359 221.021 58.2536 220.702 58.8329 220.064C59.4123 219.426 59.7019 218.465 59.7019 217.182C59.7019 216.309 59.5699 215.627 59.3059 215.136C59.0419 214.637 58.6863 214.285 58.2389 214.08C57.7989 213.867 57.3113 213.761 56.7759 213.761C56.2773 213.761 55.8519 213.805 55.4999 213.893C55.1479 213.981 54.7336 214.106 54.2569 214.267H53.0249V206.886H60.6699Z" fill="#FF485E"/>
<path d="M69.7693 224.486V204.114H74.9063V205.401H71.0563V223.221H74.9063V224.486H69.7693Z" fill="#FF485E"/>
<path d="M87.5257 206.677C89.1024 206.677 90.2941 207.344 91.1007 208.679C91.9147 210.014 92.3217 211.935 92.3217 214.443C92.3217 216.958 91.9147 218.883 91.1007 220.218C90.2941 221.553 89.1024 222.22 87.5257 222.22C85.9564 222.22 84.7647 221.553 83.9507 220.218C83.1367 218.883 82.7297 216.958 82.7297 214.443C82.7297 211.935 83.1367 210.014 83.9507 208.679C84.7647 207.344 85.9564 206.677 87.5257 206.677ZM87.5257 207.865C86.5504 207.865 85.7657 208.382 85.1717 209.416C84.5851 210.443 84.2917 212.118 84.2917 214.443C84.2917 215.58 84.3577 216.562 84.4897 217.391C84.6217 218.22 84.8197 218.902 85.0837 219.437C85.3551 219.972 85.6924 220.372 86.0957 220.636C86.5064 220.893 86.9831 221.021 87.5257 221.021C88.1857 221.021 88.7577 220.794 89.2417 220.339C89.7331 219.884 90.1107 219.173 90.3747 218.205C90.6387 217.23 90.7707 215.976 90.7707 214.443C90.7707 212.925 90.6534 211.682 90.4187 210.714C90.1914 209.739 89.8357 209.02 89.3517 208.558C88.8751 208.096 88.2664 207.865 87.5257 207.865ZM89.9127 208.415L90.2757 209.944L85.2377 220.108L84.6437 218.898L89.9127 208.415Z" fill="#FF485E"/>
<path d="M98.6161 215.752V214.476H107.218V215.752H98.6161Z" fill="#FF485E"/>
<path d="M122.236 206.886L121.994 208.052H115.889V213.277C116.38 213.006 116.835 212.822 117.253 212.727C117.671 212.624 118.125 212.573 118.617 212.573C119.453 212.573 120.175 212.756 120.784 213.123C121.4 213.482 121.873 214.014 122.203 214.718C122.54 215.415 122.709 216.265 122.709 217.27C122.709 218.267 122.511 219.14 122.115 219.888C121.719 220.629 121.158 221.204 120.432 221.615C119.706 222.018 118.844 222.22 117.847 222.22C116.989 222.22 116.222 222.073 115.548 221.78C114.88 221.479 114.25 221.061 113.656 220.526L114.536 219.635C115.027 220.104 115.544 220.453 116.087 220.68C116.637 220.907 117.256 221.021 117.946 221.021C119.002 221.021 119.819 220.702 120.399 220.064C120.978 219.426 121.268 218.465 121.268 217.182C121.268 216.309 121.136 215.627 120.872 215.136C120.608 214.637 120.252 214.285 119.805 214.08C119.365 213.867 118.877 213.761 118.342 213.761C117.843 213.761 117.418 213.805 117.066 213.893C116.714 213.981 116.299 214.106 115.823 214.267H114.591V206.886H122.236Z" fill="#FF485E"/>
<path d="M136.065 204.114V224.486H130.928V223.232H134.778V205.401H130.928V204.114H136.065Z" fill="#FF485E"/>
<path d="M151.324 214.3C151.324 213.075 151.222 211.994 151.016 211.055C150.818 210.116 150.514 209.273 150.103 208.525C149.7 207.77 149.194 207.062 148.585 206.402C147.977 205.742 147.269 205.075 146.462 204.4L147.122 203.63C148.325 204.591 149.348 205.57 150.191 206.567C151.035 207.557 151.68 208.672 152.127 209.911C152.575 211.143 152.798 212.606 152.798 214.3C152.798 215.987 152.575 217.45 152.127 218.689C151.68 219.921 151.035 221.032 150.191 222.022C149.348 223.019 148.325 224.002 147.122 224.97L146.462 224.2C147.247 223.547 147.94 222.891 148.541 222.231C149.15 221.571 149.66 220.863 150.07 220.108C150.481 219.345 150.793 218.491 151.005 217.545C151.218 216.599 151.324 215.517 151.324 214.3Z" fill="#FF485E"/>
<path d="M167.717 203.652V204.818C167.152 204.818 166.635 204.877 166.166 204.994C165.696 205.104 165.33 205.295 165.066 205.566C164.802 205.837 164.692 206.208 164.736 206.677L165.231 211.572C165.289 212.122 165.267 212.584 165.165 212.958C165.062 213.332 164.879 213.629 164.615 213.849C164.358 214.062 164.013 214.212 163.581 214.3C164.013 214.381 164.362 214.524 164.626 214.729C164.89 214.927 165.069 215.213 165.165 215.587C165.267 215.954 165.289 216.434 165.231 217.028L164.736 221.923C164.692 222.4 164.798 222.774 165.055 223.045C165.319 223.316 165.685 223.507 166.155 223.617C166.631 223.727 167.152 223.782 167.717 223.782V224.948C167.218 224.948 166.705 224.9 166.177 224.805C165.656 224.71 165.176 224.545 164.736 224.31C164.303 224.075 163.966 223.745 163.724 223.32C163.489 222.902 163.408 222.363 163.482 221.703L163.966 217.215C164.017 216.731 163.98 216.313 163.856 215.961C163.738 215.602 163.43 215.327 162.932 215.136C162.433 214.938 161.637 214.839 160.545 214.839V213.761C161.637 213.761 162.433 213.666 162.932 213.475C163.438 213.284 163.749 213.013 163.867 212.661C163.984 212.309 164.017 211.891 163.966 211.407L163.482 206.886C163.416 206.233 163.5 205.698 163.735 205.28C163.977 204.855 164.314 204.525 164.747 204.29C165.179 204.055 165.656 203.89 166.177 203.795C166.705 203.7 167.218 203.652 167.717 203.652Z" fill="#FF485E"/>
<path d="M179.159 206.677C180.069 206.677 180.857 206.849 181.524 207.194C182.199 207.531 182.72 207.986 183.086 208.558C183.46 209.123 183.647 209.746 183.647 210.428C183.647 211.029 183.508 211.583 183.229 212.089C182.958 212.588 182.602 212.998 182.162 213.321C181.722 213.644 181.249 213.845 180.743 213.926C181.301 213.955 181.836 214.117 182.349 214.41C182.87 214.703 183.295 215.118 183.625 215.653C183.963 216.188 184.131 216.841 184.131 217.611C184.131 218.491 183.915 219.279 183.482 219.976C183.057 220.673 182.463 221.223 181.7 221.626C180.938 222.022 180.061 222.22 179.071 222.22C178.309 222.22 177.517 222.07 176.695 221.769C175.881 221.468 175.192 220.97 174.627 220.273L175.661 219.503C176.087 220.009 176.607 220.39 177.223 220.647C177.839 220.896 178.459 221.021 179.082 221.021C180.226 221.021 181.11 220.72 181.733 220.119C182.364 219.518 182.679 218.707 182.679 217.688C182.679 216.911 182.533 216.302 182.239 215.862C181.946 215.415 181.55 215.099 181.051 214.916C180.553 214.725 179.995 214.63 179.379 214.63H178.147L178.323 213.453H179.181C179.687 213.453 180.171 213.354 180.633 213.156C181.103 212.951 181.488 212.639 181.788 212.221C182.089 211.796 182.239 211.26 182.239 210.615C182.239 209.698 181.939 209.005 181.337 208.536C180.736 208.067 180.017 207.832 179.181 207.832C178.514 207.832 177.935 207.946 177.443 208.173C176.952 208.4 176.446 208.76 175.925 209.251L175.133 208.327C175.764 207.74 176.42 207.319 177.102 207.062C177.784 206.805 178.47 206.677 179.159 206.677Z" fill="#FF485E"/>
<path d="M192.032 203.652C192.53 203.652 193.04 203.7 193.561 203.795C194.089 203.89 194.569 204.055 195.002 204.29C195.442 204.525 195.779 204.855 196.014 205.28C196.256 205.698 196.34 206.237 196.267 206.897L195.783 211.407C195.731 211.891 195.786 212.309 195.948 212.661C196.116 213.013 196.454 213.284 196.96 213.475C197.473 213.666 198.221 213.761 199.204 213.761V214.839C198.221 214.839 197.473 214.938 196.96 215.136C196.454 215.327 196.116 215.602 195.948 215.961C195.786 216.313 195.731 216.731 195.783 217.215L196.267 221.714C196.333 222.367 196.245 222.902 196.003 223.32C195.768 223.745 195.434 224.075 195.002 224.31C194.569 224.545 194.089 224.71 193.561 224.805C193.04 224.9 192.53 224.948 192.032 224.948V223.782C192.596 223.782 193.113 223.727 193.583 223.617C194.052 223.507 194.419 223.316 194.683 223.045C194.954 222.774 195.064 222.4 195.013 221.923L194.518 217.028C194.459 216.427 194.481 215.943 194.584 215.576C194.686 215.209 194.888 214.931 195.189 214.74C195.497 214.542 195.929 214.406 196.487 214.333C195.973 214.238 195.563 214.08 195.255 213.86C194.947 213.633 194.734 213.332 194.617 212.958C194.499 212.584 194.466 212.122 194.518 211.572L195.013 206.677C195.064 206.208 194.954 205.837 194.683 205.566C194.419 205.295 194.052 205.104 193.583 204.994C193.121 204.877 192.604 204.818 192.032 204.818V203.652Z" fill="#FF485E"/>
<path d="M211.636 203.388V206.71C212.509 206.805 213.279 207.022 213.946 207.359C214.621 207.696 215.171 208.07 215.596 208.481L214.628 209.471C214.203 209.06 213.741 208.727 213.242 208.47C212.751 208.213 212.215 208.045 211.636 207.964V213.332C212.303 213.545 212.949 213.838 213.572 214.212C214.203 214.586 214.723 215.074 215.134 215.675C215.545 216.269 215.75 217.017 215.75 217.919C215.75 218.579 215.596 219.21 215.288 219.811C214.987 220.405 214.533 220.911 213.924 221.329C213.315 221.74 212.553 222.007 211.636 222.132V225.311H210.239V222.198C209.212 222.132 208.325 221.89 207.577 221.472C206.836 221.047 206.228 220.599 205.751 220.13L206.686 219.129C207.133 219.606 207.65 220.009 208.237 220.339C208.831 220.669 209.498 220.863 210.239 220.922V214.388C209.044 213.985 208.094 213.453 207.39 212.793C206.686 212.133 206.334 211.297 206.334 210.285C206.334 209.757 206.47 209.236 206.741 208.723C207.02 208.202 207.449 207.755 208.028 207.381C208.607 207.007 209.344 206.78 210.239 206.699V203.388H211.636ZM211.636 214.839V220.823C213.293 220.493 214.122 219.496 214.122 217.831C214.122 217.156 213.939 216.581 213.572 216.104C213.205 215.627 212.56 215.206 211.636 214.839ZM210.239 208.019C209.594 208.129 209.051 208.375 208.611 208.756C208.178 209.13 207.962 209.669 207.962 210.373C207.962 210.923 208.123 211.396 208.446 211.792C208.769 212.188 209.366 212.558 210.239 212.903V208.019Z" fill="#FF485E"/>
</g>
<defs>
<clipPath id="clip0_702_331">
<rect width="259" height="259" fill="white"/>
</clipPath>
</defs>
</svg>
