<svg width="259" height="259" viewBox="0 0 259 259" fill="none" xmlns="http://www.w3.org/2000/svg">
<g clip-path="url(#clip0_707_548)">
<rect width="259" height="259" fill="white"/>
<rect x="9.5" y="9.5" width="249" height="249" stroke="#FF485E"/>
<rect x="1" y="1" width="248" height="248" fill="white" stroke="black" stroke-width="2"/>
<path d="M56 80.5H194C197.038 80.5 199.5 82.9624 199.5 86V183C199.5 186.038 197.038 188.5 194 188.5H56C52.9624 188.5 50.5 186.038 50.5 183V86C50.5 82.9624 52.9624 80.5 56 80.5Z" stroke="black"/>
<line x1="50" y1="123.5" x2="200" y2="123.5" stroke="black"/>
<path d="M70.5 118.5H87.5V142C87.5 144.485 85.4853 146.5 83 146.5H75C72.5147 146.5 70.5 144.485 70.5 142V118.5Z" fill="white" stroke="#FF485E"/>
<path d="M162.5 118.5H179.5V142C179.5 144.485 177.485 146.5 175 146.5H167C164.515 146.5 162.5 144.485 162.5 142V118.5Z" fill="white" stroke="#FF485E"/>
<mask id="path-7-inside-1_707_548" fill="white">
<path fill-rule="evenodd" clip-rule="evenodd" d="M91 61C88.2386 61 86 63.2386 86 66V81H96V71H153V81H163V66C163 63.2386 160.761 61 158 61H91Z"/>
</mask>
<path d="M86 81H85V82H86V81ZM96 81V82H97V81H96ZM96 71V70H95V71H96ZM153 71H154V70H153V71ZM153 81H152V82H153V81ZM163 81V82H164V81H163ZM87 66C87 63.7909 88.7909 62 91 62V60C87.6863 60 85 62.6863 85 66H87ZM87 81V66H85V81H87ZM96 80H86V82H96V80ZM97 81V71H95V81H97ZM96 72H153V70H96V72ZM152 71V81H154V71H152ZM163 80H153V82H163V80ZM162 66V81H164V66H162ZM158 62C160.209 62 162 63.7909 162 66H164C164 62.6863 161.314 60 158 60V62ZM91 62H158V60H91V62Z" fill="#FF485E" mask="url(#path-7-inside-1_707_548)"/>
<rect x="75.5" y="138.5" width="7" height="3" rx="0.5" stroke="#FF485E"/>
<rect x="167.5" y="138.5" width="7" height="3" rx="0.5" stroke="#FF485E"/>
</g>
<defs>
<clipPath id="clip0_707_548">
<rect width="259" height="259" fill="white"/>
</clipPath>
</defs>
</svg>
