<svg width="259" height="259" viewBox="0 0 259 259" fill="none" xmlns="http://www.w3.org/2000/svg">
<g clip-path="url(#clip0_697_94)">
<rect width="259" height="259" fill="white"/>
<rect x="9.5" y="9.5" width="249" height="249" stroke="#FF485E"/>
<rect x="1" y="1" width="248" height="248" fill="white" stroke="black" stroke-width="2"/>
<path d="M45.8836 129.748C45.8902 132.075 45.1351 134.341 43.7336 136.198C43.6745 136.277 43.6005 136.344 43.5157 136.394C43.431 136.444 43.3372 136.477 43.2397 136.491C43.1422 136.505 43.0429 136.499 42.9475 136.475C42.852 136.45 42.7624 136.407 42.6836 136.348C42.6048 136.289 42.5384 136.215 42.4882 136.13C42.4381 136.046 42.4051 135.952 42.3911 135.854C42.3772 135.757 42.3826 135.658 42.4071 135.562C42.4315 135.467 42.4745 135.377 42.5336 135.298C43.413 134.126 44.0012 132.761 44.2497 131.317C44.4982 129.872 44.3999 128.389 43.9628 126.99C43.5258 125.591 42.7626 124.316 41.7361 123.27C40.7096 122.224 39.4492 121.436 38.0587 120.973C36.6682 120.51 35.1875 120.383 33.7386 120.604C32.2897 120.825 30.914 121.387 29.725 122.244C28.536 123.101 27.5676 124.229 26.8998 125.533C26.2319 126.838 25.8836 128.283 25.8836 129.748C25.8836 129.947 25.8046 130.138 25.6639 130.279C25.5233 130.419 25.3325 130.498 25.1336 130.498C24.9347 130.498 24.7439 130.419 24.6033 130.279C24.4626 130.138 24.3836 129.947 24.3836 129.748C24.3827 128.661 24.5475 127.581 24.8723 126.543C24.6272 126.514 24.3805 126.499 24.1336 126.498C22.476 126.498 20.8863 127.157 19.7142 128.329C18.5421 129.501 17.8836 131.091 17.8836 132.748C17.8836 134.406 18.5421 135.996 19.7142 137.168C20.8863 138.34 22.476 138.998 24.1336 138.998H27.1336C27.3325 138.998 27.5233 139.077 27.6639 139.218C27.8046 139.359 27.8836 139.549 27.8836 139.748C27.8836 139.947 27.8046 140.138 27.6639 140.279C27.5233 140.419 27.3325 140.498 27.1336 140.498H24.1336C23.0609 140.498 22 140.275 21.018 139.843C20.036 139.412 19.1543 138.781 18.4287 137.991C17.703 137.201 17.1493 136.269 16.8025 135.254C16.4557 134.239 16.3233 133.163 16.4139 132.094C16.5044 131.025 16.8159 129.987 17.3285 129.045C17.8411 128.102 18.5437 127.277 19.3919 126.62C20.2401 125.964 21.2154 125.49 22.256 125.23C23.2966 124.97 24.3799 124.928 25.4373 125.108C26.4897 122.91 28.258 121.134 30.4521 120.073C32.6461 119.012 35.1358 118.727 37.5127 119.267C39.8896 119.806 42.0126 121.137 43.5336 123.042C45.0546 124.946 45.8832 127.311 45.8836 129.748ZM34.6636 129.218C34.523 129.078 34.3323 128.999 34.1336 128.999C33.9348 128.999 33.7442 129.078 33.6036 129.218L29.6036 133.218C29.4711 133.361 29.399 133.549 29.4024 133.743C29.4058 133.937 29.4846 134.123 29.622 134.26C29.7594 134.397 29.9448 134.476 30.1391 134.48C30.3334 134.483 30.5214 134.411 30.6636 134.278L33.3836 131.56V139.748C33.3836 139.947 33.4626 140.138 33.6033 140.279C33.7439 140.419 33.9347 140.498 34.1336 140.498C34.3325 140.498 34.5233 140.419 34.6639 140.279C34.8046 140.138 34.8836 139.947 34.8836 139.748V131.56L37.6036 134.278C37.7458 134.411 37.9338 134.483 38.1281 134.48C38.3224 134.476 38.5078 134.397 38.6452 134.26C38.7826 134.123 38.8613 133.937 38.8648 133.743C38.8682 133.549 38.7961 133.361 38.6636 133.218L34.6636 129.218Z" fill="black"/>
<path d="M233.884 129.748C233.89 132.075 233.135 134.341 231.734 136.198C231.674 136.277 231.6 136.344 231.516 136.394C231.431 136.444 231.337 136.477 231.24 136.491C231.142 136.505 231.043 136.499 230.947 136.475C230.852 136.45 230.762 136.407 230.684 136.348C230.605 136.289 230.538 136.215 230.488 136.13C230.438 136.046 230.405 135.952 230.391 135.854C230.377 135.757 230.383 135.658 230.407 135.562C230.432 135.467 230.474 135.377 230.534 135.298C231.413 134.126 232.001 132.761 232.25 131.317C232.498 129.872 232.4 128.389 231.963 126.99C231.526 125.591 230.763 124.316 229.736 123.27C228.71 122.224 227.449 121.436 226.059 120.973C224.668 120.51 223.188 120.383 221.739 120.604C220.29 120.825 218.914 121.387 217.725 122.244C216.536 123.101 215.568 124.229 214.9 125.533C214.232 126.838 213.884 128.283 213.884 129.748C213.884 129.947 213.805 130.138 213.664 130.279C213.523 130.419 213.333 130.498 213.134 130.498C212.935 130.498 212.744 130.419 212.603 130.279C212.463 130.138 212.384 129.947 212.384 129.748C212.383 128.661 212.547 127.581 212.872 126.543C212.627 126.514 212.381 126.499 212.134 126.498C210.476 126.498 208.886 127.157 207.714 128.329C206.542 129.501 205.884 131.091 205.884 132.748C205.884 134.406 206.542 135.996 207.714 137.168C208.886 138.34 210.476 138.998 212.134 138.998H215.134C215.333 138.998 215.523 139.077 215.664 139.218C215.805 139.359 215.884 139.549 215.884 139.748C215.884 139.947 215.805 140.138 215.664 140.279C215.523 140.419 215.333 140.498 215.134 140.498H212.134C211.061 140.498 210 140.275 209.018 139.843C208.036 139.412 207.154 138.781 206.429 137.991C205.703 137.201 205.149 136.269 204.802 135.254C204.456 134.239 204.323 133.163 204.414 132.094C204.504 131.025 204.816 129.987 205.328 129.045C205.841 128.102 206.544 127.277 207.392 126.62C208.24 125.964 209.215 125.49 210.256 125.23C211.297 124.97 212.38 124.928 213.437 125.108C214.49 122.91 216.258 121.134 218.452 120.073C220.646 119.012 223.136 118.727 225.513 119.267C227.89 119.806 230.013 121.137 231.534 123.042C233.055 124.946 233.883 127.311 233.884 129.748ZM222.664 129.218C222.523 129.078 222.332 128.999 222.134 128.999C221.935 128.999 221.744 129.078 221.604 129.218L217.604 133.218C217.471 133.361 217.399 133.549 217.402 133.743C217.406 133.937 217.485 134.123 217.622 134.26C217.759 134.397 217.945 134.476 218.139 134.48C218.333 134.483 218.521 134.411 218.664 134.278L221.384 131.56V139.748C221.384 139.947 221.463 140.138 221.603 140.279C221.744 140.419 221.935 140.498 222.134 140.498C222.333 140.498 222.523 140.419 222.664 140.279C222.805 140.138 222.884 139.947 222.884 139.748V131.56L225.604 134.278C225.746 134.411 225.934 134.483 226.128 134.48C226.322 134.476 226.508 134.397 226.645 134.26C226.783 134.123 226.861 133.937 226.865 133.743C226.868 133.549 226.796 133.361 226.664 133.218L222.664 129.218Z" fill="black"/>
<path d="M137.884 34.7483C137.89 37.0754 137.135 39.3407 135.734 41.1983C135.674 41.2771 135.6 41.3435 135.516 41.3937C135.431 41.4439 135.337 41.4769 135.24 41.4908C135.142 41.5047 135.043 41.4993 134.947 41.4749C134.852 41.4504 134.762 41.4074 134.684 41.3483C134.605 41.2892 134.538 41.2152 134.488 41.1304C134.438 41.0457 134.405 40.9519 134.391 40.8544C134.377 40.7569 134.383 40.6576 134.407 40.5622C134.432 40.4668 134.474 40.3771 134.534 40.2983C135.413 39.1258 136.001 37.761 136.25 36.3166C136.498 34.8721 136.4 33.3893 135.963 31.9903C135.526 30.5913 134.763 29.3161 133.736 28.2699C132.71 27.2238 131.449 26.4365 130.059 25.973C128.668 25.5095 127.188 25.3831 125.739 25.6041C124.29 25.8252 122.914 26.3873 121.725 27.2443C120.536 28.1013 119.568 29.2286 118.9 30.5333C118.232 31.8379 117.884 33.2826 117.884 34.7483C117.884 34.9472 117.805 35.138 117.664 35.2787C117.523 35.4193 117.333 35.4983 117.134 35.4983C116.935 35.4983 116.744 35.4193 116.603 35.2787C116.463 35.138 116.384 34.9472 116.384 34.7483C116.383 33.6614 116.547 32.5806 116.872 31.5433C116.627 31.5139 116.381 31.4989 116.134 31.4983C114.476 31.4983 112.886 32.1568 111.714 33.3289C110.542 34.501 109.884 36.0907 109.884 37.7483C109.884 39.4059 110.542 40.9956 111.714 42.1677C112.886 43.3398 114.476 43.9983 116.134 43.9983H119.134C119.333 43.9983 119.523 44.0773 119.664 44.218C119.805 44.3586 119.884 44.5494 119.884 44.7483C119.884 44.9472 119.805 45.138 119.664 45.2787C119.523 45.4193 119.333 45.4983 119.134 45.4983H116.134C115.061 45.498 114 45.2749 113.018 44.8433C112.036 44.4118 111.154 43.781 110.429 42.991C109.703 42.2011 109.149 41.2691 108.802 40.254C108.456 39.239 108.323 38.163 108.414 37.0941C108.504 36.0253 108.816 34.9869 109.328 34.0447C109.841 33.1024 110.544 32.2768 111.392 31.6202C112.24 30.9635 113.215 30.4901 114.256 30.2299C115.297 29.9696 116.38 29.9282 117.437 30.1083C118.49 27.9099 120.258 26.1344 122.452 25.0729C124.646 24.0115 127.136 23.7272 129.513 24.2666C131.89 24.806 134.013 26.1371 135.534 28.0416C137.055 29.9461 137.883 32.311 137.884 34.7483ZM126.664 34.2183C126.523 34.0779 126.332 33.999 126.134 33.999C125.935 33.999 125.744 34.0779 125.604 34.2183L121.604 38.2183C121.471 38.3605 121.399 38.5485 121.402 38.7428C121.406 38.9371 121.485 39.1225 121.622 39.2599C121.759 39.3974 121.945 39.4761 122.139 39.4795C122.333 39.4829 122.521 39.4108 122.664 39.2783L125.384 36.5596V44.7483C125.384 44.9472 125.463 45.138 125.603 45.2787C125.744 45.4193 125.935 45.4983 126.134 45.4983C126.333 45.4983 126.523 45.4193 126.664 45.2787C126.805 45.138 126.884 44.9472 126.884 44.7483V36.5596L129.604 39.2783C129.746 39.4108 129.934 39.4829 130.128 39.4795C130.322 39.4761 130.508 39.3974 130.645 39.2599C130.783 39.1225 130.861 38.9371 130.865 38.7428C130.868 38.5485 130.796 38.3605 130.664 38.2183L126.664 34.2183Z" fill="black"/>
<path d="M71.8836 65.7483C71.8902 68.0754 71.1351 70.3407 69.7336 72.1983C69.6745 72.2771 69.6005 72.3435 69.5157 72.3937C69.431 72.4439 69.3372 72.4769 69.2397 72.4908C69.1422 72.5047 69.0429 72.4993 68.9475 72.4749C68.852 72.4504 68.7624 72.4074 68.6836 72.3483C68.6048 72.2892 68.5384 72.2152 68.4882 72.1304C68.4381 72.0457 68.4051 71.9519 68.3911 71.8544C68.3772 71.7569 68.3826 71.6576 68.4071 71.5622C68.4315 71.4668 68.4745 71.3771 68.5336 71.2983C69.413 70.1258 70.0012 68.761 70.2497 67.3166C70.4982 65.8721 70.3999 64.3893 69.9628 62.9903C69.5258 61.5913 68.7626 60.3161 67.7361 59.2699C66.7096 58.2238 65.4492 57.4365 64.0587 56.973C62.6682 56.5095 61.1875 56.3831 59.7386 56.6041C58.2897 56.8252 56.914 57.3873 55.725 58.2443C54.536 59.1013 53.5676 60.2286 52.8998 61.5333C52.2319 62.8379 51.8836 64.2826 51.8836 65.7483C51.8836 65.9472 51.8046 66.138 51.6639 66.2787C51.5233 66.4193 51.3325 66.4983 51.1336 66.4983C50.9347 66.4983 50.7439 66.4193 50.6033 66.2787C50.4626 66.138 50.3836 65.9472 50.3836 65.7483C50.3827 64.6614 50.5475 63.5806 50.8723 62.5433C50.6272 62.5139 50.3805 62.4989 50.1336 62.4983C48.476 62.4983 46.8863 63.1568 45.7142 64.3289C44.5421 65.501 43.8836 67.0907 43.8836 68.7483C43.8836 70.4059 44.5421 71.9956 45.7142 73.1677C46.8863 74.3398 48.476 74.9983 50.1336 74.9983H53.1336C53.3325 74.9983 53.5233 75.0773 53.6639 75.218C53.8046 75.3586 53.8836 75.5494 53.8836 75.7483C53.8836 75.9472 53.8046 76.138 53.6639 76.2787C53.5233 76.4193 53.3325 76.4983 53.1336 76.4983H50.1336C49.0609 76.498 48 76.2749 47.018 75.8433C46.036 75.4118 45.1543 74.781 44.4287 73.991C43.703 73.2011 43.1493 72.2691 42.8025 71.254C42.4557 70.239 42.3233 69.163 42.4139 68.0941C42.5044 67.0253 42.8159 65.9869 43.3285 65.0447C43.8411 64.1024 44.5437 63.2768 45.3919 62.6202C46.2401 61.9635 47.2154 61.4901 48.256 61.2299C49.2966 60.9696 50.3799 60.9282 51.4373 61.1083C52.4897 58.9099 54.258 57.1344 56.4521 56.0729C58.6461 55.0115 61.1358 54.7272 63.5127 55.2666C65.8896 55.806 68.0126 57.1371 69.5336 59.0416C71.0546 60.9461 71.8832 63.311 71.8836 65.7483ZM60.6636 65.2183C60.523 65.0779 60.3323 64.999 60.1336 64.999C59.9348 64.999 59.7442 65.0779 59.6036 65.2183L55.6036 69.2183C55.4711 69.3605 55.399 69.5485 55.4024 69.7428C55.4058 69.9371 55.4846 70.1225 55.622 70.2599C55.7594 70.3974 55.9448 70.4761 56.1391 70.4795C56.3334 70.4829 56.5214 70.4108 56.6636 70.2783L59.3836 67.5596V75.7483C59.3836 75.9472 59.4626 76.138 59.6033 76.2787C59.7439 76.4193 59.9347 76.4983 60.1336 76.4983C60.3325 76.4983 60.5233 76.4193 60.6639 76.2787C60.8046 76.138 60.8836 75.9472 60.8836 75.7483V67.5596L63.6036 70.2783C63.7458 70.4108 63.9338 70.4829 64.1281 70.4795C64.3224 70.4761 64.5078 70.3974 64.6452 70.2599C64.7826 70.1225 64.8613 69.9371 64.8648 69.7428C64.8682 69.5485 64.7961 69.3605 64.6636 69.2183L60.6636 65.2183Z" fill="black"/>
<path d="M208.884 65.7483C208.89 68.0754 208.135 70.3407 206.734 72.1983C206.674 72.2771 206.6 72.3435 206.516 72.3937C206.431 72.4439 206.337 72.4769 206.24 72.4908C206.142 72.5047 206.043 72.4993 205.947 72.4749C205.852 72.4504 205.762 72.4074 205.684 72.3483C205.605 72.2892 205.538 72.2152 205.488 72.1304C205.438 72.0457 205.405 71.9519 205.391 71.8544C205.377 71.7569 205.383 71.6576 205.407 71.5622C205.432 71.4668 205.474 71.3771 205.534 71.2983C206.413 70.1258 207.001 68.761 207.25 67.3166C207.498 65.8721 207.4 64.3893 206.963 62.9903C206.526 61.5913 205.763 60.3161 204.736 59.2699C203.71 58.2238 202.449 57.4365 201.059 56.973C199.668 56.5095 198.188 56.3831 196.739 56.6041C195.29 56.8252 193.914 57.3873 192.725 58.2443C191.536 59.1013 190.568 60.2286 189.9 61.5333C189.232 62.8379 188.884 64.2826 188.884 65.7483C188.884 65.9472 188.805 66.138 188.664 66.2787C188.523 66.4193 188.333 66.4983 188.134 66.4983C187.935 66.4983 187.744 66.4193 187.603 66.2787C187.463 66.138 187.384 65.9472 187.384 65.7483C187.383 64.6614 187.547 63.5806 187.872 62.5433C187.627 62.5139 187.381 62.4989 187.134 62.4983C185.476 62.4983 183.886 63.1568 182.714 64.3289C181.542 65.501 180.884 67.0907 180.884 68.7483C180.884 70.4059 181.542 71.9956 182.714 73.1677C183.886 74.3398 185.476 74.9983 187.134 74.9983H190.134C190.333 74.9983 190.523 75.0773 190.664 75.218C190.805 75.3586 190.884 75.5494 190.884 75.7483C190.884 75.9472 190.805 76.138 190.664 76.2787C190.523 76.4193 190.333 76.4983 190.134 76.4983H187.134C186.061 76.498 185 76.2749 184.018 75.8433C183.036 75.4118 182.154 74.781 181.429 73.991C180.703 73.2011 180.149 72.2691 179.802 71.254C179.456 70.239 179.323 69.163 179.414 68.0941C179.504 67.0253 179.816 65.9869 180.328 65.0447C180.841 64.1024 181.544 63.2768 182.392 62.6202C183.24 61.9635 184.215 61.4901 185.256 61.2299C186.297 60.9696 187.38 60.9282 188.437 61.1083C189.49 58.9099 191.258 57.1344 193.452 56.0729C195.646 55.0115 198.136 54.7272 200.513 55.2666C202.89 55.806 205.013 57.1371 206.534 59.0416C208.055 60.9461 208.883 63.311 208.884 65.7483ZM197.664 65.2183C197.523 65.0779 197.332 64.999 197.134 64.999C196.935 64.999 196.744 65.0779 196.604 65.2183L192.604 69.2183C192.471 69.3605 192.399 69.5485 192.402 69.7428C192.406 69.9371 192.485 70.1225 192.622 70.2599C192.759 70.3974 192.945 70.4761 193.139 70.4795C193.333 70.4829 193.521 70.4108 193.664 70.2783L196.384 67.5596V75.7483C196.384 75.9472 196.463 76.138 196.603 76.2787C196.744 76.4193 196.935 76.4983 197.134 76.4983C197.333 76.4983 197.523 76.4193 197.664 76.2787C197.805 76.138 197.884 75.9472 197.884 75.7483V67.5596L200.604 70.2783C200.746 70.4108 200.934 70.4829 201.128 70.4795C201.322 70.4761 201.508 70.3974 201.645 70.2599C201.783 70.1225 201.861 69.9371 201.865 69.7428C201.868 69.5485 201.796 69.3605 201.664 69.2183L197.664 65.2183Z" fill="black"/>
<path d="M71.8836 193.748C71.8902 196.075 71.1351 198.341 69.7336 200.198C69.6745 200.277 69.6005 200.344 69.5157 200.394C69.431 200.444 69.3372 200.477 69.2397 200.491C69.1422 200.505 69.0429 200.499 68.9475 200.475C68.852 200.45 68.7624 200.407 68.6836 200.348C68.6048 200.289 68.5384 200.215 68.4882 200.13C68.4381 200.046 68.4051 199.952 68.3911 199.854C68.3772 199.757 68.3826 199.658 68.4071 199.562C68.4315 199.467 68.4745 199.377 68.5336 199.298C69.413 198.126 70.0012 196.761 70.2497 195.317C70.4982 193.872 70.3999 192.389 69.9628 190.99C69.5258 189.591 68.7626 188.316 67.7361 187.27C66.7096 186.224 65.4492 185.436 64.0587 184.973C62.6682 184.51 61.1875 184.383 59.7386 184.604C58.2897 184.825 56.914 185.387 55.725 186.244C54.536 187.101 53.5676 188.229 52.8998 189.533C52.2319 190.838 51.8836 192.283 51.8836 193.748C51.8836 193.947 51.8046 194.138 51.6639 194.279C51.5233 194.419 51.3325 194.498 51.1336 194.498C50.9347 194.498 50.7439 194.419 50.6033 194.279C50.4626 194.138 50.3836 193.947 50.3836 193.748C50.3827 192.661 50.5475 191.581 50.8723 190.543C50.6272 190.514 50.3805 190.499 50.1336 190.498C48.476 190.498 46.8863 191.157 45.7142 192.329C44.5421 193.501 43.8836 195.091 43.8836 196.748C43.8836 198.406 44.5421 199.996 45.7142 201.168C46.8863 202.34 48.476 202.998 50.1336 202.998H53.1336C53.3325 202.998 53.5233 203.077 53.6639 203.218C53.8046 203.359 53.8836 203.549 53.8836 203.748C53.8836 203.947 53.8046 204.138 53.6639 204.279C53.5233 204.419 53.3325 204.498 53.1336 204.498H50.1336C49.0609 204.498 48 204.275 47.018 203.843C46.036 203.412 45.1543 202.781 44.4287 201.991C43.703 201.201 43.1493 200.269 42.8025 199.254C42.4557 198.239 42.3233 197.163 42.4139 196.094C42.5044 195.025 42.8159 193.987 43.3285 193.045C43.8411 192.102 44.5437 191.277 45.3919 190.62C46.2401 189.964 47.2154 189.49 48.256 189.23C49.2966 188.97 50.3799 188.928 51.4373 189.108C52.4897 186.91 54.258 185.134 56.4521 184.073C58.6461 183.012 61.1358 182.727 63.5127 183.267C65.8896 183.806 68.0126 185.137 69.5336 187.042C71.0546 188.946 71.8832 191.311 71.8836 193.748ZM60.6636 193.218C60.523 193.078 60.3323 192.999 60.1336 192.999C59.9348 192.999 59.7442 193.078 59.6036 193.218L55.6036 197.218C55.4711 197.361 55.399 197.549 55.4024 197.743C55.4058 197.937 55.4846 198.123 55.622 198.26C55.7594 198.397 55.9448 198.476 56.1391 198.48C56.3334 198.483 56.5214 198.411 56.6636 198.278L59.3836 195.56V203.748C59.3836 203.947 59.4626 204.138 59.6033 204.279C59.7439 204.419 59.9347 204.498 60.1336 204.498C60.3325 204.498 60.5233 204.419 60.6639 204.279C60.8046 204.138 60.8836 203.947 60.8836 203.748V195.56L63.6036 198.278C63.7458 198.411 63.9338 198.483 64.1281 198.48C64.3224 198.476 64.5078 198.397 64.6452 198.26C64.7826 198.123 64.8613 197.937 64.8648 197.743C64.8682 197.549 64.7961 197.361 64.6636 197.218L60.6636 193.218Z" fill="black"/>
<path d="M208.884 193.748C208.89 196.075 208.135 198.341 206.734 200.198C206.674 200.277 206.6 200.344 206.516 200.394C206.431 200.444 206.337 200.477 206.24 200.491C206.142 200.505 206.043 200.499 205.947 200.475C205.852 200.45 205.762 200.407 205.684 200.348C205.605 200.289 205.538 200.215 205.488 200.13C205.438 200.046 205.405 199.952 205.391 199.854C205.377 199.757 205.383 199.658 205.407 199.562C205.432 199.467 205.474 199.377 205.534 199.298C206.413 198.126 207.001 196.761 207.25 195.317C207.498 193.872 207.4 192.389 206.963 190.99C206.526 189.591 205.763 188.316 204.736 187.27C203.71 186.224 202.449 185.436 201.059 184.973C199.668 184.51 198.188 184.383 196.739 184.604C195.29 184.825 193.914 185.387 192.725 186.244C191.536 187.101 190.568 188.229 189.9 189.533C189.232 190.838 188.884 192.283 188.884 193.748C188.884 193.947 188.805 194.138 188.664 194.279C188.523 194.419 188.333 194.498 188.134 194.498C187.935 194.498 187.744 194.419 187.603 194.279C187.463 194.138 187.384 193.947 187.384 193.748C187.383 192.661 187.547 191.581 187.872 190.543C187.627 190.514 187.381 190.499 187.134 190.498C185.476 190.498 183.886 191.157 182.714 192.329C181.542 193.501 180.884 195.091 180.884 196.748C180.884 198.406 181.542 199.996 182.714 201.168C183.886 202.34 185.476 202.998 187.134 202.998H190.134C190.333 202.998 190.523 203.077 190.664 203.218C190.805 203.359 190.884 203.549 190.884 203.748C190.884 203.947 190.805 204.138 190.664 204.279C190.523 204.419 190.333 204.498 190.134 204.498H187.134C186.061 204.498 185 204.275 184.018 203.843C183.036 203.412 182.154 202.781 181.429 201.991C180.703 201.201 180.149 200.269 179.802 199.254C179.456 198.239 179.323 197.163 179.414 196.094C179.504 195.025 179.816 193.987 180.328 193.045C180.841 192.102 181.544 191.277 182.392 190.62C183.24 189.964 184.215 189.49 185.256 189.23C186.297 188.97 187.38 188.928 188.437 189.108C189.49 186.91 191.258 185.134 193.452 184.073C195.646 183.012 198.136 182.727 200.513 183.267C202.89 183.806 205.013 185.137 206.534 187.042C208.055 188.946 208.883 191.311 208.884 193.748ZM197.664 193.218C197.523 193.078 197.332 192.999 197.134 192.999C196.935 192.999 196.744 193.078 196.604 193.218L192.604 197.218C192.471 197.361 192.399 197.549 192.402 197.743C192.406 197.937 192.485 198.123 192.622 198.26C192.759 198.397 192.945 198.476 193.139 198.48C193.333 198.483 193.521 198.411 193.664 198.278L196.384 195.56V203.748C196.384 203.947 196.463 204.138 196.603 204.279C196.744 204.419 196.935 204.498 197.134 204.498C197.333 204.498 197.523 204.419 197.664 204.279C197.805 204.138 197.884 203.947 197.884 203.748V195.56L200.604 198.278C200.746 198.411 200.934 198.483 201.128 198.48C201.322 198.476 201.508 198.397 201.645 198.26C201.783 198.123 201.861 197.937 201.865 197.743C201.868 197.549 201.796 197.361 201.664 197.218L197.664 193.218Z" fill="black"/>
<path d="M135.934 217.905L125.934 208.467L125.923 208.457C125.601 208.163 125.181 208 124.746 208C124.31 208 123.89 208.163 123.569 208.457L123.558 208.467L113.558 217.905C113.381 218.07 113.24 218.269 113.144 218.491C113.048 218.713 112.999 218.952 113 219.194V230.75C113 231.214 113.184 231.659 113.513 231.987C113.841 232.316 114.286 232.5 114.75 232.5H120.75C121.214 232.5 121.659 232.316 121.987 231.987C122.316 231.659 122.5 231.214 122.5 230.75V224.75C122.5 224.684 122.526 224.62 122.573 224.573C122.62 224.526 122.684 224.5 122.75 224.5H126.75C126.816 224.5 126.88 224.526 126.927 224.573C126.974 224.62 127 224.684 127 224.75V230.75C127 231.214 127.184 231.659 127.513 231.987C127.841 232.316 128.286 232.5 128.75 232.5H134.75C135.214 232.5 135.659 232.316 135.987 231.987C136.316 231.659 136.5 231.214 136.5 230.75V219.194C136.5 218.951 136.45 218.712 136.352 218.49C136.255 218.268 136.112 218.069 135.934 217.905ZM135 230.75C135 230.816 134.974 230.88 134.927 230.927C134.88 230.974 134.816 231 134.75 231H128.75C128.684 231 128.62 230.974 128.573 230.927C128.526 230.88 128.5 230.816 128.5 230.75V224.75C128.5 224.286 128.316 223.841 127.987 223.513C127.659 223.184 127.214 223 126.75 223H122.75C122.286 223 121.841 223.184 121.513 223.513C121.184 223.841 121 224.286 121 224.75V230.75C121 230.816 120.974 230.88 120.927 230.927C120.88 230.974 120.816 231 120.75 231H114.75C114.684 231 114.62 230.974 114.573 230.927C114.526 230.88 114.5 230.816 114.5 230.75V219.194C114.5 219.159 114.507 219.125 114.521 219.093C114.535 219.061 114.556 219.032 114.581 219.009L114.593 218.999L124.585 209.564C124.631 209.524 124.689 209.502 124.749 209.502C124.81 209.502 124.868 209.524 124.914 209.564L134.908 219L134.918 219.01C134.943 219.033 134.964 219.062 134.978 219.094C134.993 219.126 135 219.16 135 219.195V230.75Z" fill="#FF485E"/>
<path d="M183.735 130C183.74 124.252 182.897 118.535 181.236 113.032L181.128 112.676H180.757H153.38H152.79L152.887 113.258C154.724 124.344 154.724 135.656 152.887 146.742L152.79 147.324H153.38H180.757H181.128L181.236 146.968C182.897 141.465 183.74 135.748 183.735 130ZM183.735 130C183.735 130 183.735 130 183.735 130L183.235 130L183.735 130C183.735 130 183.735 130 183.735 130ZM125 188.735C125.232 188.736 125.461 188.688 125.672 188.593C125.883 188.499 126.071 188.362 126.224 188.19C134.618 179.149 140.774 167.552 144.247 154.719L144.418 154.088H143.765H106.235H105.582L105.753 154.719C109.226 167.552 115.382 179.149 123.776 188.19C123.929 188.362 124.117 188.499 124.328 188.593C124.539 188.688 124.768 188.736 125 188.735ZM125 188.735C124.999 188.735 124.998 188.735 124.997 188.735L125 188.235L125.003 188.735C125.002 188.735 125.001 188.735 125 188.735ZM66.2647 130C66.2604 135.748 67.1026 141.465 68.7643 146.968L68.8717 147.324H69.243H96.62H97.2097L97.1133 146.742C95.2758 135.656 95.2758 124.344 97.1133 113.258L97.2097 112.676H96.62H69.243H68.8717L68.7643 113.032C67.1026 118.535 66.2604 124.252 66.2647 130ZM66.2647 130C66.2647 130 66.2647 130 66.2647 130L66.7647 130L66.2647 130C66.2647 130 66.2647 130 66.2647 130ZM96.62 146.824H96.1132C96.1177 146.851 96.1222 146.878 96.1268 146.905L96.62 146.824ZM96.62 146.824V146.324H96.5384C96.5652 146.49 96.5924 146.657 96.62 146.824ZM96.62 113.176V113.676H96.5384C96.5652 113.51 96.5924 113.343 96.62 113.176ZM96.62 113.176L96.1268 113.095C96.1222 113.122 96.1177 113.149 96.1132 113.176H96.62ZM125 71.2647C124.768 71.2638 124.539 71.3122 124.328 71.4068C124.117 71.5008 123.929 71.6384 123.776 71.8103C115.382 80.8506 109.226 92.4478 105.753 105.281L105.582 105.912H106.235H143.765H144.418L144.247 105.281C140.774 92.4478 134.618 80.8506 126.224 71.8103C126.071 71.6384 125.883 71.5008 125.672 71.4068C125.461 71.3122 125.232 71.2638 125 71.2647ZM125 71.2647C125.001 71.2647 125.002 71.2647 125.003 71.2647L125 71.7647L124.997 71.2647C124.998 71.2647 124.999 71.2647 125 71.2647ZM177.781 105.912H178.566L178.233 105.2C174.342 96.882 168.562 89.5884 161.352 83.9006C154.143 78.2128 145.704 74.2881 136.709 72.4396L135.428 72.1765L136.206 73.227C143.351 82.8739 148.482 93.859 151.296 105.529L151.388 105.912H151.782H177.781ZM104.003 146.912L104.076 147.324H104.495H145.505H145.924L145.997 146.912C148.001 135.726 148.001 124.274 145.997 113.088L145.924 112.676H145.505H104.495H104.076L104.003 113.088C101.999 124.274 101.999 135.726 104.003 146.912ZM113.794 73.227L114.572 72.1765L113.291 72.4396C104.296 74.2881 95.8574 78.2128 88.6479 83.9006C81.4384 89.5884 75.6577 96.882 71.7665 105.2L71.4335 105.912H72.2194H98.2183H98.612L98.7043 105.529C101.518 93.859 106.649 82.8739 113.794 73.227ZM72.2194 154.088H71.4335L71.7665 154.8C75.6577 163.118 81.4384 170.412 88.6479 176.099C95.8574 181.787 104.296 185.712 113.291 187.56L114.572 187.823L113.794 186.773C106.649 177.126 101.518 166.141 98.7043 154.471L98.612 154.088H98.2183H72.2194ZM136.206 186.773L135.428 187.823L136.709 187.56C145.704 185.712 154.143 181.787 161.352 176.099C168.562 170.412 174.342 163.118 178.233 154.8L178.566 154.088H177.781H151.782H151.388L151.296 154.471C148.482 166.141 143.351 177.126 136.206 186.773ZM88.6102 75.5387C99.3815 68.3416 112.045 64.5001 125 64.5C142.365 64.5205 159.014 71.4279 171.293 83.7072C183.572 95.9865 190.48 112.635 190.5 130.001C190.5 142.955 186.658 155.619 179.461 166.39C172.264 177.161 162.034 185.557 150.066 190.514C138.097 195.472 124.927 196.769 112.222 194.241C99.5158 191.714 87.8449 185.476 78.6845 176.315C69.5242 167.155 63.2859 155.484 60.7586 142.778C58.2313 130.073 59.5284 116.903 64.4859 104.934C69.4435 92.9657 77.8388 82.736 88.6102 75.5387Z" stroke="black"/>
</g>
<defs>
<clipPath id="clip0_697_94">
<rect width="259" height="259" fill="white"/>
</clipPath>
</defs>
</svg>
